<mxfile host="app.diagrams.net" modified="2021-05-28T02:40:03.950Z" agent="5.0 (Windows NT 10.0; Win64; x64) AppleWebKit/537.36 (KHTML, like Gecko) Chrome/89.0.4389.114 Safari/537.36" etag="91iepbe9CisoJCCCYj9Q" version="14.7.0" type="github">
  <diagram id="u0sjprY5tG__lQbsZF24" name="Page-1">
    <mxGraphModel dx="2031" dy="1089" grid="1" gridSize="10" guides="1" tooltips="1" connect="1" arrows="1" fold="1" page="1" pageScale="1" pageWidth="2339" pageHeight="3300" math="0" shadow="0">
      <root>
        <mxCell id="0" />
        <mxCell id="1" parent="0" />
        <mxCell id="wJaIogHRavHg8Ts5eM7x-1" style="edgeStyle=orthogonalEdgeStyle;rounded=0;orthogonalLoop=1;jettySize=auto;html=1;entryX=1.025;entryY=0;entryDx=0;entryDy=0;entryPerimeter=0;startSize=0;" edge="1" parent="1" target="wJaIogHRavHg8Ts5eM7x-140">
          <mxGeometry relative="1" as="geometry">
            <mxPoint x="960" y="1050" as="sourcePoint" />
            <Array as="points">
              <mxPoint x="970" y="1050" />
              <mxPoint x="1000" y="1050" />
              <mxPoint x="1000" y="317" />
            </Array>
          </mxGeometry>
        </mxCell>
        <mxCell id="wJaIogHRavHg8Ts5eM7x-2" value="" style="rounded=1;whiteSpace=wrap;html=1;fillColor=#f8cecc;strokeWidth=1;perimeterSpacing=0;opacity=50;strokeColor=none;" vertex="1" parent="1">
          <mxGeometry x="70" y="1000" width="830" height="40" as="geometry" />
        </mxCell>
        <mxCell id="wJaIogHRavHg8Ts5eM7x-3" value="&lt;p style=&quot;line-height: 0% ; font-size: 14px&quot;&gt;&lt;font style=&quot;font-size: 14px&quot; face=&quot;Lucida Console&quot;&gt;&lt;b&gt;上&lt;/b&gt;&lt;/font&gt;&lt;/p&gt;&lt;p style=&quot;font-size: 14px&quot;&gt;&lt;font style=&quot;font-size: 14px&quot; face=&quot;Lucida Console&quot; color=&quot;#808080&quot;&gt;&lt;b&gt;Up&lt;/b&gt;&lt;/font&gt;&lt;/p&gt;" style="rounded=1;whiteSpace=wrap;html=1;fillColor=#eeeeee;strokeColor=none;" vertex="1" parent="1">
          <mxGeometry x="70" y="930" width="50" height="60" as="geometry" />
        </mxCell>
        <mxCell id="wJaIogHRavHg8Ts5eM7x-4" value="" style="rounded=1;whiteSpace=wrap;html=1;strokeColor=none;strokeWidth=1;fillColor=#f8cecc;opacity=50;" vertex="1" parent="1">
          <mxGeometry x="70" y="1050" width="830" height="40" as="geometry" />
        </mxCell>
        <mxCell id="wJaIogHRavHg8Ts5eM7x-5" value="&lt;p style=&quot;line-height: 0% ; font-size: 14px&quot;&gt;&lt;font face=&quot;Lucida Console&quot;&gt;&lt;b&gt;海&lt;/b&gt;&lt;/font&gt;&lt;/p&gt;&lt;p style=&quot;font-size: 14px&quot;&gt;&lt;font color=&quot;#808080&quot; face=&quot;Lucida Console&quot;&gt;&lt;b&gt;Ocean&lt;/b&gt;&lt;/font&gt;&lt;/p&gt;" style="rounded=1;whiteSpace=wrap;html=1;fillColor=#eeeeee;strokeColor=none;arcSize=0;" vertex="1" parent="1">
          <mxGeometry x="140" y="930" width="50" height="60" as="geometry" />
        </mxCell>
        <mxCell id="wJaIogHRavHg8Ts5eM7x-6" value="&lt;p style=&quot;line-height: 0% ; font-size: 14px&quot;&gt;&lt;font face=&quot;Lucida Console&quot;&gt;&lt;b&gt;东&lt;/b&gt;&lt;/font&gt;&lt;/p&gt;&lt;p style=&quot;font-size: 14px&quot;&gt;&lt;font color=&quot;#808080&quot; face=&quot;Lucida Console&quot;&gt;&lt;b&gt;East&lt;/b&gt;&lt;/font&gt;&lt;/p&gt;" style="rounded=1;whiteSpace=wrap;html=1;fillColor=#eeeeee;strokeColor=none;" vertex="1" parent="1">
          <mxGeometry x="210" y="930" width="50" height="60" as="geometry" />
        </mxCell>
        <mxCell id="wJaIogHRavHg8Ts5eM7x-7" value="&lt;p style=&quot;line-height: 0% ; font-size: 14px&quot;&gt;&lt;font face=&quot;Lucida Console&quot;&gt;&lt;b&gt;华&lt;/b&gt;&lt;/font&gt;&lt;/p&gt;&lt;p style=&quot;font-size: 14px&quot;&gt;&lt;font color=&quot;#808080&quot; face=&quot;Lucida Console&quot;&gt;&lt;b&gt;China&lt;/b&gt;&lt;/font&gt;&lt;/p&gt;" style="rounded=1;whiteSpace=wrap;html=1;fillColor=#eeeeee;strokeColor=none;" vertex="1" parent="1">
          <mxGeometry x="280" y="930" width="50" height="60" as="geometry" />
        </mxCell>
        <mxCell id="wJaIogHRavHg8Ts5eM7x-8" value="&lt;p style=&quot;line-height: 0% ; font-size: 14px&quot;&gt;&lt;font face=&quot;Lucida Console&quot;&gt;&lt;b&gt;大&lt;/b&gt;&lt;/font&gt;&lt;/p&gt;&lt;p style=&quot;font-size: 14px&quot;&gt;&lt;font color=&quot;#808080&quot; face=&quot;Lucida Console&quot;&gt;&lt;b&gt;Large&lt;/b&gt;&lt;/font&gt;&lt;/p&gt;" style="rounded=1;whiteSpace=wrap;html=1;fillColor=#eeeeee;strokeColor=none;" vertex="1" parent="1">
          <mxGeometry x="350" y="930" width="50" height="60" as="geometry" />
        </mxCell>
        <mxCell id="wJaIogHRavHg8Ts5eM7x-9" value="&lt;p style=&quot;line-height: 0% ; font-size: 14px&quot;&gt;&lt;font face=&quot;Lucida Console&quot;&gt;&lt;b&gt;学&lt;/b&gt;&lt;/font&gt;&lt;/p&gt;&lt;p style=&quot;font-size: 14px&quot;&gt;&lt;font color=&quot;#808080&quot; face=&quot;Lucida Console&quot;&gt;&lt;b&gt;Study&lt;/b&gt;&lt;/font&gt;&lt;/p&gt;" style="rounded=1;whiteSpace=wrap;html=1;fillColor=#eeeeee;strokeColor=none;" vertex="1" parent="1">
          <mxGeometry x="423.5" y="930" width="50" height="60" as="geometry" />
        </mxCell>
        <mxCell id="wJaIogHRavHg8Ts5eM7x-10" value="&lt;p style=&quot;line-height: 0% ; font-size: 14px&quot;&gt;&lt;font style=&quot;font-size: 14px&quot; face=&quot;Lucida Console&quot;&gt;&lt;b&gt;上海&lt;/b&gt;&lt;/font&gt;&lt;/p&gt;&lt;p style=&quot;font-size: 14px&quot;&gt;&lt;font color=&quot;#808080&quot; face=&quot;Lucida Console&quot;&gt;&lt;b&gt;Shanghai&lt;/b&gt;&lt;/font&gt;&lt;/p&gt;" style="rounded=1;whiteSpace=wrap;html=1;fillColor=#eeeeee;strokeColor=none;" vertex="1" parent="1">
          <mxGeometry x="490" y="930" width="80" height="60" as="geometry" />
        </mxCell>
        <mxCell id="wJaIogHRavHg8Ts5eM7x-11" value="&lt;p style=&quot;line-height: 0% ; font-size: 14px&quot;&gt;&lt;font face=&quot;Lucida Console&quot;&gt;&lt;b&gt;东华大学&lt;/b&gt;&lt;/font&gt;&lt;/p&gt;&lt;p style=&quot;font-size: 14px&quot;&gt;&lt;font color=&quot;#808080&quot; face=&quot;Lucida Console&quot;&gt;&lt;b&gt;Donghua University&lt;/b&gt;&lt;/font&gt;&lt;/p&gt;" style="rounded=1;whiteSpace=wrap;html=1;fillColor=#eeeeee;strokeColor=none;" vertex="1" parent="1">
          <mxGeometry x="580" y="930" width="170" height="60" as="geometry" />
        </mxCell>
        <mxCell id="wJaIogHRavHg8Ts5eM7x-12" value="&lt;p style=&quot;line-height: 0% ; font-size: 14px&quot;&gt;&lt;font face=&quot;Lucida Console&quot;&gt;&lt;b&gt;大学&lt;/b&gt;&lt;/font&gt;&lt;/p&gt;&lt;p style=&quot;font-size: 14px&quot;&gt;&lt;font color=&quot;#808080&quot; face=&quot;Lucida Console&quot;&gt;&lt;b&gt;University&lt;/b&gt;&lt;/font&gt;&lt;/p&gt;" style="rounded=1;whiteSpace=wrap;html=1;fillColor=#eeeeee;strokeColor=none;" vertex="1" parent="1">
          <mxGeometry x="760" y="930" width="140" height="60" as="geometry" />
        </mxCell>
        <mxCell id="wJaIogHRavHg8Ts5eM7x-13" value="&lt;font style=&quot;font-size: 15px&quot; face=&quot;Lucida Console&quot;&gt;&lt;b&gt;Token&lt;/b&gt;&lt;/font&gt;" style="text;html=1;align=center;verticalAlign=middle;resizable=0;points=[];autosize=1;" vertex="1" parent="1">
          <mxGeometry x="10" y="940" width="60" height="20" as="geometry" />
        </mxCell>
        <mxCell id="wJaIogHRavHg8Ts5eM7x-14" value="&lt;font style=&quot;font-size: 15px&quot; face=&quot;Lucida Console&quot;&gt;&lt;b&gt;Head&lt;/b&gt;&lt;/font&gt;" style="text;html=1;align=center;verticalAlign=middle;resizable=0;points=[];autosize=1;" vertex="1" parent="1">
          <mxGeometry x="10" y="1010" width="50" height="20" as="geometry" />
        </mxCell>
        <mxCell id="wJaIogHRavHg8Ts5eM7x-15" value="&lt;font style=&quot;font-size: 15px&quot; face=&quot;Lucida Console&quot;&gt;&lt;b&gt;Tail&lt;/b&gt;&lt;/font&gt;" style="text;html=1;align=center;verticalAlign=middle;resizable=0;points=[];autosize=1;" vertex="1" parent="1">
          <mxGeometry x="10" y="1060" width="50" height="20" as="geometry" />
        </mxCell>
        <mxCell id="wJaIogHRavHg8Ts5eM7x-16" value="&lt;span style=&quot;color: rgb(255 , 102 , 102) ; font-family: &amp;#34;helvetica&amp;#34; ; font-style: normal ; letter-spacing: normal ; text-align: center ; text-indent: 0px ; text-transform: none ; word-spacing: 0px ; display: inline ; float: none&quot;&gt;&lt;b&gt;&lt;font style=&quot;font-size: 18px&quot;&gt;1&lt;/font&gt;&lt;/b&gt;&lt;/span&gt;" style="text;html=1;align=center;verticalAlign=middle;resizable=0;points=[];autosize=1;" vertex="1" parent="1">
          <mxGeometry x="80" y="1010" width="30" height="20" as="geometry" />
        </mxCell>
        <mxCell id="wJaIogHRavHg8Ts5eM7x-17" value="&lt;span style=&quot;color: rgb(255 , 102 , 102) ; font-family: &amp;#34;helvetica&amp;#34; ; font-style: normal ; letter-spacing: normal ; text-align: center ; text-indent: 0px ; text-transform: none ; word-spacing: 0px ; display: inline ; float: none&quot;&gt;&lt;b&gt;&lt;font style=&quot;font-size: 18px&quot;&gt;1&lt;/font&gt;&lt;/b&gt;&lt;/span&gt;" style="text;html=1;align=center;verticalAlign=middle;resizable=0;points=[];autosize=1;" vertex="1" parent="1">
          <mxGeometry x="80" y="1060" width="30" height="20" as="geometry" />
        </mxCell>
        <mxCell id="wJaIogHRavHg8Ts5eM7x-18" value="&lt;span style=&quot;color: rgb(255 , 102 , 102) ; font-family: &amp;#34;helvetica&amp;#34; ; font-style: normal ; letter-spacing: normal ; text-align: center ; text-indent: 0px ; text-transform: none ; word-spacing: 0px ; display: inline ; float: none&quot;&gt;&lt;b&gt;&lt;font style=&quot;font-size: 18px&quot;&gt;2&lt;/font&gt;&lt;/b&gt;&lt;/span&gt;" style="text;html=1;align=center;verticalAlign=middle;resizable=0;points=[];autosize=1;" vertex="1" parent="1">
          <mxGeometry x="150" y="1010" width="30" height="20" as="geometry" />
        </mxCell>
        <mxCell id="wJaIogHRavHg8Ts5eM7x-19" value="&lt;span style=&quot;color: rgb(255 , 102 , 102) ; font-family: &amp;#34;helvetica&amp;#34; ; font-style: normal ; letter-spacing: normal ; text-align: center ; text-indent: 0px ; text-transform: none ; word-spacing: 0px ; display: inline ; float: none&quot;&gt;&lt;b&gt;&lt;font style=&quot;font-size: 18px&quot;&gt;2&lt;/font&gt;&lt;/b&gt;&lt;/span&gt;" style="text;html=1;align=center;verticalAlign=middle;resizable=0;points=[];autosize=1;" vertex="1" parent="1">
          <mxGeometry x="150" y="1060" width="30" height="20" as="geometry" />
        </mxCell>
        <mxCell id="wJaIogHRavHg8Ts5eM7x-20" value="&lt;span style=&quot;color: rgb(255 , 102 , 102) ; font-family: &amp;#34;helvetica&amp;#34; ; font-style: normal ; letter-spacing: normal ; text-align: center ; text-indent: 0px ; text-transform: none ; word-spacing: 0px ; display: inline ; float: none&quot;&gt;&lt;b&gt;&lt;font style=&quot;font-size: 18px&quot;&gt;3&lt;/font&gt;&lt;/b&gt;&lt;/span&gt;" style="text;html=1;align=center;verticalAlign=middle;resizable=0;points=[];autosize=1;" vertex="1" parent="1">
          <mxGeometry x="220" y="1010" width="30" height="20" as="geometry" />
        </mxCell>
        <mxCell id="wJaIogHRavHg8Ts5eM7x-21" value="&lt;span style=&quot;color: rgb(255 , 102 , 102) ; font-family: &amp;#34;helvetica&amp;#34; ; font-style: normal ; letter-spacing: normal ; text-align: center ; text-indent: 0px ; text-transform: none ; word-spacing: 0px ; display: inline ; float: none&quot;&gt;&lt;b&gt;&lt;font style=&quot;font-size: 18px&quot;&gt;3&lt;/font&gt;&lt;/b&gt;&lt;/span&gt;" style="text;html=1;align=center;verticalAlign=middle;resizable=0;points=[];autosize=1;" vertex="1" parent="1">
          <mxGeometry x="220" y="1060" width="30" height="20" as="geometry" />
        </mxCell>
        <mxCell id="wJaIogHRavHg8Ts5eM7x-22" value="&lt;span style=&quot;color: rgb(255 , 102 , 102) ; font-family: &amp;#34;helvetica&amp;#34; ; font-style: normal ; letter-spacing: normal ; text-align: center ; text-indent: 0px ; text-transform: none ; word-spacing: 0px ; display: inline ; float: none&quot;&gt;&lt;b&gt;&lt;font style=&quot;font-size: 18px&quot;&gt;4&lt;/font&gt;&lt;/b&gt;&lt;/span&gt;" style="text;html=1;align=center;verticalAlign=middle;resizable=0;points=[];autosize=1;" vertex="1" parent="1">
          <mxGeometry x="290" y="1010" width="30" height="20" as="geometry" />
        </mxCell>
        <mxCell id="wJaIogHRavHg8Ts5eM7x-23" value="&lt;span style=&quot;color: rgb(255 , 102 , 102) ; font-family: &amp;#34;helvetica&amp;#34; ; font-style: normal ; letter-spacing: normal ; text-align: center ; text-indent: 0px ; text-transform: none ; word-spacing: 0px ; display: inline ; float: none&quot;&gt;&lt;b&gt;&lt;font style=&quot;font-size: 18px&quot;&gt;4&lt;/font&gt;&lt;/b&gt;&lt;/span&gt;" style="text;html=1;align=center;verticalAlign=middle;resizable=0;points=[];autosize=1;" vertex="1" parent="1">
          <mxGeometry x="290" y="1060" width="30" height="20" as="geometry" />
        </mxCell>
        <mxCell id="wJaIogHRavHg8Ts5eM7x-24" value="&lt;span style=&quot;color: rgb(255 , 102 , 102) ; font-family: &amp;#34;helvetica&amp;#34; ; font-style: normal ; letter-spacing: normal ; text-align: center ; text-indent: 0px ; text-transform: none ; word-spacing: 0px ; display: inline ; float: none&quot;&gt;&lt;b&gt;&lt;font style=&quot;font-size: 18px&quot;&gt;5&lt;/font&gt;&lt;/b&gt;&lt;/span&gt;" style="text;html=1;align=center;verticalAlign=middle;resizable=0;points=[];autosize=1;" vertex="1" parent="1">
          <mxGeometry x="360" y="1010" width="30" height="20" as="geometry" />
        </mxCell>
        <mxCell id="wJaIogHRavHg8Ts5eM7x-25" value="&lt;span style=&quot;color: rgb(255 , 102 , 102) ; font-family: &amp;#34;helvetica&amp;#34; ; font-style: normal ; letter-spacing: normal ; text-align: center ; text-indent: 0px ; text-transform: none ; word-spacing: 0px ; display: inline ; float: none&quot;&gt;&lt;b&gt;&lt;font style=&quot;font-size: 18px&quot;&gt;5&lt;/font&gt;&lt;/b&gt;&lt;/span&gt;" style="text;html=1;align=center;verticalAlign=middle;resizable=0;points=[];autosize=1;" vertex="1" parent="1">
          <mxGeometry x="360" y="1060" width="30" height="20" as="geometry" />
        </mxCell>
        <mxCell id="wJaIogHRavHg8Ts5eM7x-26" value="&lt;span style=&quot;color: rgb(255 , 102 , 102) ; font-family: &amp;#34;helvetica&amp;#34; ; font-style: normal ; letter-spacing: normal ; text-align: center ; text-indent: 0px ; text-transform: none ; word-spacing: 0px ; display: inline ; float: none&quot;&gt;&lt;b&gt;&lt;font style=&quot;font-size: 18px&quot;&gt;6&lt;/font&gt;&lt;/b&gt;&lt;/span&gt;" style="text;html=1;align=center;verticalAlign=middle;resizable=0;points=[];autosize=1;" vertex="1" parent="1">
          <mxGeometry x="433.5" y="1010" width="30" height="20" as="geometry" />
        </mxCell>
        <mxCell id="wJaIogHRavHg8Ts5eM7x-27" value="&lt;span style=&quot;color: rgb(255 , 102 , 102) ; font-family: &amp;#34;helvetica&amp;#34; ; font-style: normal ; letter-spacing: normal ; text-align: center ; text-indent: 0px ; text-transform: none ; word-spacing: 0px ; display: inline ; float: none&quot;&gt;&lt;b&gt;&lt;font style=&quot;font-size: 18px&quot;&gt;6&lt;/font&gt;&lt;/b&gt;&lt;/span&gt;" style="text;html=1;align=center;verticalAlign=middle;resizable=0;points=[];autosize=1;" vertex="1" parent="1">
          <mxGeometry x="433.5" y="1060" width="30" height="20" as="geometry" />
        </mxCell>
        <mxCell id="wJaIogHRavHg8Ts5eM7x-28" value="&lt;span style=&quot;color: rgb(255 , 102 , 102) ; font-family: &amp;#34;helvetica&amp;#34; ; font-style: normal ; letter-spacing: normal ; text-align: center ; text-indent: 0px ; text-transform: none ; word-spacing: 0px ; display: inline ; float: none&quot;&gt;&lt;b&gt;&lt;font style=&quot;font-size: 18px&quot;&gt;1&lt;/font&gt;&lt;/b&gt;&lt;/span&gt;" style="text;html=1;align=center;verticalAlign=middle;resizable=0;points=[];autosize=1;" vertex="1" parent="1">
          <mxGeometry x="515" y="1010" width="30" height="20" as="geometry" />
        </mxCell>
        <mxCell id="wJaIogHRavHg8Ts5eM7x-29" value="&lt;span style=&quot;color: rgb(255 , 102 , 102) ; font-family: &amp;#34;helvetica&amp;#34; ; font-style: normal ; letter-spacing: normal ; text-align: center ; text-indent: 0px ; text-transform: none ; word-spacing: 0px ; display: inline ; float: none&quot;&gt;&lt;b&gt;&lt;font style=&quot;font-size: 18px&quot;&gt;2&lt;/font&gt;&lt;/b&gt;&lt;/span&gt;" style="text;html=1;align=center;verticalAlign=middle;resizable=0;points=[];autosize=1;" vertex="1" parent="1">
          <mxGeometry x="515" y="1060" width="30" height="20" as="geometry" />
        </mxCell>
        <mxCell id="wJaIogHRavHg8Ts5eM7x-30" value="&lt;span style=&quot;color: rgb(255 , 102 , 102) ; font-family: &amp;#34;helvetica&amp;#34; ; font-style: normal ; letter-spacing: normal ; text-align: center ; text-indent: 0px ; text-transform: none ; word-spacing: 0px ; display: inline ; float: none&quot;&gt;&lt;b&gt;&lt;font style=&quot;font-size: 18px&quot;&gt;3&lt;/font&gt;&lt;/b&gt;&lt;/span&gt;" style="text;html=1;align=center;verticalAlign=middle;resizable=0;points=[];autosize=1;" vertex="1" parent="1">
          <mxGeometry x="650" y="1010" width="30" height="20" as="geometry" />
        </mxCell>
        <mxCell id="wJaIogHRavHg8Ts5eM7x-31" value="&lt;span style=&quot;color: rgb(255 , 102 , 102) ; font-family: &amp;#34;helvetica&amp;#34; ; font-style: normal ; letter-spacing: normal ; text-align: center ; text-indent: 0px ; text-transform: none ; word-spacing: 0px ; display: inline ; float: none&quot;&gt;&lt;b&gt;&lt;font style=&quot;font-size: 18px&quot;&gt;6&lt;/font&gt;&lt;/b&gt;&lt;/span&gt;" style="text;html=1;align=center;verticalAlign=middle;resizable=0;points=[];autosize=1;" vertex="1" parent="1">
          <mxGeometry x="650" y="1060" width="30" height="20" as="geometry" />
        </mxCell>
        <mxCell id="wJaIogHRavHg8Ts5eM7x-32" value="&lt;span style=&quot;color: rgb(255 , 102 , 102) ; font-family: &amp;#34;helvetica&amp;#34; ; font-style: normal ; letter-spacing: normal ; text-align: center ; text-indent: 0px ; text-transform: none ; word-spacing: 0px ; display: inline ; float: none&quot;&gt;&lt;b&gt;&lt;font style=&quot;font-size: 18px&quot;&gt;5&lt;/font&gt;&lt;/b&gt;&lt;/span&gt;" style="text;html=1;align=center;verticalAlign=middle;resizable=0;points=[];autosize=1;" vertex="1" parent="1">
          <mxGeometry x="808" y="1010" width="30" height="20" as="geometry" />
        </mxCell>
        <mxCell id="wJaIogHRavHg8Ts5eM7x-33" value="&lt;span style=&quot;color: rgb(255 , 102 , 102) ; font-family: &amp;#34;helvetica&amp;#34; ; font-style: normal ; letter-spacing: normal ; text-align: center ; text-indent: 0px ; text-transform: none ; word-spacing: 0px ; display: inline ; float: none&quot;&gt;&lt;b&gt;&lt;font style=&quot;font-size: 18px&quot;&gt;6&lt;/font&gt;&lt;/b&gt;&lt;/span&gt;" style="text;html=1;align=center;verticalAlign=middle;resizable=0;points=[];autosize=1;" vertex="1" parent="1">
          <mxGeometry x="808" y="1060" width="30" height="20" as="geometry" />
        </mxCell>
        <mxCell id="wJaIogHRavHg8Ts5eM7x-34" value="&lt;font face=&quot;Lucida Console&quot; style=&quot;font-size: 20px&quot;&gt;&lt;b&gt;Raw Embedding&lt;/b&gt;&lt;/font&gt;" style="rounded=1;whiteSpace=wrap;html=1;strokeWidth=1;opacity=80;strokeColor=#36393d;fillColor=#ffcc99;arcSize=50;" vertex="1" parent="1">
          <mxGeometry x="90" y="810" width="230" height="55" as="geometry" />
        </mxCell>
        <mxCell id="wJaIogHRavHg8Ts5eM7x-35" style="edgeStyle=orthogonalEdgeStyle;rounded=0;orthogonalLoop=1;jettySize=auto;html=1;exitX=0.5;exitY=0;exitDx=0;exitDy=0;entryX=0.5;entryY=1;entryDx=0;entryDy=0;" edge="1" parent="1" source="wJaIogHRavHg8Ts5eM7x-36" target="wJaIogHRavHg8Ts5eM7x-38">
          <mxGeometry relative="1" as="geometry" />
        </mxCell>
        <mxCell id="wJaIogHRavHg8Ts5eM7x-36" value="&lt;font face=&quot;Lucida Console&quot; style=&quot;font-size: 20px&quot;&gt;&lt;b&gt;Self-Attention&lt;/b&gt;&lt;/font&gt;" style="rounded=1;whiteSpace=wrap;html=1;strokeWidth=1;opacity=80;strokeColor=#36393d;fillColor=#ffcc99;arcSize=50;" vertex="1" parent="1">
          <mxGeometry x="90" y="500" width="230" height="50" as="geometry" />
        </mxCell>
        <mxCell id="wJaIogHRavHg8Ts5eM7x-37" style="edgeStyle=orthogonalEdgeStyle;rounded=0;orthogonalLoop=1;jettySize=auto;html=1;exitX=0.5;exitY=0;exitDx=0;exitDy=0;entryX=0.5;entryY=1;entryDx=0;entryDy=0;" edge="1" parent="1" source="wJaIogHRavHg8Ts5eM7x-38" target="wJaIogHRavHg8Ts5eM7x-40">
          <mxGeometry relative="1" as="geometry" />
        </mxCell>
        <mxCell id="wJaIogHRavHg8Ts5eM7x-38" value="&lt;font face=&quot;Lucida Console&quot; style=&quot;font-size: 20px&quot; color=&quot;#000000&quot;&gt;&lt;b&gt;Add &amp;amp; Norm&lt;/b&gt;&lt;/font&gt;" style="rounded=1;whiteSpace=wrap;html=1;strokeWidth=1;opacity=80;strokeColor=#005700;fillColor=#008a00;arcSize=50;fontColor=#ffffff;" vertex="1" parent="1">
          <mxGeometry x="90" y="420" width="230" height="50" as="geometry" />
        </mxCell>
        <mxCell id="wJaIogHRavHg8Ts5eM7x-39" style="edgeStyle=orthogonalEdgeStyle;rounded=0;orthogonalLoop=1;jettySize=auto;html=1;exitX=0.5;exitY=0;exitDx=0;exitDy=0;entryX=0.5;entryY=1;entryDx=0;entryDy=0;" edge="1" parent="1" source="wJaIogHRavHg8Ts5eM7x-40" target="wJaIogHRavHg8Ts5eM7x-42">
          <mxGeometry relative="1" as="geometry" />
        </mxCell>
        <mxCell id="wJaIogHRavHg8Ts5eM7x-40" value="&lt;font face=&quot;Lucida Console&quot; style=&quot;font-size: 20px&quot; color=&quot;#000000&quot;&gt;&lt;b&gt;FFN&lt;/b&gt;&lt;/font&gt;" style="rounded=1;whiteSpace=wrap;html=1;strokeWidth=1;opacity=80;strokeColor=#B09500;fillColor=#e3c800;arcSize=50;fontColor=#ffffff;" vertex="1" parent="1">
          <mxGeometry x="90" y="330" width="230" height="50" as="geometry" />
        </mxCell>
        <mxCell id="wJaIogHRavHg8Ts5eM7x-41" style="edgeStyle=orthogonalEdgeStyle;rounded=0;orthogonalLoop=1;jettySize=auto;html=1;exitX=0.5;exitY=0;exitDx=0;exitDy=0;entryX=0.5;entryY=1;entryDx=0;entryDy=0;" edge="1" parent="1" source="wJaIogHRavHg8Ts5eM7x-42" target="wJaIogHRavHg8Ts5eM7x-43">
          <mxGeometry relative="1" as="geometry" />
        </mxCell>
        <mxCell id="wJaIogHRavHg8Ts5eM7x-42" value="&lt;font face=&quot;Lucida Console&quot; style=&quot;font-size: 20px&quot; color=&quot;#000000&quot;&gt;&lt;b&gt;Add &amp;amp; Norm&lt;/b&gt;&lt;/font&gt;" style="rounded=1;whiteSpace=wrap;html=1;strokeWidth=1;opacity=80;strokeColor=#005700;fillColor=#008a00;arcSize=50;fontColor=#ffffff;" vertex="1" parent="1">
          <mxGeometry x="90" y="250" width="230" height="50" as="geometry" />
        </mxCell>
        <mxCell id="wJaIogHRavHg8Ts5eM7x-43" value="&lt;font face=&quot;Lucida Console&quot; style=&quot;font-size: 20px&quot; color=&quot;#000000&quot;&gt;&lt;b&gt;Linear &amp;amp; CRF&lt;/b&gt;&lt;/font&gt;" style="rounded=1;whiteSpace=wrap;html=1;strokeWidth=1;opacity=80;strokeColor=#001DBC;fillColor=#0050ef;arcSize=50;fontColor=#ffffff;" vertex="1" parent="1">
          <mxGeometry x="90" y="140" width="230" height="50" as="geometry" />
        </mxCell>
        <mxCell id="wJaIogHRavHg8Ts5eM7x-44" value="" style="group" vertex="1" connectable="0" parent="1">
          <mxGeometry x="450" y="100" width="437.3699999999999" height="520" as="geometry" />
        </mxCell>
        <mxCell id="wJaIogHRavHg8Ts5eM7x-45" value="" style="shape=table;html=1;whiteSpace=wrap;startSize=0;container=1;collapsible=0;childLayout=tableLayout;strokeWidth=1;gradientColor=#ffffff;opacity=80;rowLines=1;columnLines=1;" vertex="1" parent="wJaIogHRavHg8Ts5eM7x-44">
          <mxGeometry width="145.79" height="390" as="geometry" />
        </mxCell>
        <mxCell id="wJaIogHRavHg8Ts5eM7x-46" value="" style="shape=partialRectangle;html=1;whiteSpace=wrap;collapsible=0;dropTarget=0;pointerEvents=0;fillColor=none;top=0;left=0;bottom=0;right=0;points=[[0,0.5],[1,0.5]];portConstraint=eastwest;" vertex="1" parent="wJaIogHRavHg8Ts5eM7x-45">
          <mxGeometry width="145.79" height="48" as="geometry" />
        </mxCell>
        <mxCell id="wJaIogHRavHg8Ts5eM7x-47" value="" style="shape=partialRectangle;html=1;whiteSpace=wrap;connectable=0;fillColor=#6a00ff;top=0;left=0;bottom=0;right=0;overflow=hidden;strokeColor=#3700CC;fontColor=#ffffff;opacity=80;" vertex="1" parent="wJaIogHRavHg8Ts5eM7x-46">
          <mxGeometry width="48" height="48" as="geometry" />
        </mxCell>
        <mxCell id="wJaIogHRavHg8Ts5eM7x-48" value="" style="shape=partialRectangle;html=1;whiteSpace=wrap;connectable=0;fillColor=#6a00ff;top=0;left=0;bottom=0;right=0;overflow=hidden;fontColor=#ffffff;strokeColor=#3700CC;opacity=80;" vertex="1" parent="wJaIogHRavHg8Ts5eM7x-46">
          <mxGeometry x="48" width="48" height="48" as="geometry" />
        </mxCell>
        <mxCell id="wJaIogHRavHg8Ts5eM7x-49" value="" style="shape=partialRectangle;html=1;whiteSpace=wrap;connectable=0;fillColor=#6a00ff;top=0;left=0;bottom=0;right=0;overflow=hidden;fontColor=#ffffff;strokeColor=#3700CC;opacity=80;" vertex="1" parent="wJaIogHRavHg8Ts5eM7x-46">
          <mxGeometry x="96" width="50" height="48" as="geometry" />
        </mxCell>
        <mxCell id="wJaIogHRavHg8Ts5eM7x-50" value="" style="shape=partialRectangle;html=1;whiteSpace=wrap;collapsible=0;dropTarget=0;pointerEvents=0;fillColor=none;top=0;left=0;bottom=0;right=0;points=[[0,0.5],[1,0.5]];portConstraint=eastwest;" vertex="1" parent="wJaIogHRavHg8Ts5eM7x-45">
          <mxGeometry y="48" width="145.79" height="40" as="geometry" />
        </mxCell>
        <mxCell id="wJaIogHRavHg8Ts5eM7x-51" value="" style="shape=partialRectangle;html=1;whiteSpace=wrap;connectable=0;fillColor=none;top=0;left=0;bottom=0;right=0;overflow=hidden;" vertex="1" parent="wJaIogHRavHg8Ts5eM7x-50">
          <mxGeometry width="48" height="40" as="geometry" />
        </mxCell>
        <mxCell id="wJaIogHRavHg8Ts5eM7x-52" value="" style="shape=partialRectangle;html=1;whiteSpace=wrap;connectable=0;fillColor=none;top=0;left=0;bottom=0;right=0;overflow=hidden;" vertex="1" parent="wJaIogHRavHg8Ts5eM7x-50">
          <mxGeometry x="48" width="48" height="40" as="geometry" />
        </mxCell>
        <mxCell id="wJaIogHRavHg8Ts5eM7x-53" value="" style="shape=partialRectangle;html=1;whiteSpace=wrap;connectable=0;fillColor=none;top=0;left=0;bottom=0;right=0;overflow=hidden;" vertex="1" parent="wJaIogHRavHg8Ts5eM7x-50">
          <mxGeometry x="96" width="50" height="40" as="geometry" />
        </mxCell>
        <mxCell id="wJaIogHRavHg8Ts5eM7x-54" value="" style="shape=partialRectangle;html=1;whiteSpace=wrap;collapsible=0;dropTarget=0;pointerEvents=0;fillColor=none;top=0;left=0;bottom=0;right=0;points=[[0,0.5],[1,0.5]];portConstraint=eastwest;" vertex="1" parent="wJaIogHRavHg8Ts5eM7x-45">
          <mxGeometry y="88" width="145.79" height="45" as="geometry" />
        </mxCell>
        <mxCell id="wJaIogHRavHg8Ts5eM7x-55" value="" style="shape=partialRectangle;html=1;whiteSpace=wrap;connectable=0;fillColor=none;top=0;left=0;bottom=0;right=0;overflow=hidden;" vertex="1" parent="wJaIogHRavHg8Ts5eM7x-54">
          <mxGeometry width="48" height="45" as="geometry" />
        </mxCell>
        <mxCell id="wJaIogHRavHg8Ts5eM7x-56" value="" style="shape=partialRectangle;html=1;whiteSpace=wrap;connectable=0;fillColor=none;top=0;left=0;bottom=0;right=0;overflow=hidden;" vertex="1" parent="wJaIogHRavHg8Ts5eM7x-54">
          <mxGeometry x="48" width="48" height="45" as="geometry" />
        </mxCell>
        <mxCell id="wJaIogHRavHg8Ts5eM7x-57" value="" style="shape=partialRectangle;html=1;whiteSpace=wrap;connectable=0;fillColor=none;top=0;left=0;bottom=0;right=0;overflow=hidden;" vertex="1" parent="wJaIogHRavHg8Ts5eM7x-54">
          <mxGeometry x="96" width="50" height="45" as="geometry" />
        </mxCell>
        <mxCell id="wJaIogHRavHg8Ts5eM7x-58" value="" style="shape=partialRectangle;html=1;whiteSpace=wrap;collapsible=0;dropTarget=0;pointerEvents=0;fillColor=none;top=0;left=0;bottom=0;right=0;points=[[0,0.5],[1,0.5]];portConstraint=eastwest;" vertex="1" parent="wJaIogHRavHg8Ts5eM7x-45">
          <mxGeometry y="133" width="145.79" height="43" as="geometry" />
        </mxCell>
        <mxCell id="wJaIogHRavHg8Ts5eM7x-59" value="" style="shape=partialRectangle;html=1;whiteSpace=wrap;connectable=0;fillColor=none;top=0;left=0;bottom=0;right=0;overflow=hidden;" vertex="1" parent="wJaIogHRavHg8Ts5eM7x-58">
          <mxGeometry width="48" height="43" as="geometry" />
        </mxCell>
        <mxCell id="wJaIogHRavHg8Ts5eM7x-60" value="" style="shape=partialRectangle;html=1;whiteSpace=wrap;connectable=0;fillColor=none;top=0;left=0;bottom=0;right=0;overflow=hidden;" vertex="1" parent="wJaIogHRavHg8Ts5eM7x-58">
          <mxGeometry x="48" width="48" height="43" as="geometry" />
        </mxCell>
        <mxCell id="wJaIogHRavHg8Ts5eM7x-61" value="" style="shape=partialRectangle;html=1;whiteSpace=wrap;connectable=0;fillColor=none;top=0;left=0;bottom=0;right=0;overflow=hidden;" vertex="1" parent="wJaIogHRavHg8Ts5eM7x-58">
          <mxGeometry x="96" width="50" height="43" as="geometry" />
        </mxCell>
        <mxCell id="wJaIogHRavHg8Ts5eM7x-62" value="" style="shape=partialRectangle;html=1;whiteSpace=wrap;collapsible=0;dropTarget=0;pointerEvents=0;fillColor=none;top=0;left=0;bottom=0;right=0;points=[[0,0.5],[1,0.5]];portConstraint=eastwest;" vertex="1" parent="wJaIogHRavHg8Ts5eM7x-45">
          <mxGeometry y="176" width="145.79" height="41" as="geometry" />
        </mxCell>
        <mxCell id="wJaIogHRavHg8Ts5eM7x-63" value="" style="shape=partialRectangle;html=1;whiteSpace=wrap;connectable=0;fillColor=none;top=0;left=0;bottom=0;right=0;overflow=hidden;" vertex="1" parent="wJaIogHRavHg8Ts5eM7x-62">
          <mxGeometry width="48" height="41" as="geometry" />
        </mxCell>
        <mxCell id="wJaIogHRavHg8Ts5eM7x-64" value="" style="shape=partialRectangle;html=1;whiteSpace=wrap;connectable=0;fillColor=none;top=0;left=0;bottom=0;right=0;overflow=hidden;" vertex="1" parent="wJaIogHRavHg8Ts5eM7x-62">
          <mxGeometry x="48" width="48" height="41" as="geometry" />
        </mxCell>
        <mxCell id="wJaIogHRavHg8Ts5eM7x-65" value="" style="shape=partialRectangle;html=1;whiteSpace=wrap;connectable=0;fillColor=none;top=0;left=0;bottom=0;right=0;overflow=hidden;" vertex="1" parent="wJaIogHRavHg8Ts5eM7x-62">
          <mxGeometry x="96" width="50" height="41" as="geometry" />
        </mxCell>
        <mxCell id="wJaIogHRavHg8Ts5eM7x-66" value="" style="shape=partialRectangle;html=1;whiteSpace=wrap;collapsible=0;dropTarget=0;pointerEvents=0;fillColor=none;top=0;left=0;bottom=0;right=0;points=[[0,0.5],[1,0.5]];portConstraint=eastwest;" vertex="1" parent="wJaIogHRavHg8Ts5eM7x-45">
          <mxGeometry y="217" width="145.79" height="44" as="geometry" />
        </mxCell>
        <mxCell id="wJaIogHRavHg8Ts5eM7x-67" value="" style="shape=partialRectangle;html=1;whiteSpace=wrap;connectable=0;fillColor=none;top=0;left=0;bottom=0;right=0;overflow=hidden;" vertex="1" parent="wJaIogHRavHg8Ts5eM7x-66">
          <mxGeometry width="48" height="44" as="geometry" />
        </mxCell>
        <mxCell id="wJaIogHRavHg8Ts5eM7x-68" value="" style="shape=partialRectangle;html=1;whiteSpace=wrap;connectable=0;fillColor=none;top=0;left=0;bottom=0;right=0;overflow=hidden;" vertex="1" parent="wJaIogHRavHg8Ts5eM7x-66">
          <mxGeometry x="48" width="48" height="44" as="geometry" />
        </mxCell>
        <mxCell id="wJaIogHRavHg8Ts5eM7x-69" value="" style="shape=partialRectangle;html=1;whiteSpace=wrap;connectable=0;fillColor=none;top=0;left=0;bottom=0;right=0;overflow=hidden;" vertex="1" parent="wJaIogHRavHg8Ts5eM7x-66">
          <mxGeometry x="96" width="50" height="44" as="geometry" />
        </mxCell>
        <mxCell id="wJaIogHRavHg8Ts5eM7x-70" value="" style="shape=partialRectangle;html=1;whiteSpace=wrap;collapsible=0;dropTarget=0;pointerEvents=0;fillColor=none;top=0;left=0;bottom=0;right=0;points=[[0,0.5],[1,0.5]];portConstraint=eastwest;" vertex="1" parent="wJaIogHRavHg8Ts5eM7x-45">
          <mxGeometry y="261" width="145.79" height="43" as="geometry" />
        </mxCell>
        <mxCell id="wJaIogHRavHg8Ts5eM7x-71" value="" style="shape=partialRectangle;html=1;whiteSpace=wrap;connectable=0;fillColor=none;top=0;left=0;bottom=0;right=0;overflow=hidden;" vertex="1" parent="wJaIogHRavHg8Ts5eM7x-70">
          <mxGeometry width="48" height="43" as="geometry" />
        </mxCell>
        <mxCell id="wJaIogHRavHg8Ts5eM7x-72" value="" style="shape=partialRectangle;html=1;whiteSpace=wrap;connectable=0;fillColor=none;top=0;left=0;bottom=0;right=0;overflow=hidden;" vertex="1" parent="wJaIogHRavHg8Ts5eM7x-70">
          <mxGeometry x="48" width="48" height="43" as="geometry" />
        </mxCell>
        <mxCell id="wJaIogHRavHg8Ts5eM7x-73" value="" style="shape=partialRectangle;html=1;whiteSpace=wrap;connectable=0;fillColor=none;top=0;left=0;bottom=0;right=0;overflow=hidden;" vertex="1" parent="wJaIogHRavHg8Ts5eM7x-70">
          <mxGeometry x="96" width="50" height="43" as="geometry" />
        </mxCell>
        <mxCell id="wJaIogHRavHg8Ts5eM7x-74" value="" style="shape=partialRectangle;html=1;whiteSpace=wrap;collapsible=0;dropTarget=0;pointerEvents=0;fillColor=none;top=0;left=0;bottom=0;right=0;points=[[0,0.5],[1,0.5]];portConstraint=eastwest;" vertex="1" parent="wJaIogHRavHg8Ts5eM7x-45">
          <mxGeometry y="304" width="145.79" height="43" as="geometry" />
        </mxCell>
        <mxCell id="wJaIogHRavHg8Ts5eM7x-75" value="" style="shape=partialRectangle;html=1;whiteSpace=wrap;connectable=0;fillColor=none;top=0;left=0;bottom=0;right=0;overflow=hidden;" vertex="1" parent="wJaIogHRavHg8Ts5eM7x-74">
          <mxGeometry width="48" height="43" as="geometry" />
        </mxCell>
        <mxCell id="wJaIogHRavHg8Ts5eM7x-76" value="" style="shape=partialRectangle;html=1;whiteSpace=wrap;connectable=0;fillColor=none;top=0;left=0;bottom=0;right=0;overflow=hidden;" vertex="1" parent="wJaIogHRavHg8Ts5eM7x-74">
          <mxGeometry x="48" width="48" height="43" as="geometry" />
        </mxCell>
        <mxCell id="wJaIogHRavHg8Ts5eM7x-77" value="" style="shape=partialRectangle;html=1;whiteSpace=wrap;connectable=0;fillColor=none;top=0;left=0;bottom=0;right=0;overflow=hidden;" vertex="1" parent="wJaIogHRavHg8Ts5eM7x-74">
          <mxGeometry x="96" width="50" height="43" as="geometry" />
        </mxCell>
        <mxCell id="wJaIogHRavHg8Ts5eM7x-78" value="" style="shape=partialRectangle;html=1;whiteSpace=wrap;collapsible=0;dropTarget=0;pointerEvents=0;fillColor=none;top=0;left=0;bottom=0;right=0;points=[[0,0.5],[1,0.5]];portConstraint=eastwest;" vertex="1" parent="wJaIogHRavHg8Ts5eM7x-45">
          <mxGeometry y="347" width="145.79" height="43" as="geometry" />
        </mxCell>
        <mxCell id="wJaIogHRavHg8Ts5eM7x-79" value="" style="shape=partialRectangle;html=1;whiteSpace=wrap;connectable=0;fillColor=none;top=0;left=0;bottom=0;right=0;overflow=hidden;" vertex="1" parent="wJaIogHRavHg8Ts5eM7x-78">
          <mxGeometry width="48" height="43" as="geometry" />
        </mxCell>
        <mxCell id="wJaIogHRavHg8Ts5eM7x-80" value="" style="shape=partialRectangle;html=1;whiteSpace=wrap;connectable=0;fillColor=none;top=0;left=0;bottom=0;right=0;overflow=hidden;" vertex="1" parent="wJaIogHRavHg8Ts5eM7x-78">
          <mxGeometry x="48" width="48" height="43" as="geometry" />
        </mxCell>
        <mxCell id="wJaIogHRavHg8Ts5eM7x-81" value="" style="shape=partialRectangle;html=1;whiteSpace=wrap;connectable=0;fillColor=none;top=0;left=0;bottom=0;right=0;overflow=hidden;" vertex="1" parent="wJaIogHRavHg8Ts5eM7x-78">
          <mxGeometry x="96" width="50" height="43" as="geometry" />
        </mxCell>
        <mxCell id="wJaIogHRavHg8Ts5eM7x-82" value="" style="shape=table;html=1;whiteSpace=wrap;startSize=0;container=1;collapsible=0;childLayout=tableLayout;strokeWidth=1;gradientColor=#ffffff;opacity=80;rowLines=1;columnLines=1;" vertex="1" parent="wJaIogHRavHg8Ts5eM7x-44">
          <mxGeometry x="145.78999999999996" width="145.79" height="390" as="geometry" />
        </mxCell>
        <mxCell id="wJaIogHRavHg8Ts5eM7x-83" value="" style="shape=partialRectangle;html=1;whiteSpace=wrap;collapsible=0;dropTarget=0;pointerEvents=0;fillColor=none;top=0;left=0;bottom=0;right=0;points=[[0,0.5],[1,0.5]];portConstraint=eastwest;" vertex="1" parent="wJaIogHRavHg8Ts5eM7x-82">
          <mxGeometry width="145.79" height="48" as="geometry" />
        </mxCell>
        <mxCell id="wJaIogHRavHg8Ts5eM7x-84" value="" style="shape=partialRectangle;html=1;whiteSpace=wrap;connectable=0;fillColor=#6a00ff;top=0;left=0;bottom=0;right=0;overflow=hidden;fontColor=#ffffff;strokeColor=#3700CC;opacity=80;" vertex="1" parent="wJaIogHRavHg8Ts5eM7x-83">
          <mxGeometry width="48" height="48" as="geometry" />
        </mxCell>
        <mxCell id="wJaIogHRavHg8Ts5eM7x-85" value="" style="shape=partialRectangle;html=1;whiteSpace=wrap;connectable=0;fillColor=#6a00ff;top=0;left=0;bottom=0;right=0;overflow=hidden;fontColor=#ffffff;strokeColor=#3700CC;opacity=80;" vertex="1" parent="wJaIogHRavHg8Ts5eM7x-83">
          <mxGeometry x="48" width="48" height="48" as="geometry" />
        </mxCell>
        <mxCell id="wJaIogHRavHg8Ts5eM7x-86" value="" style="shape=partialRectangle;html=1;whiteSpace=wrap;connectable=0;fillColor=#6a00ff;top=0;left=0;bottom=0;right=0;overflow=hidden;fontColor=#ffffff;strokeColor=#3700CC;opacity=80;" vertex="1" parent="wJaIogHRavHg8Ts5eM7x-83">
          <mxGeometry x="96" width="50" height="48" as="geometry" />
        </mxCell>
        <mxCell id="wJaIogHRavHg8Ts5eM7x-87" value="" style="shape=partialRectangle;html=1;whiteSpace=wrap;collapsible=0;dropTarget=0;pointerEvents=0;fillColor=none;top=0;left=0;bottom=0;right=0;points=[[0,0.5],[1,0.5]];portConstraint=eastwest;" vertex="1" parent="wJaIogHRavHg8Ts5eM7x-82">
          <mxGeometry y="48" width="145.79" height="40" as="geometry" />
        </mxCell>
        <mxCell id="wJaIogHRavHg8Ts5eM7x-88" value="" style="shape=partialRectangle;html=1;whiteSpace=wrap;connectable=0;fillColor=none;top=0;left=0;bottom=0;right=0;overflow=hidden;" vertex="1" parent="wJaIogHRavHg8Ts5eM7x-87">
          <mxGeometry width="48" height="40" as="geometry" />
        </mxCell>
        <mxCell id="wJaIogHRavHg8Ts5eM7x-89" value="" style="shape=partialRectangle;html=1;whiteSpace=wrap;connectable=0;fillColor=none;top=0;left=0;bottom=0;right=0;overflow=hidden;" vertex="1" parent="wJaIogHRavHg8Ts5eM7x-87">
          <mxGeometry x="48" width="48" height="40" as="geometry" />
        </mxCell>
        <mxCell id="wJaIogHRavHg8Ts5eM7x-90" value="" style="shape=partialRectangle;html=1;whiteSpace=wrap;connectable=0;fillColor=none;top=0;left=0;bottom=0;right=0;overflow=hidden;" vertex="1" parent="wJaIogHRavHg8Ts5eM7x-87">
          <mxGeometry x="96" width="50" height="40" as="geometry" />
        </mxCell>
        <mxCell id="wJaIogHRavHg8Ts5eM7x-91" value="" style="shape=partialRectangle;html=1;whiteSpace=wrap;collapsible=0;dropTarget=0;pointerEvents=0;fillColor=none;top=0;left=0;bottom=0;right=0;points=[[0,0.5],[1,0.5]];portConstraint=eastwest;" vertex="1" parent="wJaIogHRavHg8Ts5eM7x-82">
          <mxGeometry y="88" width="145.79" height="45" as="geometry" />
        </mxCell>
        <mxCell id="wJaIogHRavHg8Ts5eM7x-92" value="" style="shape=partialRectangle;html=1;whiteSpace=wrap;connectable=0;fillColor=none;top=0;left=0;bottom=0;right=0;overflow=hidden;" vertex="1" parent="wJaIogHRavHg8Ts5eM7x-91">
          <mxGeometry width="48" height="45" as="geometry" />
        </mxCell>
        <mxCell id="wJaIogHRavHg8Ts5eM7x-93" value="" style="shape=partialRectangle;html=1;whiteSpace=wrap;connectable=0;fillColor=none;top=0;left=0;bottom=0;right=0;overflow=hidden;" vertex="1" parent="wJaIogHRavHg8Ts5eM7x-91">
          <mxGeometry x="48" width="48" height="45" as="geometry" />
        </mxCell>
        <mxCell id="wJaIogHRavHg8Ts5eM7x-94" value="" style="shape=partialRectangle;html=1;whiteSpace=wrap;connectable=0;fillColor=none;top=0;left=0;bottom=0;right=0;overflow=hidden;" vertex="1" parent="wJaIogHRavHg8Ts5eM7x-91">
          <mxGeometry x="96" width="50" height="45" as="geometry" />
        </mxCell>
        <mxCell id="wJaIogHRavHg8Ts5eM7x-95" value="" style="shape=partialRectangle;html=1;whiteSpace=wrap;collapsible=0;dropTarget=0;pointerEvents=0;fillColor=none;top=0;left=0;bottom=0;right=0;points=[[0,0.5],[1,0.5]];portConstraint=eastwest;" vertex="1" parent="wJaIogHRavHg8Ts5eM7x-82">
          <mxGeometry y="133" width="145.79" height="43" as="geometry" />
        </mxCell>
        <mxCell id="wJaIogHRavHg8Ts5eM7x-96" value="" style="shape=partialRectangle;html=1;whiteSpace=wrap;connectable=0;fillColor=none;top=0;left=0;bottom=0;right=0;overflow=hidden;" vertex="1" parent="wJaIogHRavHg8Ts5eM7x-95">
          <mxGeometry width="48" height="43" as="geometry" />
        </mxCell>
        <mxCell id="wJaIogHRavHg8Ts5eM7x-97" value="" style="shape=partialRectangle;html=1;whiteSpace=wrap;connectable=0;fillColor=none;top=0;left=0;bottom=0;right=0;overflow=hidden;" vertex="1" parent="wJaIogHRavHg8Ts5eM7x-95">
          <mxGeometry x="48" width="48" height="43" as="geometry" />
        </mxCell>
        <mxCell id="wJaIogHRavHg8Ts5eM7x-98" value="" style="shape=partialRectangle;html=1;whiteSpace=wrap;connectable=0;fillColor=none;top=0;left=0;bottom=0;right=0;overflow=hidden;" vertex="1" parent="wJaIogHRavHg8Ts5eM7x-95">
          <mxGeometry x="96" width="50" height="43" as="geometry" />
        </mxCell>
        <mxCell id="wJaIogHRavHg8Ts5eM7x-99" value="" style="shape=partialRectangle;html=1;whiteSpace=wrap;collapsible=0;dropTarget=0;pointerEvents=0;fillColor=none;top=0;left=0;bottom=0;right=0;points=[[0,0.5],[1,0.5]];portConstraint=eastwest;" vertex="1" parent="wJaIogHRavHg8Ts5eM7x-82">
          <mxGeometry y="176" width="145.79" height="41" as="geometry" />
        </mxCell>
        <mxCell id="wJaIogHRavHg8Ts5eM7x-100" value="" style="shape=partialRectangle;html=1;whiteSpace=wrap;connectable=0;fillColor=none;top=0;left=0;bottom=0;right=0;overflow=hidden;" vertex="1" parent="wJaIogHRavHg8Ts5eM7x-99">
          <mxGeometry width="48" height="41" as="geometry" />
        </mxCell>
        <mxCell id="wJaIogHRavHg8Ts5eM7x-101" value="" style="shape=partialRectangle;html=1;whiteSpace=wrap;connectable=0;fillColor=none;top=0;left=0;bottom=0;right=0;overflow=hidden;" vertex="1" parent="wJaIogHRavHg8Ts5eM7x-99">
          <mxGeometry x="48" width="48" height="41" as="geometry" />
        </mxCell>
        <mxCell id="wJaIogHRavHg8Ts5eM7x-102" value="" style="shape=partialRectangle;html=1;whiteSpace=wrap;connectable=0;fillColor=none;top=0;left=0;bottom=0;right=0;overflow=hidden;" vertex="1" parent="wJaIogHRavHg8Ts5eM7x-99">
          <mxGeometry x="96" width="50" height="41" as="geometry" />
        </mxCell>
        <mxCell id="wJaIogHRavHg8Ts5eM7x-103" value="" style="shape=partialRectangle;html=1;whiteSpace=wrap;collapsible=0;dropTarget=0;pointerEvents=0;fillColor=none;top=0;left=0;bottom=0;right=0;points=[[0,0.5],[1,0.5]];portConstraint=eastwest;" vertex="1" parent="wJaIogHRavHg8Ts5eM7x-82">
          <mxGeometry y="217" width="145.79" height="44" as="geometry" />
        </mxCell>
        <mxCell id="wJaIogHRavHg8Ts5eM7x-104" value="" style="shape=partialRectangle;html=1;whiteSpace=wrap;connectable=0;fillColor=none;top=0;left=0;bottom=0;right=0;overflow=hidden;" vertex="1" parent="wJaIogHRavHg8Ts5eM7x-103">
          <mxGeometry width="48" height="44" as="geometry" />
        </mxCell>
        <mxCell id="wJaIogHRavHg8Ts5eM7x-105" value="" style="shape=partialRectangle;html=1;whiteSpace=wrap;connectable=0;fillColor=none;top=0;left=0;bottom=0;right=0;overflow=hidden;" vertex="1" parent="wJaIogHRavHg8Ts5eM7x-103">
          <mxGeometry x="48" width="48" height="44" as="geometry" />
        </mxCell>
        <mxCell id="wJaIogHRavHg8Ts5eM7x-106" value="" style="shape=partialRectangle;html=1;whiteSpace=wrap;connectable=0;fillColor=none;top=0;left=0;bottom=0;right=0;overflow=hidden;" vertex="1" parent="wJaIogHRavHg8Ts5eM7x-103">
          <mxGeometry x="96" width="50" height="44" as="geometry" />
        </mxCell>
        <mxCell id="wJaIogHRavHg8Ts5eM7x-107" value="" style="shape=partialRectangle;html=1;whiteSpace=wrap;collapsible=0;dropTarget=0;pointerEvents=0;fillColor=none;top=0;left=0;bottom=0;right=0;points=[[0,0.5],[1,0.5]];portConstraint=eastwest;" vertex="1" parent="wJaIogHRavHg8Ts5eM7x-82">
          <mxGeometry y="261" width="145.79" height="43" as="geometry" />
        </mxCell>
        <mxCell id="wJaIogHRavHg8Ts5eM7x-108" value="" style="shape=partialRectangle;html=1;whiteSpace=wrap;connectable=0;fillColor=none;top=0;left=0;bottom=0;right=0;overflow=hidden;" vertex="1" parent="wJaIogHRavHg8Ts5eM7x-107">
          <mxGeometry width="48" height="43" as="geometry" />
        </mxCell>
        <mxCell id="wJaIogHRavHg8Ts5eM7x-109" value="" style="shape=partialRectangle;html=1;whiteSpace=wrap;connectable=0;fillColor=none;top=0;left=0;bottom=0;right=0;overflow=hidden;" vertex="1" parent="wJaIogHRavHg8Ts5eM7x-107">
          <mxGeometry x="48" width="48" height="43" as="geometry" />
        </mxCell>
        <mxCell id="wJaIogHRavHg8Ts5eM7x-110" value="" style="shape=partialRectangle;html=1;whiteSpace=wrap;connectable=0;fillColor=none;top=0;left=0;bottom=0;right=0;overflow=hidden;" vertex="1" parent="wJaIogHRavHg8Ts5eM7x-107">
          <mxGeometry x="96" width="50" height="43" as="geometry" />
        </mxCell>
        <mxCell id="wJaIogHRavHg8Ts5eM7x-111" value="" style="shape=partialRectangle;html=1;whiteSpace=wrap;collapsible=0;dropTarget=0;pointerEvents=0;fillColor=none;top=0;left=0;bottom=0;right=0;points=[[0,0.5],[1,0.5]];portConstraint=eastwest;" vertex="1" parent="wJaIogHRavHg8Ts5eM7x-82">
          <mxGeometry y="304" width="145.79" height="43" as="geometry" />
        </mxCell>
        <mxCell id="wJaIogHRavHg8Ts5eM7x-112" value="" style="shape=partialRectangle;html=1;whiteSpace=wrap;connectable=0;fillColor=none;top=0;left=0;bottom=0;right=0;overflow=hidden;" vertex="1" parent="wJaIogHRavHg8Ts5eM7x-111">
          <mxGeometry width="48" height="43" as="geometry" />
        </mxCell>
        <mxCell id="wJaIogHRavHg8Ts5eM7x-113" value="" style="shape=partialRectangle;html=1;whiteSpace=wrap;connectable=0;fillColor=none;top=0;left=0;bottom=0;right=0;overflow=hidden;" vertex="1" parent="wJaIogHRavHg8Ts5eM7x-111">
          <mxGeometry x="48" width="48" height="43" as="geometry" />
        </mxCell>
        <mxCell id="wJaIogHRavHg8Ts5eM7x-114" value="" style="shape=partialRectangle;html=1;whiteSpace=wrap;connectable=0;fillColor=none;top=0;left=0;bottom=0;right=0;overflow=hidden;" vertex="1" parent="wJaIogHRavHg8Ts5eM7x-111">
          <mxGeometry x="96" width="50" height="43" as="geometry" />
        </mxCell>
        <mxCell id="wJaIogHRavHg8Ts5eM7x-115" value="" style="shape=partialRectangle;html=1;whiteSpace=wrap;collapsible=0;dropTarget=0;pointerEvents=0;fillColor=none;top=0;left=0;bottom=0;right=0;points=[[0,0.5],[1,0.5]];portConstraint=eastwest;" vertex="1" parent="wJaIogHRavHg8Ts5eM7x-82">
          <mxGeometry y="347" width="145.79" height="43" as="geometry" />
        </mxCell>
        <mxCell id="wJaIogHRavHg8Ts5eM7x-116" value="" style="shape=partialRectangle;html=1;whiteSpace=wrap;connectable=0;fillColor=none;top=0;left=0;bottom=0;right=0;overflow=hidden;" vertex="1" parent="wJaIogHRavHg8Ts5eM7x-115">
          <mxGeometry width="48" height="43" as="geometry" />
        </mxCell>
        <mxCell id="wJaIogHRavHg8Ts5eM7x-117" value="" style="shape=partialRectangle;html=1;whiteSpace=wrap;connectable=0;fillColor=none;top=0;left=0;bottom=0;right=0;overflow=hidden;" vertex="1" parent="wJaIogHRavHg8Ts5eM7x-115">
          <mxGeometry x="48" width="48" height="43" as="geometry" />
        </mxCell>
        <mxCell id="wJaIogHRavHg8Ts5eM7x-118" value="" style="shape=partialRectangle;html=1;whiteSpace=wrap;connectable=0;fillColor=none;top=0;left=0;bottom=0;right=0;overflow=hidden;" vertex="1" parent="wJaIogHRavHg8Ts5eM7x-115">
          <mxGeometry x="96" width="50" height="43" as="geometry" />
        </mxCell>
        <mxCell id="wJaIogHRavHg8Ts5eM7x-119" value="" style="shape=table;html=1;whiteSpace=wrap;startSize=0;container=1;collapsible=0;childLayout=tableLayout;strokeWidth=1;gradientColor=#ffffff;opacity=80;rowLines=1;columnLines=1;" vertex="1" parent="wJaIogHRavHg8Ts5eM7x-44">
          <mxGeometry x="291.5799999999999" width="145.79" height="390" as="geometry" />
        </mxCell>
        <mxCell id="wJaIogHRavHg8Ts5eM7x-120" value="" style="shape=partialRectangle;html=1;whiteSpace=wrap;collapsible=0;dropTarget=0;pointerEvents=0;fillColor=none;top=0;left=0;bottom=0;right=0;points=[[0,0.5],[1,0.5]];portConstraint=eastwest;" vertex="1" parent="wJaIogHRavHg8Ts5eM7x-119">
          <mxGeometry width="145.79" height="48" as="geometry" />
        </mxCell>
        <mxCell id="wJaIogHRavHg8Ts5eM7x-121" value="" style="shape=partialRectangle;html=1;whiteSpace=wrap;connectable=0;fillColor=#6a00ff;top=0;left=0;bottom=0;right=0;overflow=hidden;fontColor=#ffffff;strokeColor=#3700CC;opacity=80;" vertex="1" parent="wJaIogHRavHg8Ts5eM7x-120">
          <mxGeometry width="48" height="48" as="geometry" />
        </mxCell>
        <mxCell id="wJaIogHRavHg8Ts5eM7x-122" value="" style="shape=partialRectangle;html=1;whiteSpace=wrap;connectable=0;fillColor=#6a00ff;top=0;left=0;bottom=0;right=0;overflow=hidden;fontColor=#ffffff;strokeColor=#3700CC;opacity=80;" vertex="1" parent="wJaIogHRavHg8Ts5eM7x-120">
          <mxGeometry x="48" width="48" height="48" as="geometry" />
        </mxCell>
        <mxCell id="wJaIogHRavHg8Ts5eM7x-123" value="" style="shape=partialRectangle;html=1;whiteSpace=wrap;connectable=0;fillColor=#6a00ff;top=0;left=0;bottom=0;right=0;overflow=hidden;fontColor=#ffffff;strokeColor=#3700CC;opacity=80;" vertex="1" parent="wJaIogHRavHg8Ts5eM7x-120">
          <mxGeometry x="96" width="50" height="48" as="geometry" />
        </mxCell>
        <mxCell id="wJaIogHRavHg8Ts5eM7x-124" value="" style="shape=partialRectangle;html=1;whiteSpace=wrap;collapsible=0;dropTarget=0;pointerEvents=0;fillColor=none;top=0;left=0;bottom=0;right=0;points=[[0,0.5],[1,0.5]];portConstraint=eastwest;" vertex="1" parent="wJaIogHRavHg8Ts5eM7x-119">
          <mxGeometry y="48" width="145.79" height="40" as="geometry" />
        </mxCell>
        <mxCell id="wJaIogHRavHg8Ts5eM7x-125" value="" style="shape=partialRectangle;html=1;whiteSpace=wrap;connectable=0;fillColor=none;top=0;left=0;bottom=0;right=0;overflow=hidden;" vertex="1" parent="wJaIogHRavHg8Ts5eM7x-124">
          <mxGeometry width="48" height="40" as="geometry" />
        </mxCell>
        <mxCell id="wJaIogHRavHg8Ts5eM7x-126" value="" style="shape=partialRectangle;html=1;whiteSpace=wrap;connectable=0;fillColor=none;top=0;left=0;bottom=0;right=0;overflow=hidden;" vertex="1" parent="wJaIogHRavHg8Ts5eM7x-124">
          <mxGeometry x="48" width="48" height="40" as="geometry" />
        </mxCell>
        <mxCell id="wJaIogHRavHg8Ts5eM7x-127" value="" style="shape=partialRectangle;html=1;whiteSpace=wrap;connectable=0;fillColor=#6a00ff;top=0;left=0;bottom=0;right=0;overflow=hidden;fontColor=#ffffff;strokeColor=#3700CC;opacity=80;" vertex="1" parent="wJaIogHRavHg8Ts5eM7x-124">
          <mxGeometry x="96" width="50" height="40" as="geometry" />
        </mxCell>
        <mxCell id="wJaIogHRavHg8Ts5eM7x-128" value="" style="shape=partialRectangle;html=1;whiteSpace=wrap;collapsible=0;dropTarget=0;pointerEvents=0;fillColor=none;top=0;left=0;bottom=0;right=0;points=[[0,0.5],[1,0.5]];portConstraint=eastwest;" vertex="1" parent="wJaIogHRavHg8Ts5eM7x-119">
          <mxGeometry y="88" width="145.79" height="45" as="geometry" />
        </mxCell>
        <mxCell id="wJaIogHRavHg8Ts5eM7x-129" value="" style="shape=partialRectangle;html=1;whiteSpace=wrap;connectable=0;fillColor=none;top=0;left=0;bottom=0;right=0;overflow=hidden;" vertex="1" parent="wJaIogHRavHg8Ts5eM7x-128">
          <mxGeometry width="48" height="45" as="geometry" />
        </mxCell>
        <mxCell id="wJaIogHRavHg8Ts5eM7x-130" value="" style="shape=partialRectangle;html=1;whiteSpace=wrap;connectable=0;fillColor=none;top=0;left=0;bottom=0;right=0;overflow=hidden;" vertex="1" parent="wJaIogHRavHg8Ts5eM7x-128">
          <mxGeometry x="48" width="48" height="45" as="geometry" />
        </mxCell>
        <mxCell id="wJaIogHRavHg8Ts5eM7x-131" value="" style="shape=partialRectangle;html=1;whiteSpace=wrap;connectable=0;fillColor=#6a00ff;top=0;left=0;bottom=0;right=0;overflow=hidden;fontColor=#ffffff;strokeColor=#3700CC;opacity=80;" vertex="1" parent="wJaIogHRavHg8Ts5eM7x-128">
          <mxGeometry x="96" width="50" height="45" as="geometry" />
        </mxCell>
        <mxCell id="wJaIogHRavHg8Ts5eM7x-132" value="" style="shape=partialRectangle;html=1;whiteSpace=wrap;collapsible=0;dropTarget=0;pointerEvents=0;fillColor=none;top=0;left=0;bottom=0;right=0;points=[[0,0.5],[1,0.5]];portConstraint=eastwest;" vertex="1" parent="wJaIogHRavHg8Ts5eM7x-119">
          <mxGeometry y="133" width="145.79" height="43" as="geometry" />
        </mxCell>
        <mxCell id="wJaIogHRavHg8Ts5eM7x-133" value="" style="shape=partialRectangle;html=1;whiteSpace=wrap;connectable=0;fillColor=none;top=0;left=0;bottom=0;right=0;overflow=hidden;" vertex="1" parent="wJaIogHRavHg8Ts5eM7x-132">
          <mxGeometry width="48" height="43" as="geometry" />
        </mxCell>
        <mxCell id="wJaIogHRavHg8Ts5eM7x-134" value="" style="shape=partialRectangle;html=1;whiteSpace=wrap;connectable=0;fillColor=none;top=0;left=0;bottom=0;right=0;overflow=hidden;" vertex="1" parent="wJaIogHRavHg8Ts5eM7x-132">
          <mxGeometry x="48" width="48" height="43" as="geometry" />
        </mxCell>
        <mxCell id="wJaIogHRavHg8Ts5eM7x-135" value="" style="shape=partialRectangle;html=1;whiteSpace=wrap;connectable=0;fillColor=#6a00ff;top=0;left=0;bottom=0;right=0;overflow=hidden;fontColor=#ffffff;strokeColor=#3700CC;opacity=80;" vertex="1" parent="wJaIogHRavHg8Ts5eM7x-132">
          <mxGeometry x="96" width="50" height="43" as="geometry" />
        </mxCell>
        <mxCell id="wJaIogHRavHg8Ts5eM7x-136" value="" style="shape=partialRectangle;html=1;whiteSpace=wrap;collapsible=0;dropTarget=0;pointerEvents=0;fillColor=none;top=0;left=0;bottom=0;right=0;points=[[0,0.5],[1,0.5]];portConstraint=eastwest;" vertex="1" parent="wJaIogHRavHg8Ts5eM7x-119">
          <mxGeometry y="176" width="145.79" height="41" as="geometry" />
        </mxCell>
        <mxCell id="wJaIogHRavHg8Ts5eM7x-137" value="" style="shape=partialRectangle;html=1;whiteSpace=wrap;connectable=0;fillColor=none;top=0;left=0;bottom=0;right=0;overflow=hidden;" vertex="1" parent="wJaIogHRavHg8Ts5eM7x-136">
          <mxGeometry width="48" height="41" as="geometry" />
        </mxCell>
        <mxCell id="wJaIogHRavHg8Ts5eM7x-138" value="" style="shape=partialRectangle;html=1;whiteSpace=wrap;connectable=0;fillColor=none;top=0;left=0;bottom=0;right=0;overflow=hidden;" vertex="1" parent="wJaIogHRavHg8Ts5eM7x-136">
          <mxGeometry x="48" width="48" height="41" as="geometry" />
        </mxCell>
        <mxCell id="wJaIogHRavHg8Ts5eM7x-139" value="" style="shape=partialRectangle;html=1;whiteSpace=wrap;connectable=0;fillColor=#6a00ff;top=0;left=0;bottom=0;right=0;overflow=hidden;fontColor=#ffffff;strokeColor=#3700CC;opacity=80;" vertex="1" parent="wJaIogHRavHg8Ts5eM7x-136">
          <mxGeometry x="96" width="50" height="41" as="geometry" />
        </mxCell>
        <mxCell id="wJaIogHRavHg8Ts5eM7x-140" value="" style="shape=partialRectangle;html=1;whiteSpace=wrap;collapsible=0;dropTarget=0;pointerEvents=0;fillColor=none;top=0;left=0;bottom=0;right=0;points=[[0,0.5],[1,0.5]];portConstraint=eastwest;" vertex="1" parent="wJaIogHRavHg8Ts5eM7x-119">
          <mxGeometry y="217" width="145.79" height="44" as="geometry" />
        </mxCell>
        <mxCell id="wJaIogHRavHg8Ts5eM7x-141" value="" style="shape=partialRectangle;html=1;whiteSpace=wrap;connectable=0;fillColor=none;top=0;left=0;bottom=0;right=0;overflow=hidden;" vertex="1" parent="wJaIogHRavHg8Ts5eM7x-140">
          <mxGeometry width="48" height="44" as="geometry" />
        </mxCell>
        <mxCell id="wJaIogHRavHg8Ts5eM7x-142" value="" style="shape=partialRectangle;html=1;whiteSpace=wrap;connectable=0;fillColor=none;top=0;left=0;bottom=0;right=0;overflow=hidden;" vertex="1" parent="wJaIogHRavHg8Ts5eM7x-140">
          <mxGeometry x="48" width="48" height="44" as="geometry" />
        </mxCell>
        <mxCell id="wJaIogHRavHg8Ts5eM7x-143" value="" style="shape=partialRectangle;html=1;whiteSpace=wrap;connectable=0;fillColor=#6a00ff;top=0;left=0;bottom=0;right=0;overflow=hidden;fontColor=#ffffff;strokeColor=#3700CC;opacity=80;" vertex="1" parent="wJaIogHRavHg8Ts5eM7x-140">
          <mxGeometry x="96" width="50" height="44" as="geometry" />
        </mxCell>
        <mxCell id="wJaIogHRavHg8Ts5eM7x-144" value="" style="shape=partialRectangle;html=1;whiteSpace=wrap;collapsible=0;dropTarget=0;pointerEvents=0;fillColor=none;top=0;left=0;bottom=0;right=0;points=[[0,0.5],[1,0.5]];portConstraint=eastwest;" vertex="1" parent="wJaIogHRavHg8Ts5eM7x-119">
          <mxGeometry y="261" width="145.79" height="43" as="geometry" />
        </mxCell>
        <mxCell id="wJaIogHRavHg8Ts5eM7x-145" value="" style="shape=partialRectangle;html=1;whiteSpace=wrap;connectable=0;fillColor=none;top=0;left=0;bottom=0;right=0;overflow=hidden;" vertex="1" parent="wJaIogHRavHg8Ts5eM7x-144">
          <mxGeometry width="48" height="43" as="geometry" />
        </mxCell>
        <mxCell id="wJaIogHRavHg8Ts5eM7x-146" value="" style="shape=partialRectangle;html=1;whiteSpace=wrap;connectable=0;fillColor=none;top=0;left=0;bottom=0;right=0;overflow=hidden;" vertex="1" parent="wJaIogHRavHg8Ts5eM7x-144">
          <mxGeometry x="48" width="48" height="43" as="geometry" />
        </mxCell>
        <mxCell id="wJaIogHRavHg8Ts5eM7x-147" value="" style="shape=partialRectangle;html=1;whiteSpace=wrap;connectable=0;fillColor=#6a00ff;top=0;left=0;bottom=0;right=0;overflow=hidden;fontColor=#ffffff;strokeColor=#3700CC;opacity=80;" vertex="1" parent="wJaIogHRavHg8Ts5eM7x-144">
          <mxGeometry x="96" width="50" height="43" as="geometry" />
        </mxCell>
        <mxCell id="wJaIogHRavHg8Ts5eM7x-148" value="" style="shape=partialRectangle;html=1;whiteSpace=wrap;collapsible=0;dropTarget=0;pointerEvents=0;fillColor=none;top=0;left=0;bottom=0;right=0;points=[[0,0.5],[1,0.5]];portConstraint=eastwest;" vertex="1" parent="wJaIogHRavHg8Ts5eM7x-119">
          <mxGeometry y="304" width="145.79" height="43" as="geometry" />
        </mxCell>
        <mxCell id="wJaIogHRavHg8Ts5eM7x-149" value="" style="shape=partialRectangle;html=1;whiteSpace=wrap;connectable=0;fillColor=none;top=0;left=0;bottom=0;right=0;overflow=hidden;" vertex="1" parent="wJaIogHRavHg8Ts5eM7x-148">
          <mxGeometry width="48" height="43" as="geometry" />
        </mxCell>
        <mxCell id="wJaIogHRavHg8Ts5eM7x-150" value="" style="shape=partialRectangle;html=1;whiteSpace=wrap;connectable=0;fillColor=none;top=0;left=0;bottom=0;right=0;overflow=hidden;" vertex="1" parent="wJaIogHRavHg8Ts5eM7x-148">
          <mxGeometry x="48" width="48" height="43" as="geometry" />
        </mxCell>
        <mxCell id="wJaIogHRavHg8Ts5eM7x-151" value="" style="shape=partialRectangle;html=1;whiteSpace=wrap;connectable=0;fillColor=#6a00ff;top=0;left=0;bottom=0;right=0;overflow=hidden;fontColor=#ffffff;strokeColor=#3700CC;opacity=80;" vertex="1" parent="wJaIogHRavHg8Ts5eM7x-148">
          <mxGeometry x="96" width="50" height="43" as="geometry" />
        </mxCell>
        <mxCell id="wJaIogHRavHg8Ts5eM7x-152" value="" style="shape=partialRectangle;html=1;whiteSpace=wrap;collapsible=0;dropTarget=0;pointerEvents=0;fillColor=none;top=0;left=0;bottom=0;right=0;points=[[0,0.5],[1,0.5]];portConstraint=eastwest;" vertex="1" parent="wJaIogHRavHg8Ts5eM7x-119">
          <mxGeometry y="347" width="145.79" height="43" as="geometry" />
        </mxCell>
        <mxCell id="wJaIogHRavHg8Ts5eM7x-153" value="" style="shape=partialRectangle;html=1;whiteSpace=wrap;connectable=0;fillColor=none;top=0;left=0;bottom=0;right=0;overflow=hidden;" vertex="1" parent="wJaIogHRavHg8Ts5eM7x-152">
          <mxGeometry width="48" height="43" as="geometry" />
        </mxCell>
        <mxCell id="wJaIogHRavHg8Ts5eM7x-154" value="" style="shape=partialRectangle;html=1;whiteSpace=wrap;connectable=0;fillColor=none;top=0;left=0;bottom=0;right=0;overflow=hidden;" vertex="1" parent="wJaIogHRavHg8Ts5eM7x-152">
          <mxGeometry x="48" width="48" height="43" as="geometry" />
        </mxCell>
        <mxCell id="wJaIogHRavHg8Ts5eM7x-155" value="" style="shape=partialRectangle;html=1;whiteSpace=wrap;connectable=0;fillColor=#6a00ff;top=0;left=0;bottom=0;right=0;overflow=hidden;fontColor=#ffffff;strokeColor=#3700CC;opacity=80;" vertex="1" parent="wJaIogHRavHg8Ts5eM7x-152">
          <mxGeometry x="96" width="50" height="43" as="geometry" />
        </mxCell>
        <mxCell id="wJaIogHRavHg8Ts5eM7x-156" value="" style="group" vertex="1" connectable="0" parent="wJaIogHRavHg8Ts5eM7x-44">
          <mxGeometry x="-20" y="20" width="437.3699999999999" height="500" as="geometry" />
        </mxCell>
        <mxCell id="wJaIogHRavHg8Ts5eM7x-157" value="" style="shape=table;html=1;whiteSpace=wrap;startSize=0;container=1;collapsible=0;childLayout=tableLayout;strokeWidth=1;gradientColor=#ffffff;opacity=80;rowLines=1;columnLines=1;" vertex="1" parent="wJaIogHRavHg8Ts5eM7x-156">
          <mxGeometry width="145.79" height="390" as="geometry" />
        </mxCell>
        <mxCell id="wJaIogHRavHg8Ts5eM7x-158" value="" style="shape=partialRectangle;html=1;whiteSpace=wrap;collapsible=0;dropTarget=0;pointerEvents=0;fillColor=none;top=0;left=0;bottom=0;right=0;points=[[0,0.5],[1,0.5]];portConstraint=eastwest;" vertex="1" parent="wJaIogHRavHg8Ts5eM7x-157">
          <mxGeometry width="145.79" height="48" as="geometry" />
        </mxCell>
        <mxCell id="wJaIogHRavHg8Ts5eM7x-159" value="" style="shape=partialRectangle;html=1;whiteSpace=wrap;connectable=0;top=0;left=0;bottom=0;right=0;overflow=hidden;strokeColor=#3700CC;fontColor=#ffffff;opacity=80;fillColor=#CC00CC;" vertex="1" parent="wJaIogHRavHg8Ts5eM7x-158">
          <mxGeometry width="48" height="48" as="geometry" />
        </mxCell>
        <mxCell id="wJaIogHRavHg8Ts5eM7x-160" value="" style="shape=partialRectangle;html=1;whiteSpace=wrap;connectable=0;top=0;left=0;bottom=0;right=0;overflow=hidden;fontColor=#ffffff;strokeColor=#3700CC;opacity=80;fillColor=#CC00CC;" vertex="1" parent="wJaIogHRavHg8Ts5eM7x-158">
          <mxGeometry x="48" width="48" height="48" as="geometry" />
        </mxCell>
        <mxCell id="wJaIogHRavHg8Ts5eM7x-161" value="" style="shape=partialRectangle;html=1;whiteSpace=wrap;connectable=0;top=0;left=0;bottom=0;right=0;overflow=hidden;fontColor=#ffffff;strokeColor=#3700CC;opacity=80;fillColor=#CC00CC;" vertex="1" parent="wJaIogHRavHg8Ts5eM7x-158">
          <mxGeometry x="96" width="50" height="48" as="geometry" />
        </mxCell>
        <mxCell id="wJaIogHRavHg8Ts5eM7x-162" value="" style="shape=partialRectangle;html=1;whiteSpace=wrap;collapsible=0;dropTarget=0;pointerEvents=0;fillColor=none;top=0;left=0;bottom=0;right=0;points=[[0,0.5],[1,0.5]];portConstraint=eastwest;" vertex="1" parent="wJaIogHRavHg8Ts5eM7x-157">
          <mxGeometry y="48" width="145.79" height="40" as="geometry" />
        </mxCell>
        <mxCell id="wJaIogHRavHg8Ts5eM7x-163" value="" style="shape=partialRectangle;html=1;whiteSpace=wrap;connectable=0;fillColor=none;top=0;left=0;bottom=0;right=0;overflow=hidden;" vertex="1" parent="wJaIogHRavHg8Ts5eM7x-162">
          <mxGeometry width="48" height="40" as="geometry" />
        </mxCell>
        <mxCell id="wJaIogHRavHg8Ts5eM7x-164" value="" style="shape=partialRectangle;html=1;whiteSpace=wrap;connectable=0;fillColor=none;top=0;left=0;bottom=0;right=0;overflow=hidden;" vertex="1" parent="wJaIogHRavHg8Ts5eM7x-162">
          <mxGeometry x="48" width="48" height="40" as="geometry" />
        </mxCell>
        <mxCell id="wJaIogHRavHg8Ts5eM7x-165" value="" style="shape=partialRectangle;html=1;whiteSpace=wrap;connectable=0;fillColor=none;top=0;left=0;bottom=0;right=0;overflow=hidden;" vertex="1" parent="wJaIogHRavHg8Ts5eM7x-162">
          <mxGeometry x="96" width="50" height="40" as="geometry" />
        </mxCell>
        <mxCell id="wJaIogHRavHg8Ts5eM7x-166" value="" style="shape=partialRectangle;html=1;whiteSpace=wrap;collapsible=0;dropTarget=0;pointerEvents=0;fillColor=none;top=0;left=0;bottom=0;right=0;points=[[0,0.5],[1,0.5]];portConstraint=eastwest;" vertex="1" parent="wJaIogHRavHg8Ts5eM7x-157">
          <mxGeometry y="88" width="145.79" height="45" as="geometry" />
        </mxCell>
        <mxCell id="wJaIogHRavHg8Ts5eM7x-167" value="" style="shape=partialRectangle;html=1;whiteSpace=wrap;connectable=0;fillColor=none;top=0;left=0;bottom=0;right=0;overflow=hidden;" vertex="1" parent="wJaIogHRavHg8Ts5eM7x-166">
          <mxGeometry width="48" height="45" as="geometry" />
        </mxCell>
        <mxCell id="wJaIogHRavHg8Ts5eM7x-168" value="" style="shape=partialRectangle;html=1;whiteSpace=wrap;connectable=0;fillColor=none;top=0;left=0;bottom=0;right=0;overflow=hidden;" vertex="1" parent="wJaIogHRavHg8Ts5eM7x-166">
          <mxGeometry x="48" width="48" height="45" as="geometry" />
        </mxCell>
        <mxCell id="wJaIogHRavHg8Ts5eM7x-169" value="" style="shape=partialRectangle;html=1;whiteSpace=wrap;connectable=0;fillColor=none;top=0;left=0;bottom=0;right=0;overflow=hidden;" vertex="1" parent="wJaIogHRavHg8Ts5eM7x-166">
          <mxGeometry x="96" width="50" height="45" as="geometry" />
        </mxCell>
        <mxCell id="wJaIogHRavHg8Ts5eM7x-170" value="" style="shape=partialRectangle;html=1;whiteSpace=wrap;collapsible=0;dropTarget=0;pointerEvents=0;fillColor=none;top=0;left=0;bottom=0;right=0;points=[[0,0.5],[1,0.5]];portConstraint=eastwest;" vertex="1" parent="wJaIogHRavHg8Ts5eM7x-157">
          <mxGeometry y="133" width="145.79" height="43" as="geometry" />
        </mxCell>
        <mxCell id="wJaIogHRavHg8Ts5eM7x-171" value="" style="shape=partialRectangle;html=1;whiteSpace=wrap;connectable=0;fillColor=none;top=0;left=0;bottom=0;right=0;overflow=hidden;" vertex="1" parent="wJaIogHRavHg8Ts5eM7x-170">
          <mxGeometry width="48" height="43" as="geometry" />
        </mxCell>
        <mxCell id="wJaIogHRavHg8Ts5eM7x-172" value="" style="shape=partialRectangle;html=1;whiteSpace=wrap;connectable=0;fillColor=none;top=0;left=0;bottom=0;right=0;overflow=hidden;" vertex="1" parent="wJaIogHRavHg8Ts5eM7x-170">
          <mxGeometry x="48" width="48" height="43" as="geometry" />
        </mxCell>
        <mxCell id="wJaIogHRavHg8Ts5eM7x-173" value="" style="shape=partialRectangle;html=1;whiteSpace=wrap;connectable=0;fillColor=none;top=0;left=0;bottom=0;right=0;overflow=hidden;" vertex="1" parent="wJaIogHRavHg8Ts5eM7x-170">
          <mxGeometry x="96" width="50" height="43" as="geometry" />
        </mxCell>
        <mxCell id="wJaIogHRavHg8Ts5eM7x-174" value="" style="shape=partialRectangle;html=1;whiteSpace=wrap;collapsible=0;dropTarget=0;pointerEvents=0;fillColor=none;top=0;left=0;bottom=0;right=0;points=[[0,0.5],[1,0.5]];portConstraint=eastwest;" vertex="1" parent="wJaIogHRavHg8Ts5eM7x-157">
          <mxGeometry y="176" width="145.79" height="41" as="geometry" />
        </mxCell>
        <mxCell id="wJaIogHRavHg8Ts5eM7x-175" value="" style="shape=partialRectangle;html=1;whiteSpace=wrap;connectable=0;fillColor=none;top=0;left=0;bottom=0;right=0;overflow=hidden;" vertex="1" parent="wJaIogHRavHg8Ts5eM7x-174">
          <mxGeometry width="48" height="41" as="geometry" />
        </mxCell>
        <mxCell id="wJaIogHRavHg8Ts5eM7x-176" value="" style="shape=partialRectangle;html=1;whiteSpace=wrap;connectable=0;fillColor=none;top=0;left=0;bottom=0;right=0;overflow=hidden;" vertex="1" parent="wJaIogHRavHg8Ts5eM7x-174">
          <mxGeometry x="48" width="48" height="41" as="geometry" />
        </mxCell>
        <mxCell id="wJaIogHRavHg8Ts5eM7x-177" value="" style="shape=partialRectangle;html=1;whiteSpace=wrap;connectable=0;fillColor=none;top=0;left=0;bottom=0;right=0;overflow=hidden;" vertex="1" parent="wJaIogHRavHg8Ts5eM7x-174">
          <mxGeometry x="96" width="50" height="41" as="geometry" />
        </mxCell>
        <mxCell id="wJaIogHRavHg8Ts5eM7x-178" value="" style="shape=partialRectangle;html=1;whiteSpace=wrap;collapsible=0;dropTarget=0;pointerEvents=0;fillColor=none;top=0;left=0;bottom=0;right=0;points=[[0,0.5],[1,0.5]];portConstraint=eastwest;" vertex="1" parent="wJaIogHRavHg8Ts5eM7x-157">
          <mxGeometry y="217" width="145.79" height="44" as="geometry" />
        </mxCell>
        <mxCell id="wJaIogHRavHg8Ts5eM7x-179" value="" style="shape=partialRectangle;html=1;whiteSpace=wrap;connectable=0;fillColor=none;top=0;left=0;bottom=0;right=0;overflow=hidden;" vertex="1" parent="wJaIogHRavHg8Ts5eM7x-178">
          <mxGeometry width="48" height="44" as="geometry" />
        </mxCell>
        <mxCell id="wJaIogHRavHg8Ts5eM7x-180" value="" style="shape=partialRectangle;html=1;whiteSpace=wrap;connectable=0;fillColor=none;top=0;left=0;bottom=0;right=0;overflow=hidden;" vertex="1" parent="wJaIogHRavHg8Ts5eM7x-178">
          <mxGeometry x="48" width="48" height="44" as="geometry" />
        </mxCell>
        <mxCell id="wJaIogHRavHg8Ts5eM7x-181" value="" style="shape=partialRectangle;html=1;whiteSpace=wrap;connectable=0;fillColor=none;top=0;left=0;bottom=0;right=0;overflow=hidden;" vertex="1" parent="wJaIogHRavHg8Ts5eM7x-178">
          <mxGeometry x="96" width="50" height="44" as="geometry" />
        </mxCell>
        <mxCell id="wJaIogHRavHg8Ts5eM7x-182" value="" style="shape=partialRectangle;html=1;whiteSpace=wrap;collapsible=0;dropTarget=0;pointerEvents=0;fillColor=none;top=0;left=0;bottom=0;right=0;points=[[0,0.5],[1,0.5]];portConstraint=eastwest;" vertex="1" parent="wJaIogHRavHg8Ts5eM7x-157">
          <mxGeometry y="261" width="145.79" height="43" as="geometry" />
        </mxCell>
        <mxCell id="wJaIogHRavHg8Ts5eM7x-183" value="" style="shape=partialRectangle;html=1;whiteSpace=wrap;connectable=0;fillColor=none;top=0;left=0;bottom=0;right=0;overflow=hidden;" vertex="1" parent="wJaIogHRavHg8Ts5eM7x-182">
          <mxGeometry width="48" height="43" as="geometry" />
        </mxCell>
        <mxCell id="wJaIogHRavHg8Ts5eM7x-184" value="" style="shape=partialRectangle;html=1;whiteSpace=wrap;connectable=0;fillColor=none;top=0;left=0;bottom=0;right=0;overflow=hidden;" vertex="1" parent="wJaIogHRavHg8Ts5eM7x-182">
          <mxGeometry x="48" width="48" height="43" as="geometry" />
        </mxCell>
        <mxCell id="wJaIogHRavHg8Ts5eM7x-185" value="" style="shape=partialRectangle;html=1;whiteSpace=wrap;connectable=0;fillColor=none;top=0;left=0;bottom=0;right=0;overflow=hidden;" vertex="1" parent="wJaIogHRavHg8Ts5eM7x-182">
          <mxGeometry x="96" width="50" height="43" as="geometry" />
        </mxCell>
        <mxCell id="wJaIogHRavHg8Ts5eM7x-186" value="" style="shape=partialRectangle;html=1;whiteSpace=wrap;collapsible=0;dropTarget=0;pointerEvents=0;fillColor=none;top=0;left=0;bottom=0;right=0;points=[[0,0.5],[1,0.5]];portConstraint=eastwest;" vertex="1" parent="wJaIogHRavHg8Ts5eM7x-157">
          <mxGeometry y="304" width="145.79" height="43" as="geometry" />
        </mxCell>
        <mxCell id="wJaIogHRavHg8Ts5eM7x-187" value="" style="shape=partialRectangle;html=1;whiteSpace=wrap;connectable=0;fillColor=none;top=0;left=0;bottom=0;right=0;overflow=hidden;" vertex="1" parent="wJaIogHRavHg8Ts5eM7x-186">
          <mxGeometry width="48" height="43" as="geometry" />
        </mxCell>
        <mxCell id="wJaIogHRavHg8Ts5eM7x-188" value="" style="shape=partialRectangle;html=1;whiteSpace=wrap;connectable=0;fillColor=none;top=0;left=0;bottom=0;right=0;overflow=hidden;" vertex="1" parent="wJaIogHRavHg8Ts5eM7x-186">
          <mxGeometry x="48" width="48" height="43" as="geometry" />
        </mxCell>
        <mxCell id="wJaIogHRavHg8Ts5eM7x-189" value="" style="shape=partialRectangle;html=1;whiteSpace=wrap;connectable=0;fillColor=none;top=0;left=0;bottom=0;right=0;overflow=hidden;" vertex="1" parent="wJaIogHRavHg8Ts5eM7x-186">
          <mxGeometry x="96" width="50" height="43" as="geometry" />
        </mxCell>
        <mxCell id="wJaIogHRavHg8Ts5eM7x-190" value="" style="shape=partialRectangle;html=1;whiteSpace=wrap;collapsible=0;dropTarget=0;pointerEvents=0;fillColor=none;top=0;left=0;bottom=0;right=0;points=[[0,0.5],[1,0.5]];portConstraint=eastwest;" vertex="1" parent="wJaIogHRavHg8Ts5eM7x-157">
          <mxGeometry y="347" width="145.79" height="43" as="geometry" />
        </mxCell>
        <mxCell id="wJaIogHRavHg8Ts5eM7x-191" value="" style="shape=partialRectangle;html=1;whiteSpace=wrap;connectable=0;fillColor=none;top=0;left=0;bottom=0;right=0;overflow=hidden;" vertex="1" parent="wJaIogHRavHg8Ts5eM7x-190">
          <mxGeometry width="48" height="43" as="geometry" />
        </mxCell>
        <mxCell id="wJaIogHRavHg8Ts5eM7x-192" value="" style="shape=partialRectangle;html=1;whiteSpace=wrap;connectable=0;fillColor=none;top=0;left=0;bottom=0;right=0;overflow=hidden;" vertex="1" parent="wJaIogHRavHg8Ts5eM7x-190">
          <mxGeometry x="48" width="48" height="43" as="geometry" />
        </mxCell>
        <mxCell id="wJaIogHRavHg8Ts5eM7x-193" value="" style="shape=partialRectangle;html=1;whiteSpace=wrap;connectable=0;fillColor=none;top=0;left=0;bottom=0;right=0;overflow=hidden;" vertex="1" parent="wJaIogHRavHg8Ts5eM7x-190">
          <mxGeometry x="96" width="50" height="43" as="geometry" />
        </mxCell>
        <mxCell id="wJaIogHRavHg8Ts5eM7x-194" value="" style="shape=table;html=1;whiteSpace=wrap;startSize=0;container=1;collapsible=0;childLayout=tableLayout;strokeWidth=1;gradientColor=#ffffff;opacity=80;rowLines=1;columnLines=1;" vertex="1" parent="wJaIogHRavHg8Ts5eM7x-156">
          <mxGeometry x="145.78999999999996" width="145.79" height="390" as="geometry" />
        </mxCell>
        <mxCell id="wJaIogHRavHg8Ts5eM7x-195" value="" style="shape=partialRectangle;html=1;whiteSpace=wrap;collapsible=0;dropTarget=0;pointerEvents=0;fillColor=none;top=0;left=0;bottom=0;right=0;points=[[0,0.5],[1,0.5]];portConstraint=eastwest;" vertex="1" parent="wJaIogHRavHg8Ts5eM7x-194">
          <mxGeometry width="145.79" height="48" as="geometry" />
        </mxCell>
        <mxCell id="wJaIogHRavHg8Ts5eM7x-196" value="" style="shape=partialRectangle;html=1;whiteSpace=wrap;connectable=0;top=0;left=0;bottom=0;right=0;overflow=hidden;fontColor=#ffffff;strokeColor=#3700CC;opacity=80;fillColor=#CC00CC;" vertex="1" parent="wJaIogHRavHg8Ts5eM7x-195">
          <mxGeometry width="48" height="48" as="geometry" />
        </mxCell>
        <mxCell id="wJaIogHRavHg8Ts5eM7x-197" value="" style="shape=partialRectangle;html=1;whiteSpace=wrap;connectable=0;top=0;left=0;bottom=0;right=0;overflow=hidden;fontColor=#ffffff;strokeColor=#3700CC;opacity=80;fillColor=#CC00CC;" vertex="1" parent="wJaIogHRavHg8Ts5eM7x-195">
          <mxGeometry x="48" width="48" height="48" as="geometry" />
        </mxCell>
        <mxCell id="wJaIogHRavHg8Ts5eM7x-198" value="" style="shape=partialRectangle;html=1;whiteSpace=wrap;connectable=0;top=0;left=0;bottom=0;right=0;overflow=hidden;fontColor=#ffffff;strokeColor=#3700CC;opacity=80;fillColor=#CC00CC;" vertex="1" parent="wJaIogHRavHg8Ts5eM7x-195">
          <mxGeometry x="96" width="50" height="48" as="geometry" />
        </mxCell>
        <mxCell id="wJaIogHRavHg8Ts5eM7x-199" value="" style="shape=partialRectangle;html=1;whiteSpace=wrap;collapsible=0;dropTarget=0;pointerEvents=0;fillColor=none;top=0;left=0;bottom=0;right=0;points=[[0,0.5],[1,0.5]];portConstraint=eastwest;" vertex="1" parent="wJaIogHRavHg8Ts5eM7x-194">
          <mxGeometry y="48" width="145.79" height="40" as="geometry" />
        </mxCell>
        <mxCell id="wJaIogHRavHg8Ts5eM7x-200" value="" style="shape=partialRectangle;html=1;whiteSpace=wrap;connectable=0;fillColor=none;top=0;left=0;bottom=0;right=0;overflow=hidden;" vertex="1" parent="wJaIogHRavHg8Ts5eM7x-199">
          <mxGeometry width="48" height="40" as="geometry" />
        </mxCell>
        <mxCell id="wJaIogHRavHg8Ts5eM7x-201" value="" style="shape=partialRectangle;html=1;whiteSpace=wrap;connectable=0;fillColor=none;top=0;left=0;bottom=0;right=0;overflow=hidden;" vertex="1" parent="wJaIogHRavHg8Ts5eM7x-199">
          <mxGeometry x="48" width="48" height="40" as="geometry" />
        </mxCell>
        <mxCell id="wJaIogHRavHg8Ts5eM7x-202" value="" style="shape=partialRectangle;html=1;whiteSpace=wrap;connectable=0;fillColor=none;top=0;left=0;bottom=0;right=0;overflow=hidden;" vertex="1" parent="wJaIogHRavHg8Ts5eM7x-199">
          <mxGeometry x="96" width="50" height="40" as="geometry" />
        </mxCell>
        <mxCell id="wJaIogHRavHg8Ts5eM7x-203" value="" style="shape=partialRectangle;html=1;whiteSpace=wrap;collapsible=0;dropTarget=0;pointerEvents=0;fillColor=none;top=0;left=0;bottom=0;right=0;points=[[0,0.5],[1,0.5]];portConstraint=eastwest;" vertex="1" parent="wJaIogHRavHg8Ts5eM7x-194">
          <mxGeometry y="88" width="145.79" height="45" as="geometry" />
        </mxCell>
        <mxCell id="wJaIogHRavHg8Ts5eM7x-204" value="" style="shape=partialRectangle;html=1;whiteSpace=wrap;connectable=0;fillColor=none;top=0;left=0;bottom=0;right=0;overflow=hidden;" vertex="1" parent="wJaIogHRavHg8Ts5eM7x-203">
          <mxGeometry width="48" height="45" as="geometry" />
        </mxCell>
        <mxCell id="wJaIogHRavHg8Ts5eM7x-205" value="" style="shape=partialRectangle;html=1;whiteSpace=wrap;connectable=0;fillColor=none;top=0;left=0;bottom=0;right=0;overflow=hidden;" vertex="1" parent="wJaIogHRavHg8Ts5eM7x-203">
          <mxGeometry x="48" width="48" height="45" as="geometry" />
        </mxCell>
        <mxCell id="wJaIogHRavHg8Ts5eM7x-206" value="" style="shape=partialRectangle;html=1;whiteSpace=wrap;connectable=0;fillColor=none;top=0;left=0;bottom=0;right=0;overflow=hidden;" vertex="1" parent="wJaIogHRavHg8Ts5eM7x-203">
          <mxGeometry x="96" width="50" height="45" as="geometry" />
        </mxCell>
        <mxCell id="wJaIogHRavHg8Ts5eM7x-207" value="" style="shape=partialRectangle;html=1;whiteSpace=wrap;collapsible=0;dropTarget=0;pointerEvents=0;fillColor=none;top=0;left=0;bottom=0;right=0;points=[[0,0.5],[1,0.5]];portConstraint=eastwest;" vertex="1" parent="wJaIogHRavHg8Ts5eM7x-194">
          <mxGeometry y="133" width="145.79" height="43" as="geometry" />
        </mxCell>
        <mxCell id="wJaIogHRavHg8Ts5eM7x-208" value="" style="shape=partialRectangle;html=1;whiteSpace=wrap;connectable=0;fillColor=none;top=0;left=0;bottom=0;right=0;overflow=hidden;" vertex="1" parent="wJaIogHRavHg8Ts5eM7x-207">
          <mxGeometry width="48" height="43" as="geometry" />
        </mxCell>
        <mxCell id="wJaIogHRavHg8Ts5eM7x-209" value="" style="shape=partialRectangle;html=1;whiteSpace=wrap;connectable=0;fillColor=none;top=0;left=0;bottom=0;right=0;overflow=hidden;" vertex="1" parent="wJaIogHRavHg8Ts5eM7x-207">
          <mxGeometry x="48" width="48" height="43" as="geometry" />
        </mxCell>
        <mxCell id="wJaIogHRavHg8Ts5eM7x-210" value="" style="shape=partialRectangle;html=1;whiteSpace=wrap;connectable=0;fillColor=none;top=0;left=0;bottom=0;right=0;overflow=hidden;" vertex="1" parent="wJaIogHRavHg8Ts5eM7x-207">
          <mxGeometry x="96" width="50" height="43" as="geometry" />
        </mxCell>
        <mxCell id="wJaIogHRavHg8Ts5eM7x-211" value="" style="shape=partialRectangle;html=1;whiteSpace=wrap;collapsible=0;dropTarget=0;pointerEvents=0;fillColor=none;top=0;left=0;bottom=0;right=0;points=[[0,0.5],[1,0.5]];portConstraint=eastwest;" vertex="1" parent="wJaIogHRavHg8Ts5eM7x-194">
          <mxGeometry y="176" width="145.79" height="41" as="geometry" />
        </mxCell>
        <mxCell id="wJaIogHRavHg8Ts5eM7x-212" value="" style="shape=partialRectangle;html=1;whiteSpace=wrap;connectable=0;fillColor=none;top=0;left=0;bottom=0;right=0;overflow=hidden;" vertex="1" parent="wJaIogHRavHg8Ts5eM7x-211">
          <mxGeometry width="48" height="41" as="geometry" />
        </mxCell>
        <mxCell id="wJaIogHRavHg8Ts5eM7x-213" value="" style="shape=partialRectangle;html=1;whiteSpace=wrap;connectable=0;fillColor=none;top=0;left=0;bottom=0;right=0;overflow=hidden;" vertex="1" parent="wJaIogHRavHg8Ts5eM7x-211">
          <mxGeometry x="48" width="48" height="41" as="geometry" />
        </mxCell>
        <mxCell id="wJaIogHRavHg8Ts5eM7x-214" value="" style="shape=partialRectangle;html=1;whiteSpace=wrap;connectable=0;fillColor=none;top=0;left=0;bottom=0;right=0;overflow=hidden;" vertex="1" parent="wJaIogHRavHg8Ts5eM7x-211">
          <mxGeometry x="96" width="50" height="41" as="geometry" />
        </mxCell>
        <mxCell id="wJaIogHRavHg8Ts5eM7x-215" value="" style="shape=partialRectangle;html=1;whiteSpace=wrap;collapsible=0;dropTarget=0;pointerEvents=0;fillColor=none;top=0;left=0;bottom=0;right=0;points=[[0,0.5],[1,0.5]];portConstraint=eastwest;" vertex="1" parent="wJaIogHRavHg8Ts5eM7x-194">
          <mxGeometry y="217" width="145.79" height="44" as="geometry" />
        </mxCell>
        <mxCell id="wJaIogHRavHg8Ts5eM7x-216" value="" style="shape=partialRectangle;html=1;whiteSpace=wrap;connectable=0;fillColor=none;top=0;left=0;bottom=0;right=0;overflow=hidden;" vertex="1" parent="wJaIogHRavHg8Ts5eM7x-215">
          <mxGeometry width="48" height="44" as="geometry" />
        </mxCell>
        <mxCell id="wJaIogHRavHg8Ts5eM7x-217" value="" style="shape=partialRectangle;html=1;whiteSpace=wrap;connectable=0;fillColor=none;top=0;left=0;bottom=0;right=0;overflow=hidden;" vertex="1" parent="wJaIogHRavHg8Ts5eM7x-215">
          <mxGeometry x="48" width="48" height="44" as="geometry" />
        </mxCell>
        <mxCell id="wJaIogHRavHg8Ts5eM7x-218" value="" style="shape=partialRectangle;html=1;whiteSpace=wrap;connectable=0;fillColor=none;top=0;left=0;bottom=0;right=0;overflow=hidden;" vertex="1" parent="wJaIogHRavHg8Ts5eM7x-215">
          <mxGeometry x="96" width="50" height="44" as="geometry" />
        </mxCell>
        <mxCell id="wJaIogHRavHg8Ts5eM7x-219" value="" style="shape=partialRectangle;html=1;whiteSpace=wrap;collapsible=0;dropTarget=0;pointerEvents=0;fillColor=none;top=0;left=0;bottom=0;right=0;points=[[0,0.5],[1,0.5]];portConstraint=eastwest;" vertex="1" parent="wJaIogHRavHg8Ts5eM7x-194">
          <mxGeometry y="261" width="145.79" height="43" as="geometry" />
        </mxCell>
        <mxCell id="wJaIogHRavHg8Ts5eM7x-220" value="" style="shape=partialRectangle;html=1;whiteSpace=wrap;connectable=0;fillColor=none;top=0;left=0;bottom=0;right=0;overflow=hidden;" vertex="1" parent="wJaIogHRavHg8Ts5eM7x-219">
          <mxGeometry width="48" height="43" as="geometry" />
        </mxCell>
        <mxCell id="wJaIogHRavHg8Ts5eM7x-221" value="" style="shape=partialRectangle;html=1;whiteSpace=wrap;connectable=0;fillColor=none;top=0;left=0;bottom=0;right=0;overflow=hidden;" vertex="1" parent="wJaIogHRavHg8Ts5eM7x-219">
          <mxGeometry x="48" width="48" height="43" as="geometry" />
        </mxCell>
        <mxCell id="wJaIogHRavHg8Ts5eM7x-222" value="" style="shape=partialRectangle;html=1;whiteSpace=wrap;connectable=0;fillColor=none;top=0;left=0;bottom=0;right=0;overflow=hidden;" vertex="1" parent="wJaIogHRavHg8Ts5eM7x-219">
          <mxGeometry x="96" width="50" height="43" as="geometry" />
        </mxCell>
        <mxCell id="wJaIogHRavHg8Ts5eM7x-223" value="" style="shape=partialRectangle;html=1;whiteSpace=wrap;collapsible=0;dropTarget=0;pointerEvents=0;fillColor=none;top=0;left=0;bottom=0;right=0;points=[[0,0.5],[1,0.5]];portConstraint=eastwest;" vertex="1" parent="wJaIogHRavHg8Ts5eM7x-194">
          <mxGeometry y="304" width="145.79" height="43" as="geometry" />
        </mxCell>
        <mxCell id="wJaIogHRavHg8Ts5eM7x-224" value="" style="shape=partialRectangle;html=1;whiteSpace=wrap;connectable=0;fillColor=none;top=0;left=0;bottom=0;right=0;overflow=hidden;" vertex="1" parent="wJaIogHRavHg8Ts5eM7x-223">
          <mxGeometry width="48" height="43" as="geometry" />
        </mxCell>
        <mxCell id="wJaIogHRavHg8Ts5eM7x-225" value="" style="shape=partialRectangle;html=1;whiteSpace=wrap;connectable=0;fillColor=none;top=0;left=0;bottom=0;right=0;overflow=hidden;" vertex="1" parent="wJaIogHRavHg8Ts5eM7x-223">
          <mxGeometry x="48" width="48" height="43" as="geometry" />
        </mxCell>
        <mxCell id="wJaIogHRavHg8Ts5eM7x-226" value="" style="shape=partialRectangle;html=1;whiteSpace=wrap;connectable=0;fillColor=none;top=0;left=0;bottom=0;right=0;overflow=hidden;" vertex="1" parent="wJaIogHRavHg8Ts5eM7x-223">
          <mxGeometry x="96" width="50" height="43" as="geometry" />
        </mxCell>
        <mxCell id="wJaIogHRavHg8Ts5eM7x-227" value="" style="shape=partialRectangle;html=1;whiteSpace=wrap;collapsible=0;dropTarget=0;pointerEvents=0;fillColor=none;top=0;left=0;bottom=0;right=0;points=[[0,0.5],[1,0.5]];portConstraint=eastwest;" vertex="1" parent="wJaIogHRavHg8Ts5eM7x-194">
          <mxGeometry y="347" width="145.79" height="43" as="geometry" />
        </mxCell>
        <mxCell id="wJaIogHRavHg8Ts5eM7x-228" value="" style="shape=partialRectangle;html=1;whiteSpace=wrap;connectable=0;fillColor=none;top=0;left=0;bottom=0;right=0;overflow=hidden;" vertex="1" parent="wJaIogHRavHg8Ts5eM7x-227">
          <mxGeometry width="48" height="43" as="geometry" />
        </mxCell>
        <mxCell id="wJaIogHRavHg8Ts5eM7x-229" value="" style="shape=partialRectangle;html=1;whiteSpace=wrap;connectable=0;fillColor=none;top=0;left=0;bottom=0;right=0;overflow=hidden;" vertex="1" parent="wJaIogHRavHg8Ts5eM7x-227">
          <mxGeometry x="48" width="48" height="43" as="geometry" />
        </mxCell>
        <mxCell id="wJaIogHRavHg8Ts5eM7x-230" value="" style="shape=partialRectangle;html=1;whiteSpace=wrap;connectable=0;fillColor=none;top=0;left=0;bottom=0;right=0;overflow=hidden;" vertex="1" parent="wJaIogHRavHg8Ts5eM7x-227">
          <mxGeometry x="96" width="50" height="43" as="geometry" />
        </mxCell>
        <mxCell id="wJaIogHRavHg8Ts5eM7x-231" value="" style="shape=table;html=1;whiteSpace=wrap;startSize=0;container=1;collapsible=0;childLayout=tableLayout;strokeWidth=1;gradientColor=#ffffff;opacity=80;rowLines=1;columnLines=1;" vertex="1" parent="wJaIogHRavHg8Ts5eM7x-156">
          <mxGeometry x="291.5799999999999" width="145.79" height="390" as="geometry" />
        </mxCell>
        <mxCell id="wJaIogHRavHg8Ts5eM7x-232" value="" style="shape=partialRectangle;html=1;whiteSpace=wrap;collapsible=0;dropTarget=0;pointerEvents=0;fillColor=none;top=0;left=0;bottom=0;right=0;points=[[0,0.5],[1,0.5]];portConstraint=eastwest;" vertex="1" parent="wJaIogHRavHg8Ts5eM7x-231">
          <mxGeometry width="145.79" height="48" as="geometry" />
        </mxCell>
        <mxCell id="wJaIogHRavHg8Ts5eM7x-233" value="" style="shape=partialRectangle;html=1;whiteSpace=wrap;connectable=0;top=0;left=0;bottom=0;right=0;overflow=hidden;fontColor=#ffffff;strokeColor=#3700CC;opacity=80;fillColor=#CC00CC;" vertex="1" parent="wJaIogHRavHg8Ts5eM7x-232">
          <mxGeometry width="48" height="48" as="geometry" />
        </mxCell>
        <mxCell id="wJaIogHRavHg8Ts5eM7x-234" value="" style="shape=partialRectangle;html=1;whiteSpace=wrap;connectable=0;top=0;left=0;bottom=0;right=0;overflow=hidden;fontColor=#ffffff;strokeColor=#3700CC;opacity=80;fillColor=#CC00CC;" vertex="1" parent="wJaIogHRavHg8Ts5eM7x-232">
          <mxGeometry x="48" width="48" height="48" as="geometry" />
        </mxCell>
        <mxCell id="wJaIogHRavHg8Ts5eM7x-235" value="" style="shape=partialRectangle;html=1;whiteSpace=wrap;connectable=0;top=0;left=0;bottom=0;right=0;overflow=hidden;fontColor=#ffffff;strokeColor=#3700CC;opacity=80;fillColor=#CC00CC;" vertex="1" parent="wJaIogHRavHg8Ts5eM7x-232">
          <mxGeometry x="96" width="50" height="48" as="geometry" />
        </mxCell>
        <mxCell id="wJaIogHRavHg8Ts5eM7x-236" value="" style="shape=partialRectangle;html=1;whiteSpace=wrap;collapsible=0;dropTarget=0;pointerEvents=0;fillColor=none;top=0;left=0;bottom=0;right=0;points=[[0,0.5],[1,0.5]];portConstraint=eastwest;" vertex="1" parent="wJaIogHRavHg8Ts5eM7x-231">
          <mxGeometry y="48" width="145.79" height="40" as="geometry" />
        </mxCell>
        <mxCell id="wJaIogHRavHg8Ts5eM7x-237" value="" style="shape=partialRectangle;html=1;whiteSpace=wrap;connectable=0;fillColor=none;top=0;left=0;bottom=0;right=0;overflow=hidden;" vertex="1" parent="wJaIogHRavHg8Ts5eM7x-236">
          <mxGeometry width="48" height="40" as="geometry" />
        </mxCell>
        <mxCell id="wJaIogHRavHg8Ts5eM7x-238" value="" style="shape=partialRectangle;html=1;whiteSpace=wrap;connectable=0;fillColor=none;top=0;left=0;bottom=0;right=0;overflow=hidden;" vertex="1" parent="wJaIogHRavHg8Ts5eM7x-236">
          <mxGeometry x="48" width="48" height="40" as="geometry" />
        </mxCell>
        <mxCell id="wJaIogHRavHg8Ts5eM7x-239" value="" style="shape=partialRectangle;html=1;whiteSpace=wrap;connectable=0;top=0;left=0;bottom=0;right=0;overflow=hidden;fontColor=#ffffff;strokeColor=#3700CC;opacity=80;fillColor=#CC00CC;" vertex="1" parent="wJaIogHRavHg8Ts5eM7x-236">
          <mxGeometry x="96" width="50" height="40" as="geometry" />
        </mxCell>
        <mxCell id="wJaIogHRavHg8Ts5eM7x-240" value="" style="shape=partialRectangle;html=1;whiteSpace=wrap;collapsible=0;dropTarget=0;pointerEvents=0;fillColor=none;top=0;left=0;bottom=0;right=0;points=[[0,0.5],[1,0.5]];portConstraint=eastwest;" vertex="1" parent="wJaIogHRavHg8Ts5eM7x-231">
          <mxGeometry y="88" width="145.79" height="45" as="geometry" />
        </mxCell>
        <mxCell id="wJaIogHRavHg8Ts5eM7x-241" value="" style="shape=partialRectangle;html=1;whiteSpace=wrap;connectable=0;fillColor=none;top=0;left=0;bottom=0;right=0;overflow=hidden;" vertex="1" parent="wJaIogHRavHg8Ts5eM7x-240">
          <mxGeometry width="48" height="45" as="geometry" />
        </mxCell>
        <mxCell id="wJaIogHRavHg8Ts5eM7x-242" value="" style="shape=partialRectangle;html=1;whiteSpace=wrap;connectable=0;fillColor=none;top=0;left=0;bottom=0;right=0;overflow=hidden;" vertex="1" parent="wJaIogHRavHg8Ts5eM7x-240">
          <mxGeometry x="48" width="48" height="45" as="geometry" />
        </mxCell>
        <mxCell id="wJaIogHRavHg8Ts5eM7x-243" value="" style="shape=partialRectangle;html=1;whiteSpace=wrap;connectable=0;top=0;left=0;bottom=0;right=0;overflow=hidden;fontColor=#ffffff;strokeColor=#3700CC;opacity=80;fillColor=#CC00CC;" vertex="1" parent="wJaIogHRavHg8Ts5eM7x-240">
          <mxGeometry x="96" width="50" height="45" as="geometry" />
        </mxCell>
        <mxCell id="wJaIogHRavHg8Ts5eM7x-244" value="" style="shape=partialRectangle;html=1;whiteSpace=wrap;collapsible=0;dropTarget=0;pointerEvents=0;fillColor=none;top=0;left=0;bottom=0;right=0;points=[[0,0.5],[1,0.5]];portConstraint=eastwest;" vertex="1" parent="wJaIogHRavHg8Ts5eM7x-231">
          <mxGeometry y="133" width="145.79" height="43" as="geometry" />
        </mxCell>
        <mxCell id="wJaIogHRavHg8Ts5eM7x-245" value="" style="shape=partialRectangle;html=1;whiteSpace=wrap;connectable=0;fillColor=none;top=0;left=0;bottom=0;right=0;overflow=hidden;" vertex="1" parent="wJaIogHRavHg8Ts5eM7x-244">
          <mxGeometry width="48" height="43" as="geometry" />
        </mxCell>
        <mxCell id="wJaIogHRavHg8Ts5eM7x-246" value="" style="shape=partialRectangle;html=1;whiteSpace=wrap;connectable=0;fillColor=none;top=0;left=0;bottom=0;right=0;overflow=hidden;" vertex="1" parent="wJaIogHRavHg8Ts5eM7x-244">
          <mxGeometry x="48" width="48" height="43" as="geometry" />
        </mxCell>
        <mxCell id="wJaIogHRavHg8Ts5eM7x-247" value="" style="shape=partialRectangle;html=1;whiteSpace=wrap;connectable=0;top=0;left=0;bottom=0;right=0;overflow=hidden;fontColor=#ffffff;strokeColor=#3700CC;opacity=80;fillColor=#CC00CC;" vertex="1" parent="wJaIogHRavHg8Ts5eM7x-244">
          <mxGeometry x="96" width="50" height="43" as="geometry" />
        </mxCell>
        <mxCell id="wJaIogHRavHg8Ts5eM7x-248" value="" style="shape=partialRectangle;html=1;whiteSpace=wrap;collapsible=0;dropTarget=0;pointerEvents=0;fillColor=none;top=0;left=0;bottom=0;right=0;points=[[0,0.5],[1,0.5]];portConstraint=eastwest;" vertex="1" parent="wJaIogHRavHg8Ts5eM7x-231">
          <mxGeometry y="176" width="145.79" height="41" as="geometry" />
        </mxCell>
        <mxCell id="wJaIogHRavHg8Ts5eM7x-249" value="" style="shape=partialRectangle;html=1;whiteSpace=wrap;connectable=0;fillColor=none;top=0;left=0;bottom=0;right=0;overflow=hidden;" vertex="1" parent="wJaIogHRavHg8Ts5eM7x-248">
          <mxGeometry width="48" height="41" as="geometry" />
        </mxCell>
        <mxCell id="wJaIogHRavHg8Ts5eM7x-250" value="" style="shape=partialRectangle;html=1;whiteSpace=wrap;connectable=0;fillColor=none;top=0;left=0;bottom=0;right=0;overflow=hidden;" vertex="1" parent="wJaIogHRavHg8Ts5eM7x-248">
          <mxGeometry x="48" width="48" height="41" as="geometry" />
        </mxCell>
        <mxCell id="wJaIogHRavHg8Ts5eM7x-251" value="" style="shape=partialRectangle;html=1;whiteSpace=wrap;connectable=0;top=0;left=0;bottom=0;right=0;overflow=hidden;fontColor=#ffffff;strokeColor=#3700CC;opacity=80;fillColor=#CC00CC;" vertex="1" parent="wJaIogHRavHg8Ts5eM7x-248">
          <mxGeometry x="96" width="50" height="41" as="geometry" />
        </mxCell>
        <mxCell id="wJaIogHRavHg8Ts5eM7x-252" value="" style="shape=partialRectangle;html=1;whiteSpace=wrap;collapsible=0;dropTarget=0;pointerEvents=0;fillColor=none;top=0;left=0;bottom=0;right=0;points=[[0,0.5],[1,0.5]];portConstraint=eastwest;" vertex="1" parent="wJaIogHRavHg8Ts5eM7x-231">
          <mxGeometry y="217" width="145.79" height="44" as="geometry" />
        </mxCell>
        <mxCell id="wJaIogHRavHg8Ts5eM7x-253" value="" style="shape=partialRectangle;html=1;whiteSpace=wrap;connectable=0;fillColor=none;top=0;left=0;bottom=0;right=0;overflow=hidden;" vertex="1" parent="wJaIogHRavHg8Ts5eM7x-252">
          <mxGeometry width="48" height="44" as="geometry" />
        </mxCell>
        <mxCell id="wJaIogHRavHg8Ts5eM7x-254" value="" style="shape=partialRectangle;html=1;whiteSpace=wrap;connectable=0;fillColor=none;top=0;left=0;bottom=0;right=0;overflow=hidden;" vertex="1" parent="wJaIogHRavHg8Ts5eM7x-252">
          <mxGeometry x="48" width="48" height="44" as="geometry" />
        </mxCell>
        <mxCell id="wJaIogHRavHg8Ts5eM7x-255" value="" style="shape=partialRectangle;html=1;whiteSpace=wrap;connectable=0;top=0;left=0;bottom=0;right=0;overflow=hidden;fontColor=#ffffff;strokeColor=#3700CC;opacity=80;fillColor=#CC00CC;" vertex="1" parent="wJaIogHRavHg8Ts5eM7x-252">
          <mxGeometry x="96" width="50" height="44" as="geometry" />
        </mxCell>
        <mxCell id="wJaIogHRavHg8Ts5eM7x-256" value="" style="shape=partialRectangle;html=1;whiteSpace=wrap;collapsible=0;dropTarget=0;pointerEvents=0;fillColor=none;top=0;left=0;bottom=0;right=0;points=[[0,0.5],[1,0.5]];portConstraint=eastwest;" vertex="1" parent="wJaIogHRavHg8Ts5eM7x-231">
          <mxGeometry y="261" width="145.79" height="43" as="geometry" />
        </mxCell>
        <mxCell id="wJaIogHRavHg8Ts5eM7x-257" value="" style="shape=partialRectangle;html=1;whiteSpace=wrap;connectable=0;fillColor=none;top=0;left=0;bottom=0;right=0;overflow=hidden;" vertex="1" parent="wJaIogHRavHg8Ts5eM7x-256">
          <mxGeometry width="48" height="43" as="geometry" />
        </mxCell>
        <mxCell id="wJaIogHRavHg8Ts5eM7x-258" value="" style="shape=partialRectangle;html=1;whiteSpace=wrap;connectable=0;fillColor=none;top=0;left=0;bottom=0;right=0;overflow=hidden;" vertex="1" parent="wJaIogHRavHg8Ts5eM7x-256">
          <mxGeometry x="48" width="48" height="43" as="geometry" />
        </mxCell>
        <mxCell id="wJaIogHRavHg8Ts5eM7x-259" value="" style="shape=partialRectangle;html=1;whiteSpace=wrap;connectable=0;top=0;left=0;bottom=0;right=0;overflow=hidden;fontColor=#ffffff;strokeColor=#3700CC;opacity=80;fillColor=#CC00CC;" vertex="1" parent="wJaIogHRavHg8Ts5eM7x-256">
          <mxGeometry x="96" width="50" height="43" as="geometry" />
        </mxCell>
        <mxCell id="wJaIogHRavHg8Ts5eM7x-260" value="" style="shape=partialRectangle;html=1;whiteSpace=wrap;collapsible=0;dropTarget=0;pointerEvents=0;fillColor=none;top=0;left=0;bottom=0;right=0;points=[[0,0.5],[1,0.5]];portConstraint=eastwest;" vertex="1" parent="wJaIogHRavHg8Ts5eM7x-231">
          <mxGeometry y="304" width="145.79" height="43" as="geometry" />
        </mxCell>
        <mxCell id="wJaIogHRavHg8Ts5eM7x-261" value="" style="shape=partialRectangle;html=1;whiteSpace=wrap;connectable=0;fillColor=none;top=0;left=0;bottom=0;right=0;overflow=hidden;" vertex="1" parent="wJaIogHRavHg8Ts5eM7x-260">
          <mxGeometry width="48" height="43" as="geometry" />
        </mxCell>
        <mxCell id="wJaIogHRavHg8Ts5eM7x-262" value="" style="shape=partialRectangle;html=1;whiteSpace=wrap;connectable=0;fillColor=none;top=0;left=0;bottom=0;right=0;overflow=hidden;" vertex="1" parent="wJaIogHRavHg8Ts5eM7x-260">
          <mxGeometry x="48" width="48" height="43" as="geometry" />
        </mxCell>
        <mxCell id="wJaIogHRavHg8Ts5eM7x-263" value="" style="shape=partialRectangle;html=1;whiteSpace=wrap;connectable=0;top=0;left=0;bottom=0;right=0;overflow=hidden;fontColor=#ffffff;strokeColor=#3700CC;opacity=80;fillColor=#CC00CC;" vertex="1" parent="wJaIogHRavHg8Ts5eM7x-260">
          <mxGeometry x="96" width="50" height="43" as="geometry" />
        </mxCell>
        <mxCell id="wJaIogHRavHg8Ts5eM7x-264" value="" style="shape=partialRectangle;html=1;whiteSpace=wrap;collapsible=0;dropTarget=0;pointerEvents=0;fillColor=none;top=0;left=0;bottom=0;right=0;points=[[0,0.5],[1,0.5]];portConstraint=eastwest;" vertex="1" parent="wJaIogHRavHg8Ts5eM7x-231">
          <mxGeometry y="347" width="145.79" height="43" as="geometry" />
        </mxCell>
        <mxCell id="wJaIogHRavHg8Ts5eM7x-265" value="" style="shape=partialRectangle;html=1;whiteSpace=wrap;connectable=0;fillColor=none;top=0;left=0;bottom=0;right=0;overflow=hidden;" vertex="1" parent="wJaIogHRavHg8Ts5eM7x-264">
          <mxGeometry width="48" height="43" as="geometry" />
        </mxCell>
        <mxCell id="wJaIogHRavHg8Ts5eM7x-266" value="" style="shape=partialRectangle;html=1;whiteSpace=wrap;connectable=0;fillColor=none;top=0;left=0;bottom=0;right=0;overflow=hidden;" vertex="1" parent="wJaIogHRavHg8Ts5eM7x-264">
          <mxGeometry x="48" width="48" height="43" as="geometry" />
        </mxCell>
        <mxCell id="wJaIogHRavHg8Ts5eM7x-267" value="" style="shape=partialRectangle;html=1;whiteSpace=wrap;connectable=0;top=0;left=0;bottom=0;right=0;overflow=hidden;fontColor=#ffffff;strokeColor=#3700CC;opacity=80;fillColor=#CC00CC;" vertex="1" parent="wJaIogHRavHg8Ts5eM7x-264">
          <mxGeometry x="96" width="50" height="43" as="geometry" />
        </mxCell>
        <mxCell id="wJaIogHRavHg8Ts5eM7x-268" value="" style="group;fillColor=#FF66FF;" vertex="1" connectable="0" parent="wJaIogHRavHg8Ts5eM7x-156">
          <mxGeometry x="-20" y="28" width="437.3699999999999" height="472" as="geometry" />
        </mxCell>
        <mxCell id="wJaIogHRavHg8Ts5eM7x-269" value="" style="group" vertex="1" connectable="0" parent="wJaIogHRavHg8Ts5eM7x-268">
          <mxGeometry width="437.3699999999999" height="472" as="geometry" />
        </mxCell>
        <mxCell id="wJaIogHRavHg8Ts5eM7x-270" value="" style="shape=table;html=1;whiteSpace=wrap;startSize=0;container=1;collapsible=0;childLayout=tableLayout;strokeWidth=1;gradientColor=#ffffff;opacity=80;rowLines=1;columnLines=1;" vertex="1" parent="wJaIogHRavHg8Ts5eM7x-269">
          <mxGeometry width="145.79" height="390" as="geometry" />
        </mxCell>
        <mxCell id="wJaIogHRavHg8Ts5eM7x-271" value="" style="shape=partialRectangle;html=1;whiteSpace=wrap;collapsible=0;dropTarget=0;pointerEvents=0;fillColor=none;top=0;left=0;bottom=0;right=0;points=[[0,0.5],[1,0.5]];portConstraint=eastwest;" vertex="1" parent="wJaIogHRavHg8Ts5eM7x-270">
          <mxGeometry width="145.79" height="48" as="geometry" />
        </mxCell>
        <mxCell id="wJaIogHRavHg8Ts5eM7x-272" value="" style="shape=partialRectangle;html=1;whiteSpace=wrap;connectable=0;top=0;left=0;bottom=0;right=0;overflow=hidden;strokeColor=#3700CC;fontColor=#ffffff;opacity=80;fillColor=#FF66FF;" vertex="1" parent="wJaIogHRavHg8Ts5eM7x-271">
          <mxGeometry width="48" height="48" as="geometry" />
        </mxCell>
        <mxCell id="wJaIogHRavHg8Ts5eM7x-273" value="" style="shape=partialRectangle;html=1;whiteSpace=wrap;connectable=0;top=0;left=0;bottom=0;right=0;overflow=hidden;fontColor=#ffffff;strokeColor=#3700CC;opacity=80;fillColor=#FF66FF;" vertex="1" parent="wJaIogHRavHg8Ts5eM7x-271">
          <mxGeometry x="48" width="48" height="48" as="geometry" />
        </mxCell>
        <mxCell id="wJaIogHRavHg8Ts5eM7x-274" value="" style="shape=partialRectangle;html=1;whiteSpace=wrap;connectable=0;top=0;left=0;bottom=0;right=0;overflow=hidden;fontColor=#ffffff;strokeColor=#3700CC;opacity=80;fillColor=#FF66FF;" vertex="1" parent="wJaIogHRavHg8Ts5eM7x-271">
          <mxGeometry x="96" width="50" height="48" as="geometry" />
        </mxCell>
        <mxCell id="wJaIogHRavHg8Ts5eM7x-275" value="" style="shape=partialRectangle;html=1;whiteSpace=wrap;collapsible=0;dropTarget=0;pointerEvents=0;fillColor=none;top=0;left=0;bottom=0;right=0;points=[[0,0.5],[1,0.5]];portConstraint=eastwest;" vertex="1" parent="wJaIogHRavHg8Ts5eM7x-270">
          <mxGeometry y="48" width="145.79" height="40" as="geometry" />
        </mxCell>
        <mxCell id="wJaIogHRavHg8Ts5eM7x-276" value="" style="shape=partialRectangle;html=1;whiteSpace=wrap;connectable=0;fillColor=none;top=0;left=0;bottom=0;right=0;overflow=hidden;" vertex="1" parent="wJaIogHRavHg8Ts5eM7x-275">
          <mxGeometry width="48" height="40" as="geometry" />
        </mxCell>
        <mxCell id="wJaIogHRavHg8Ts5eM7x-277" value="" style="shape=partialRectangle;html=1;whiteSpace=wrap;connectable=0;fillColor=none;top=0;left=0;bottom=0;right=0;overflow=hidden;" vertex="1" parent="wJaIogHRavHg8Ts5eM7x-275">
          <mxGeometry x="48" width="48" height="40" as="geometry" />
        </mxCell>
        <mxCell id="wJaIogHRavHg8Ts5eM7x-278" value="" style="shape=partialRectangle;html=1;whiteSpace=wrap;connectable=0;fillColor=none;top=0;left=0;bottom=0;right=0;overflow=hidden;" vertex="1" parent="wJaIogHRavHg8Ts5eM7x-275">
          <mxGeometry x="96" width="50" height="40" as="geometry" />
        </mxCell>
        <mxCell id="wJaIogHRavHg8Ts5eM7x-279" value="" style="shape=partialRectangle;html=1;whiteSpace=wrap;collapsible=0;dropTarget=0;pointerEvents=0;fillColor=none;top=0;left=0;bottom=0;right=0;points=[[0,0.5],[1,0.5]];portConstraint=eastwest;" vertex="1" parent="wJaIogHRavHg8Ts5eM7x-270">
          <mxGeometry y="88" width="145.79" height="45" as="geometry" />
        </mxCell>
        <mxCell id="wJaIogHRavHg8Ts5eM7x-280" value="" style="shape=partialRectangle;html=1;whiteSpace=wrap;connectable=0;fillColor=none;top=0;left=0;bottom=0;right=0;overflow=hidden;" vertex="1" parent="wJaIogHRavHg8Ts5eM7x-279">
          <mxGeometry width="48" height="45" as="geometry" />
        </mxCell>
        <mxCell id="wJaIogHRavHg8Ts5eM7x-281" value="" style="shape=partialRectangle;html=1;whiteSpace=wrap;connectable=0;fillColor=none;top=0;left=0;bottom=0;right=0;overflow=hidden;" vertex="1" parent="wJaIogHRavHg8Ts5eM7x-279">
          <mxGeometry x="48" width="48" height="45" as="geometry" />
        </mxCell>
        <mxCell id="wJaIogHRavHg8Ts5eM7x-282" value="" style="shape=partialRectangle;html=1;whiteSpace=wrap;connectable=0;fillColor=none;top=0;left=0;bottom=0;right=0;overflow=hidden;" vertex="1" parent="wJaIogHRavHg8Ts5eM7x-279">
          <mxGeometry x="96" width="50" height="45" as="geometry" />
        </mxCell>
        <mxCell id="wJaIogHRavHg8Ts5eM7x-283" value="" style="shape=partialRectangle;html=1;whiteSpace=wrap;collapsible=0;dropTarget=0;pointerEvents=0;fillColor=none;top=0;left=0;bottom=0;right=0;points=[[0,0.5],[1,0.5]];portConstraint=eastwest;" vertex="1" parent="wJaIogHRavHg8Ts5eM7x-270">
          <mxGeometry y="133" width="145.79" height="43" as="geometry" />
        </mxCell>
        <mxCell id="wJaIogHRavHg8Ts5eM7x-284" value="" style="shape=partialRectangle;html=1;whiteSpace=wrap;connectable=0;fillColor=none;top=0;left=0;bottom=0;right=0;overflow=hidden;" vertex="1" parent="wJaIogHRavHg8Ts5eM7x-283">
          <mxGeometry width="48" height="43" as="geometry" />
        </mxCell>
        <mxCell id="wJaIogHRavHg8Ts5eM7x-285" value="" style="shape=partialRectangle;html=1;whiteSpace=wrap;connectable=0;fillColor=none;top=0;left=0;bottom=0;right=0;overflow=hidden;" vertex="1" parent="wJaIogHRavHg8Ts5eM7x-283">
          <mxGeometry x="48" width="48" height="43" as="geometry" />
        </mxCell>
        <mxCell id="wJaIogHRavHg8Ts5eM7x-286" value="" style="shape=partialRectangle;html=1;whiteSpace=wrap;connectable=0;fillColor=none;top=0;left=0;bottom=0;right=0;overflow=hidden;" vertex="1" parent="wJaIogHRavHg8Ts5eM7x-283">
          <mxGeometry x="96" width="50" height="43" as="geometry" />
        </mxCell>
        <mxCell id="wJaIogHRavHg8Ts5eM7x-287" value="" style="shape=partialRectangle;html=1;whiteSpace=wrap;collapsible=0;dropTarget=0;pointerEvents=0;fillColor=none;top=0;left=0;bottom=0;right=0;points=[[0,0.5],[1,0.5]];portConstraint=eastwest;" vertex="1" parent="wJaIogHRavHg8Ts5eM7x-270">
          <mxGeometry y="176" width="145.79" height="41" as="geometry" />
        </mxCell>
        <mxCell id="wJaIogHRavHg8Ts5eM7x-288" value="" style="shape=partialRectangle;html=1;whiteSpace=wrap;connectable=0;fillColor=none;top=0;left=0;bottom=0;right=0;overflow=hidden;" vertex="1" parent="wJaIogHRavHg8Ts5eM7x-287">
          <mxGeometry width="48" height="41" as="geometry" />
        </mxCell>
        <mxCell id="wJaIogHRavHg8Ts5eM7x-289" value="" style="shape=partialRectangle;html=1;whiteSpace=wrap;connectable=0;fillColor=none;top=0;left=0;bottom=0;right=0;overflow=hidden;" vertex="1" parent="wJaIogHRavHg8Ts5eM7x-287">
          <mxGeometry x="48" width="48" height="41" as="geometry" />
        </mxCell>
        <mxCell id="wJaIogHRavHg8Ts5eM7x-290" value="" style="shape=partialRectangle;html=1;whiteSpace=wrap;connectable=0;fillColor=none;top=0;left=0;bottom=0;right=0;overflow=hidden;" vertex="1" parent="wJaIogHRavHg8Ts5eM7x-287">
          <mxGeometry x="96" width="50" height="41" as="geometry" />
        </mxCell>
        <mxCell id="wJaIogHRavHg8Ts5eM7x-291" value="" style="shape=partialRectangle;html=1;whiteSpace=wrap;collapsible=0;dropTarget=0;pointerEvents=0;fillColor=none;top=0;left=0;bottom=0;right=0;points=[[0,0.5],[1,0.5]];portConstraint=eastwest;" vertex="1" parent="wJaIogHRavHg8Ts5eM7x-270">
          <mxGeometry y="217" width="145.79" height="44" as="geometry" />
        </mxCell>
        <mxCell id="wJaIogHRavHg8Ts5eM7x-292" value="" style="shape=partialRectangle;html=1;whiteSpace=wrap;connectable=0;fillColor=none;top=0;left=0;bottom=0;right=0;overflow=hidden;" vertex="1" parent="wJaIogHRavHg8Ts5eM7x-291">
          <mxGeometry width="48" height="44" as="geometry" />
        </mxCell>
        <mxCell id="wJaIogHRavHg8Ts5eM7x-293" value="" style="shape=partialRectangle;html=1;whiteSpace=wrap;connectable=0;fillColor=none;top=0;left=0;bottom=0;right=0;overflow=hidden;" vertex="1" parent="wJaIogHRavHg8Ts5eM7x-291">
          <mxGeometry x="48" width="48" height="44" as="geometry" />
        </mxCell>
        <mxCell id="wJaIogHRavHg8Ts5eM7x-294" value="" style="shape=partialRectangle;html=1;whiteSpace=wrap;connectable=0;fillColor=none;top=0;left=0;bottom=0;right=0;overflow=hidden;" vertex="1" parent="wJaIogHRavHg8Ts5eM7x-291">
          <mxGeometry x="96" width="50" height="44" as="geometry" />
        </mxCell>
        <mxCell id="wJaIogHRavHg8Ts5eM7x-295" value="" style="shape=partialRectangle;html=1;whiteSpace=wrap;collapsible=0;dropTarget=0;pointerEvents=0;fillColor=none;top=0;left=0;bottom=0;right=0;points=[[0,0.5],[1,0.5]];portConstraint=eastwest;" vertex="1" parent="wJaIogHRavHg8Ts5eM7x-270">
          <mxGeometry y="261" width="145.79" height="43" as="geometry" />
        </mxCell>
        <mxCell id="wJaIogHRavHg8Ts5eM7x-296" value="" style="shape=partialRectangle;html=1;whiteSpace=wrap;connectable=0;fillColor=none;top=0;left=0;bottom=0;right=0;overflow=hidden;" vertex="1" parent="wJaIogHRavHg8Ts5eM7x-295">
          <mxGeometry width="48" height="43" as="geometry" />
        </mxCell>
        <mxCell id="wJaIogHRavHg8Ts5eM7x-297" value="" style="shape=partialRectangle;html=1;whiteSpace=wrap;connectable=0;fillColor=none;top=0;left=0;bottom=0;right=0;overflow=hidden;" vertex="1" parent="wJaIogHRavHg8Ts5eM7x-295">
          <mxGeometry x="48" width="48" height="43" as="geometry" />
        </mxCell>
        <mxCell id="wJaIogHRavHg8Ts5eM7x-298" value="" style="shape=partialRectangle;html=1;whiteSpace=wrap;connectable=0;fillColor=none;top=0;left=0;bottom=0;right=0;overflow=hidden;" vertex="1" parent="wJaIogHRavHg8Ts5eM7x-295">
          <mxGeometry x="96" width="50" height="43" as="geometry" />
        </mxCell>
        <mxCell id="wJaIogHRavHg8Ts5eM7x-299" value="" style="shape=partialRectangle;html=1;whiteSpace=wrap;collapsible=0;dropTarget=0;pointerEvents=0;fillColor=none;top=0;left=0;bottom=0;right=0;points=[[0,0.5],[1,0.5]];portConstraint=eastwest;" vertex="1" parent="wJaIogHRavHg8Ts5eM7x-270">
          <mxGeometry y="304" width="145.79" height="43" as="geometry" />
        </mxCell>
        <mxCell id="wJaIogHRavHg8Ts5eM7x-300" value="" style="shape=partialRectangle;html=1;whiteSpace=wrap;connectable=0;fillColor=none;top=0;left=0;bottom=0;right=0;overflow=hidden;" vertex="1" parent="wJaIogHRavHg8Ts5eM7x-299">
          <mxGeometry width="48" height="43" as="geometry" />
        </mxCell>
        <mxCell id="wJaIogHRavHg8Ts5eM7x-301" value="" style="shape=partialRectangle;html=1;whiteSpace=wrap;connectable=0;fillColor=none;top=0;left=0;bottom=0;right=0;overflow=hidden;" vertex="1" parent="wJaIogHRavHg8Ts5eM7x-299">
          <mxGeometry x="48" width="48" height="43" as="geometry" />
        </mxCell>
        <mxCell id="wJaIogHRavHg8Ts5eM7x-302" value="" style="shape=partialRectangle;html=1;whiteSpace=wrap;connectable=0;fillColor=none;top=0;left=0;bottom=0;right=0;overflow=hidden;" vertex="1" parent="wJaIogHRavHg8Ts5eM7x-299">
          <mxGeometry x="96" width="50" height="43" as="geometry" />
        </mxCell>
        <mxCell id="wJaIogHRavHg8Ts5eM7x-303" value="" style="shape=partialRectangle;html=1;whiteSpace=wrap;collapsible=0;dropTarget=0;pointerEvents=0;fillColor=none;top=0;left=0;bottom=0;right=0;points=[[0,0.5],[1,0.5]];portConstraint=eastwest;" vertex="1" parent="wJaIogHRavHg8Ts5eM7x-270">
          <mxGeometry y="347" width="145.79" height="43" as="geometry" />
        </mxCell>
        <mxCell id="wJaIogHRavHg8Ts5eM7x-304" value="" style="shape=partialRectangle;html=1;whiteSpace=wrap;connectable=0;fillColor=none;top=0;left=0;bottom=0;right=0;overflow=hidden;" vertex="1" parent="wJaIogHRavHg8Ts5eM7x-303">
          <mxGeometry width="48" height="43" as="geometry" />
        </mxCell>
        <mxCell id="wJaIogHRavHg8Ts5eM7x-305" value="" style="shape=partialRectangle;html=1;whiteSpace=wrap;connectable=0;fillColor=none;top=0;left=0;bottom=0;right=0;overflow=hidden;" vertex="1" parent="wJaIogHRavHg8Ts5eM7x-303">
          <mxGeometry x="48" width="48" height="43" as="geometry" />
        </mxCell>
        <mxCell id="wJaIogHRavHg8Ts5eM7x-306" value="" style="shape=partialRectangle;html=1;whiteSpace=wrap;connectable=0;fillColor=none;top=0;left=0;bottom=0;right=0;overflow=hidden;" vertex="1" parent="wJaIogHRavHg8Ts5eM7x-303">
          <mxGeometry x="96" width="50" height="43" as="geometry" />
        </mxCell>
        <mxCell id="wJaIogHRavHg8Ts5eM7x-307" value="" style="shape=table;html=1;whiteSpace=wrap;startSize=0;container=1;collapsible=0;childLayout=tableLayout;strokeWidth=1;gradientColor=#ffffff;opacity=80;rowLines=1;columnLines=1;" vertex="1" parent="wJaIogHRavHg8Ts5eM7x-269">
          <mxGeometry x="145.78999999999996" width="145.79" height="390" as="geometry" />
        </mxCell>
        <mxCell id="wJaIogHRavHg8Ts5eM7x-308" value="" style="shape=partialRectangle;html=1;whiteSpace=wrap;collapsible=0;dropTarget=0;pointerEvents=0;fillColor=none;top=0;left=0;bottom=0;right=0;points=[[0,0.5],[1,0.5]];portConstraint=eastwest;" vertex="1" parent="wJaIogHRavHg8Ts5eM7x-307">
          <mxGeometry width="145.79" height="48" as="geometry" />
        </mxCell>
        <mxCell id="wJaIogHRavHg8Ts5eM7x-309" value="" style="shape=partialRectangle;html=1;whiteSpace=wrap;connectable=0;top=0;left=0;bottom=0;right=0;overflow=hidden;fontColor=#ffffff;strokeColor=#3700CC;opacity=80;fillColor=#FF66FF;" vertex="1" parent="wJaIogHRavHg8Ts5eM7x-308">
          <mxGeometry width="48" height="48" as="geometry" />
        </mxCell>
        <mxCell id="wJaIogHRavHg8Ts5eM7x-310" value="" style="shape=partialRectangle;html=1;whiteSpace=wrap;connectable=0;top=0;left=0;bottom=0;right=0;overflow=hidden;fontColor=#ffffff;strokeColor=#3700CC;opacity=80;fillColor=#FF66FF;" vertex="1" parent="wJaIogHRavHg8Ts5eM7x-308">
          <mxGeometry x="48" width="48" height="48" as="geometry" />
        </mxCell>
        <mxCell id="wJaIogHRavHg8Ts5eM7x-311" value="" style="shape=partialRectangle;html=1;whiteSpace=wrap;connectable=0;top=0;left=0;bottom=0;right=0;overflow=hidden;fontColor=#ffffff;strokeColor=#3700CC;opacity=80;fillColor=#FF66FF;" vertex="1" parent="wJaIogHRavHg8Ts5eM7x-308">
          <mxGeometry x="96" width="50" height="48" as="geometry" />
        </mxCell>
        <mxCell id="wJaIogHRavHg8Ts5eM7x-312" value="" style="shape=partialRectangle;html=1;whiteSpace=wrap;collapsible=0;dropTarget=0;pointerEvents=0;fillColor=none;top=0;left=0;bottom=0;right=0;points=[[0,0.5],[1,0.5]];portConstraint=eastwest;" vertex="1" parent="wJaIogHRavHg8Ts5eM7x-307">
          <mxGeometry y="48" width="145.79" height="40" as="geometry" />
        </mxCell>
        <mxCell id="wJaIogHRavHg8Ts5eM7x-313" value="" style="shape=partialRectangle;html=1;whiteSpace=wrap;connectable=0;fillColor=none;top=0;left=0;bottom=0;right=0;overflow=hidden;" vertex="1" parent="wJaIogHRavHg8Ts5eM7x-312">
          <mxGeometry width="48" height="40" as="geometry" />
        </mxCell>
        <mxCell id="wJaIogHRavHg8Ts5eM7x-314" value="" style="shape=partialRectangle;html=1;whiteSpace=wrap;connectable=0;fillColor=none;top=0;left=0;bottom=0;right=0;overflow=hidden;" vertex="1" parent="wJaIogHRavHg8Ts5eM7x-312">
          <mxGeometry x="48" width="48" height="40" as="geometry" />
        </mxCell>
        <mxCell id="wJaIogHRavHg8Ts5eM7x-315" value="" style="shape=partialRectangle;html=1;whiteSpace=wrap;connectable=0;fillColor=none;top=0;left=0;bottom=0;right=0;overflow=hidden;" vertex="1" parent="wJaIogHRavHg8Ts5eM7x-312">
          <mxGeometry x="96" width="50" height="40" as="geometry" />
        </mxCell>
        <mxCell id="wJaIogHRavHg8Ts5eM7x-316" value="" style="shape=partialRectangle;html=1;whiteSpace=wrap;collapsible=0;dropTarget=0;pointerEvents=0;fillColor=none;top=0;left=0;bottom=0;right=0;points=[[0,0.5],[1,0.5]];portConstraint=eastwest;" vertex="1" parent="wJaIogHRavHg8Ts5eM7x-307">
          <mxGeometry y="88" width="145.79" height="45" as="geometry" />
        </mxCell>
        <mxCell id="wJaIogHRavHg8Ts5eM7x-317" value="" style="shape=partialRectangle;html=1;whiteSpace=wrap;connectable=0;fillColor=none;top=0;left=0;bottom=0;right=0;overflow=hidden;" vertex="1" parent="wJaIogHRavHg8Ts5eM7x-316">
          <mxGeometry width="48" height="45" as="geometry" />
        </mxCell>
        <mxCell id="wJaIogHRavHg8Ts5eM7x-318" value="" style="shape=partialRectangle;html=1;whiteSpace=wrap;connectable=0;fillColor=none;top=0;left=0;bottom=0;right=0;overflow=hidden;" vertex="1" parent="wJaIogHRavHg8Ts5eM7x-316">
          <mxGeometry x="48" width="48" height="45" as="geometry" />
        </mxCell>
        <mxCell id="wJaIogHRavHg8Ts5eM7x-319" value="" style="shape=partialRectangle;html=1;whiteSpace=wrap;connectable=0;fillColor=none;top=0;left=0;bottom=0;right=0;overflow=hidden;" vertex="1" parent="wJaIogHRavHg8Ts5eM7x-316">
          <mxGeometry x="96" width="50" height="45" as="geometry" />
        </mxCell>
        <mxCell id="wJaIogHRavHg8Ts5eM7x-320" value="" style="shape=partialRectangle;html=1;whiteSpace=wrap;collapsible=0;dropTarget=0;pointerEvents=0;fillColor=none;top=0;left=0;bottom=0;right=0;points=[[0,0.5],[1,0.5]];portConstraint=eastwest;" vertex="1" parent="wJaIogHRavHg8Ts5eM7x-307">
          <mxGeometry y="133" width="145.79" height="43" as="geometry" />
        </mxCell>
        <mxCell id="wJaIogHRavHg8Ts5eM7x-321" value="" style="shape=partialRectangle;html=1;whiteSpace=wrap;connectable=0;fillColor=none;top=0;left=0;bottom=0;right=0;overflow=hidden;" vertex="1" parent="wJaIogHRavHg8Ts5eM7x-320">
          <mxGeometry width="48" height="43" as="geometry" />
        </mxCell>
        <mxCell id="wJaIogHRavHg8Ts5eM7x-322" value="" style="shape=partialRectangle;html=1;whiteSpace=wrap;connectable=0;fillColor=none;top=0;left=0;bottom=0;right=0;overflow=hidden;" vertex="1" parent="wJaIogHRavHg8Ts5eM7x-320">
          <mxGeometry x="48" width="48" height="43" as="geometry" />
        </mxCell>
        <mxCell id="wJaIogHRavHg8Ts5eM7x-323" value="" style="shape=partialRectangle;html=1;whiteSpace=wrap;connectable=0;fillColor=none;top=0;left=0;bottom=0;right=0;overflow=hidden;" vertex="1" parent="wJaIogHRavHg8Ts5eM7x-320">
          <mxGeometry x="96" width="50" height="43" as="geometry" />
        </mxCell>
        <mxCell id="wJaIogHRavHg8Ts5eM7x-324" value="" style="shape=partialRectangle;html=1;whiteSpace=wrap;collapsible=0;dropTarget=0;pointerEvents=0;fillColor=none;top=0;left=0;bottom=0;right=0;points=[[0,0.5],[1,0.5]];portConstraint=eastwest;" vertex="1" parent="wJaIogHRavHg8Ts5eM7x-307">
          <mxGeometry y="176" width="145.79" height="41" as="geometry" />
        </mxCell>
        <mxCell id="wJaIogHRavHg8Ts5eM7x-325" value="" style="shape=partialRectangle;html=1;whiteSpace=wrap;connectable=0;fillColor=none;top=0;left=0;bottom=0;right=0;overflow=hidden;" vertex="1" parent="wJaIogHRavHg8Ts5eM7x-324">
          <mxGeometry width="48" height="41" as="geometry" />
        </mxCell>
        <mxCell id="wJaIogHRavHg8Ts5eM7x-326" value="" style="shape=partialRectangle;html=1;whiteSpace=wrap;connectable=0;fillColor=none;top=0;left=0;bottom=0;right=0;overflow=hidden;" vertex="1" parent="wJaIogHRavHg8Ts5eM7x-324">
          <mxGeometry x="48" width="48" height="41" as="geometry" />
        </mxCell>
        <mxCell id="wJaIogHRavHg8Ts5eM7x-327" value="" style="shape=partialRectangle;html=1;whiteSpace=wrap;connectable=0;fillColor=none;top=0;left=0;bottom=0;right=0;overflow=hidden;" vertex="1" parent="wJaIogHRavHg8Ts5eM7x-324">
          <mxGeometry x="96" width="50" height="41" as="geometry" />
        </mxCell>
        <mxCell id="wJaIogHRavHg8Ts5eM7x-328" value="" style="shape=partialRectangle;html=1;whiteSpace=wrap;collapsible=0;dropTarget=0;pointerEvents=0;fillColor=none;top=0;left=0;bottom=0;right=0;points=[[0,0.5],[1,0.5]];portConstraint=eastwest;" vertex="1" parent="wJaIogHRavHg8Ts5eM7x-307">
          <mxGeometry y="217" width="145.79" height="44" as="geometry" />
        </mxCell>
        <mxCell id="wJaIogHRavHg8Ts5eM7x-329" value="" style="shape=partialRectangle;html=1;whiteSpace=wrap;connectable=0;fillColor=none;top=0;left=0;bottom=0;right=0;overflow=hidden;" vertex="1" parent="wJaIogHRavHg8Ts5eM7x-328">
          <mxGeometry width="48" height="44" as="geometry" />
        </mxCell>
        <mxCell id="wJaIogHRavHg8Ts5eM7x-330" value="" style="shape=partialRectangle;html=1;whiteSpace=wrap;connectable=0;fillColor=none;top=0;left=0;bottom=0;right=0;overflow=hidden;" vertex="1" parent="wJaIogHRavHg8Ts5eM7x-328">
          <mxGeometry x="48" width="48" height="44" as="geometry" />
        </mxCell>
        <mxCell id="wJaIogHRavHg8Ts5eM7x-331" value="" style="shape=partialRectangle;html=1;whiteSpace=wrap;connectable=0;fillColor=none;top=0;left=0;bottom=0;right=0;overflow=hidden;" vertex="1" parent="wJaIogHRavHg8Ts5eM7x-328">
          <mxGeometry x="96" width="50" height="44" as="geometry" />
        </mxCell>
        <mxCell id="wJaIogHRavHg8Ts5eM7x-332" value="" style="shape=partialRectangle;html=1;whiteSpace=wrap;collapsible=0;dropTarget=0;pointerEvents=0;fillColor=none;top=0;left=0;bottom=0;right=0;points=[[0,0.5],[1,0.5]];portConstraint=eastwest;" vertex="1" parent="wJaIogHRavHg8Ts5eM7x-307">
          <mxGeometry y="261" width="145.79" height="43" as="geometry" />
        </mxCell>
        <mxCell id="wJaIogHRavHg8Ts5eM7x-333" value="" style="shape=partialRectangle;html=1;whiteSpace=wrap;connectable=0;fillColor=none;top=0;left=0;bottom=0;right=0;overflow=hidden;" vertex="1" parent="wJaIogHRavHg8Ts5eM7x-332">
          <mxGeometry width="48" height="43" as="geometry" />
        </mxCell>
        <mxCell id="wJaIogHRavHg8Ts5eM7x-334" value="" style="shape=partialRectangle;html=1;whiteSpace=wrap;connectable=0;fillColor=none;top=0;left=0;bottom=0;right=0;overflow=hidden;" vertex="1" parent="wJaIogHRavHg8Ts5eM7x-332">
          <mxGeometry x="48" width="48" height="43" as="geometry" />
        </mxCell>
        <mxCell id="wJaIogHRavHg8Ts5eM7x-335" value="" style="shape=partialRectangle;html=1;whiteSpace=wrap;connectable=0;fillColor=none;top=0;left=0;bottom=0;right=0;overflow=hidden;" vertex="1" parent="wJaIogHRavHg8Ts5eM7x-332">
          <mxGeometry x="96" width="50" height="43" as="geometry" />
        </mxCell>
        <mxCell id="wJaIogHRavHg8Ts5eM7x-336" value="" style="shape=partialRectangle;html=1;whiteSpace=wrap;collapsible=0;dropTarget=0;pointerEvents=0;fillColor=none;top=0;left=0;bottom=0;right=0;points=[[0,0.5],[1,0.5]];portConstraint=eastwest;" vertex="1" parent="wJaIogHRavHg8Ts5eM7x-307">
          <mxGeometry y="304" width="145.79" height="43" as="geometry" />
        </mxCell>
        <mxCell id="wJaIogHRavHg8Ts5eM7x-337" value="" style="shape=partialRectangle;html=1;whiteSpace=wrap;connectable=0;fillColor=none;top=0;left=0;bottom=0;right=0;overflow=hidden;" vertex="1" parent="wJaIogHRavHg8Ts5eM7x-336">
          <mxGeometry width="48" height="43" as="geometry" />
        </mxCell>
        <mxCell id="wJaIogHRavHg8Ts5eM7x-338" value="" style="shape=partialRectangle;html=1;whiteSpace=wrap;connectable=0;fillColor=none;top=0;left=0;bottom=0;right=0;overflow=hidden;" vertex="1" parent="wJaIogHRavHg8Ts5eM7x-336">
          <mxGeometry x="48" width="48" height="43" as="geometry" />
        </mxCell>
        <mxCell id="wJaIogHRavHg8Ts5eM7x-339" value="" style="shape=partialRectangle;html=1;whiteSpace=wrap;connectable=0;fillColor=none;top=0;left=0;bottom=0;right=0;overflow=hidden;" vertex="1" parent="wJaIogHRavHg8Ts5eM7x-336">
          <mxGeometry x="96" width="50" height="43" as="geometry" />
        </mxCell>
        <mxCell id="wJaIogHRavHg8Ts5eM7x-340" value="" style="shape=partialRectangle;html=1;whiteSpace=wrap;collapsible=0;dropTarget=0;pointerEvents=0;fillColor=none;top=0;left=0;bottom=0;right=0;points=[[0,0.5],[1,0.5]];portConstraint=eastwest;" vertex="1" parent="wJaIogHRavHg8Ts5eM7x-307">
          <mxGeometry y="347" width="145.79" height="43" as="geometry" />
        </mxCell>
        <mxCell id="wJaIogHRavHg8Ts5eM7x-341" value="" style="shape=partialRectangle;html=1;whiteSpace=wrap;connectable=0;fillColor=none;top=0;left=0;bottom=0;right=0;overflow=hidden;" vertex="1" parent="wJaIogHRavHg8Ts5eM7x-340">
          <mxGeometry width="48" height="43" as="geometry" />
        </mxCell>
        <mxCell id="wJaIogHRavHg8Ts5eM7x-342" value="" style="shape=partialRectangle;html=1;whiteSpace=wrap;connectable=0;fillColor=none;top=0;left=0;bottom=0;right=0;overflow=hidden;" vertex="1" parent="wJaIogHRavHg8Ts5eM7x-340">
          <mxGeometry x="48" width="48" height="43" as="geometry" />
        </mxCell>
        <mxCell id="wJaIogHRavHg8Ts5eM7x-343" value="" style="shape=partialRectangle;html=1;whiteSpace=wrap;connectable=0;fillColor=none;top=0;left=0;bottom=0;right=0;overflow=hidden;" vertex="1" parent="wJaIogHRavHg8Ts5eM7x-340">
          <mxGeometry x="96" width="50" height="43" as="geometry" />
        </mxCell>
        <mxCell id="wJaIogHRavHg8Ts5eM7x-344" value="" style="shape=table;html=1;whiteSpace=wrap;startSize=0;container=1;collapsible=0;childLayout=tableLayout;strokeWidth=1;gradientColor=#ffffff;opacity=80;rowLines=1;columnLines=1;" vertex="1" parent="wJaIogHRavHg8Ts5eM7x-269">
          <mxGeometry x="291.5799999999999" width="145.79" height="390" as="geometry" />
        </mxCell>
        <mxCell id="wJaIogHRavHg8Ts5eM7x-345" value="" style="shape=partialRectangle;html=1;whiteSpace=wrap;collapsible=0;dropTarget=0;pointerEvents=0;fillColor=none;top=0;left=0;bottom=0;right=0;points=[[0,0.5],[1,0.5]];portConstraint=eastwest;" vertex="1" parent="wJaIogHRavHg8Ts5eM7x-344">
          <mxGeometry width="145.79" height="48" as="geometry" />
        </mxCell>
        <mxCell id="wJaIogHRavHg8Ts5eM7x-346" value="" style="shape=partialRectangle;html=1;whiteSpace=wrap;connectable=0;top=0;left=0;bottom=0;right=0;overflow=hidden;fontColor=#ffffff;strokeColor=#3700CC;opacity=80;fillColor=#FF66FF;" vertex="1" parent="wJaIogHRavHg8Ts5eM7x-345">
          <mxGeometry width="48" height="48" as="geometry" />
        </mxCell>
        <mxCell id="wJaIogHRavHg8Ts5eM7x-347" value="" style="shape=partialRectangle;html=1;whiteSpace=wrap;connectable=0;top=0;left=0;bottom=0;right=0;overflow=hidden;fontColor=#ffffff;strokeColor=#3700CC;opacity=80;fillColor=#FF66FF;" vertex="1" parent="wJaIogHRavHg8Ts5eM7x-345">
          <mxGeometry x="48" width="48" height="48" as="geometry" />
        </mxCell>
        <mxCell id="wJaIogHRavHg8Ts5eM7x-348" value="" style="shape=partialRectangle;html=1;whiteSpace=wrap;connectable=0;top=0;left=0;bottom=0;right=0;overflow=hidden;fontColor=#ffffff;strokeColor=#3700CC;opacity=80;fillColor=#FF66FF;" vertex="1" parent="wJaIogHRavHg8Ts5eM7x-345">
          <mxGeometry x="96" width="50" height="48" as="geometry" />
        </mxCell>
        <mxCell id="wJaIogHRavHg8Ts5eM7x-349" value="" style="shape=partialRectangle;html=1;whiteSpace=wrap;collapsible=0;dropTarget=0;pointerEvents=0;fillColor=none;top=0;left=0;bottom=0;right=0;points=[[0,0.5],[1,0.5]];portConstraint=eastwest;" vertex="1" parent="wJaIogHRavHg8Ts5eM7x-344">
          <mxGeometry y="48" width="145.79" height="40" as="geometry" />
        </mxCell>
        <mxCell id="wJaIogHRavHg8Ts5eM7x-350" value="" style="shape=partialRectangle;html=1;whiteSpace=wrap;connectable=0;fillColor=none;top=0;left=0;bottom=0;right=0;overflow=hidden;" vertex="1" parent="wJaIogHRavHg8Ts5eM7x-349">
          <mxGeometry width="48" height="40" as="geometry" />
        </mxCell>
        <mxCell id="wJaIogHRavHg8Ts5eM7x-351" value="" style="shape=partialRectangle;html=1;whiteSpace=wrap;connectable=0;fillColor=none;top=0;left=0;bottom=0;right=0;overflow=hidden;" vertex="1" parent="wJaIogHRavHg8Ts5eM7x-349">
          <mxGeometry x="48" width="48" height="40" as="geometry" />
        </mxCell>
        <mxCell id="wJaIogHRavHg8Ts5eM7x-352" value="" style="shape=partialRectangle;html=1;whiteSpace=wrap;connectable=0;top=0;left=0;bottom=0;right=0;overflow=hidden;fontColor=#ffffff;strokeColor=#3700CC;opacity=80;fillColor=#FF66FF;" vertex="1" parent="wJaIogHRavHg8Ts5eM7x-349">
          <mxGeometry x="96" width="50" height="40" as="geometry" />
        </mxCell>
        <mxCell id="wJaIogHRavHg8Ts5eM7x-353" value="" style="shape=partialRectangle;html=1;whiteSpace=wrap;collapsible=0;dropTarget=0;pointerEvents=0;fillColor=none;top=0;left=0;bottom=0;right=0;points=[[0,0.5],[1,0.5]];portConstraint=eastwest;" vertex="1" parent="wJaIogHRavHg8Ts5eM7x-344">
          <mxGeometry y="88" width="145.79" height="45" as="geometry" />
        </mxCell>
        <mxCell id="wJaIogHRavHg8Ts5eM7x-354" value="" style="shape=partialRectangle;html=1;whiteSpace=wrap;connectable=0;fillColor=none;top=0;left=0;bottom=0;right=0;overflow=hidden;" vertex="1" parent="wJaIogHRavHg8Ts5eM7x-353">
          <mxGeometry width="48" height="45" as="geometry" />
        </mxCell>
        <mxCell id="wJaIogHRavHg8Ts5eM7x-355" value="" style="shape=partialRectangle;html=1;whiteSpace=wrap;connectable=0;fillColor=none;top=0;left=0;bottom=0;right=0;overflow=hidden;" vertex="1" parent="wJaIogHRavHg8Ts5eM7x-353">
          <mxGeometry x="48" width="48" height="45" as="geometry" />
        </mxCell>
        <mxCell id="wJaIogHRavHg8Ts5eM7x-356" value="" style="shape=partialRectangle;html=1;whiteSpace=wrap;connectable=0;top=0;left=0;bottom=0;right=0;overflow=hidden;fontColor=#ffffff;strokeColor=#3700CC;opacity=80;fillColor=#FF66FF;" vertex="1" parent="wJaIogHRavHg8Ts5eM7x-353">
          <mxGeometry x="96" width="50" height="45" as="geometry" />
        </mxCell>
        <mxCell id="wJaIogHRavHg8Ts5eM7x-357" value="" style="shape=partialRectangle;html=1;whiteSpace=wrap;collapsible=0;dropTarget=0;pointerEvents=0;fillColor=none;top=0;left=0;bottom=0;right=0;points=[[0,0.5],[1,0.5]];portConstraint=eastwest;" vertex="1" parent="wJaIogHRavHg8Ts5eM7x-344">
          <mxGeometry y="133" width="145.79" height="43" as="geometry" />
        </mxCell>
        <mxCell id="wJaIogHRavHg8Ts5eM7x-358" value="" style="shape=partialRectangle;html=1;whiteSpace=wrap;connectable=0;fillColor=none;top=0;left=0;bottom=0;right=0;overflow=hidden;" vertex="1" parent="wJaIogHRavHg8Ts5eM7x-357">
          <mxGeometry width="48" height="43" as="geometry" />
        </mxCell>
        <mxCell id="wJaIogHRavHg8Ts5eM7x-359" value="" style="shape=partialRectangle;html=1;whiteSpace=wrap;connectable=0;fillColor=none;top=0;left=0;bottom=0;right=0;overflow=hidden;" vertex="1" parent="wJaIogHRavHg8Ts5eM7x-357">
          <mxGeometry x="48" width="48" height="43" as="geometry" />
        </mxCell>
        <mxCell id="wJaIogHRavHg8Ts5eM7x-360" value="" style="shape=partialRectangle;html=1;whiteSpace=wrap;connectable=0;top=0;left=0;bottom=0;right=0;overflow=hidden;fontColor=#ffffff;strokeColor=#3700CC;opacity=80;fillColor=#FF66FF;" vertex="1" parent="wJaIogHRavHg8Ts5eM7x-357">
          <mxGeometry x="96" width="50" height="43" as="geometry" />
        </mxCell>
        <mxCell id="wJaIogHRavHg8Ts5eM7x-361" value="" style="shape=partialRectangle;html=1;whiteSpace=wrap;collapsible=0;dropTarget=0;pointerEvents=0;fillColor=none;top=0;left=0;bottom=0;right=0;points=[[0,0.5],[1,0.5]];portConstraint=eastwest;" vertex="1" parent="wJaIogHRavHg8Ts5eM7x-344">
          <mxGeometry y="176" width="145.79" height="41" as="geometry" />
        </mxCell>
        <mxCell id="wJaIogHRavHg8Ts5eM7x-362" value="" style="shape=partialRectangle;html=1;whiteSpace=wrap;connectable=0;fillColor=none;top=0;left=0;bottom=0;right=0;overflow=hidden;" vertex="1" parent="wJaIogHRavHg8Ts5eM7x-361">
          <mxGeometry width="48" height="41" as="geometry" />
        </mxCell>
        <mxCell id="wJaIogHRavHg8Ts5eM7x-363" value="" style="shape=partialRectangle;html=1;whiteSpace=wrap;connectable=0;fillColor=none;top=0;left=0;bottom=0;right=0;overflow=hidden;" vertex="1" parent="wJaIogHRavHg8Ts5eM7x-361">
          <mxGeometry x="48" width="48" height="41" as="geometry" />
        </mxCell>
        <mxCell id="wJaIogHRavHg8Ts5eM7x-364" value="" style="shape=partialRectangle;html=1;whiteSpace=wrap;connectable=0;top=0;left=0;bottom=0;right=0;overflow=hidden;fontColor=#ffffff;strokeColor=#3700CC;opacity=80;fillColor=#FF66FF;" vertex="1" parent="wJaIogHRavHg8Ts5eM7x-361">
          <mxGeometry x="96" width="50" height="41" as="geometry" />
        </mxCell>
        <mxCell id="wJaIogHRavHg8Ts5eM7x-365" value="" style="shape=partialRectangle;html=1;whiteSpace=wrap;collapsible=0;dropTarget=0;pointerEvents=0;fillColor=none;top=0;left=0;bottom=0;right=0;points=[[0,0.5],[1,0.5]];portConstraint=eastwest;" vertex="1" parent="wJaIogHRavHg8Ts5eM7x-344">
          <mxGeometry y="217" width="145.79" height="44" as="geometry" />
        </mxCell>
        <mxCell id="wJaIogHRavHg8Ts5eM7x-366" value="" style="shape=partialRectangle;html=1;whiteSpace=wrap;connectable=0;fillColor=none;top=0;left=0;bottom=0;right=0;overflow=hidden;" vertex="1" parent="wJaIogHRavHg8Ts5eM7x-365">
          <mxGeometry width="48" height="44" as="geometry" />
        </mxCell>
        <mxCell id="wJaIogHRavHg8Ts5eM7x-367" value="" style="shape=partialRectangle;html=1;whiteSpace=wrap;connectable=0;fillColor=none;top=0;left=0;bottom=0;right=0;overflow=hidden;" vertex="1" parent="wJaIogHRavHg8Ts5eM7x-365">
          <mxGeometry x="48" width="48" height="44" as="geometry" />
        </mxCell>
        <mxCell id="wJaIogHRavHg8Ts5eM7x-368" value="" style="shape=partialRectangle;html=1;whiteSpace=wrap;connectable=0;top=0;left=0;bottom=0;right=0;overflow=hidden;fontColor=#ffffff;strokeColor=#3700CC;opacity=80;fillColor=#FF66FF;" vertex="1" parent="wJaIogHRavHg8Ts5eM7x-365">
          <mxGeometry x="96" width="50" height="44" as="geometry" />
        </mxCell>
        <mxCell id="wJaIogHRavHg8Ts5eM7x-369" value="" style="shape=partialRectangle;html=1;whiteSpace=wrap;collapsible=0;dropTarget=0;pointerEvents=0;fillColor=none;top=0;left=0;bottom=0;right=0;points=[[0,0.5],[1,0.5]];portConstraint=eastwest;" vertex="1" parent="wJaIogHRavHg8Ts5eM7x-344">
          <mxGeometry y="261" width="145.79" height="43" as="geometry" />
        </mxCell>
        <mxCell id="wJaIogHRavHg8Ts5eM7x-370" value="" style="shape=partialRectangle;html=1;whiteSpace=wrap;connectable=0;fillColor=none;top=0;left=0;bottom=0;right=0;overflow=hidden;" vertex="1" parent="wJaIogHRavHg8Ts5eM7x-369">
          <mxGeometry width="48" height="43" as="geometry" />
        </mxCell>
        <mxCell id="wJaIogHRavHg8Ts5eM7x-371" value="" style="shape=partialRectangle;html=1;whiteSpace=wrap;connectable=0;fillColor=none;top=0;left=0;bottom=0;right=0;overflow=hidden;" vertex="1" parent="wJaIogHRavHg8Ts5eM7x-369">
          <mxGeometry x="48" width="48" height="43" as="geometry" />
        </mxCell>
        <mxCell id="wJaIogHRavHg8Ts5eM7x-372" value="" style="shape=partialRectangle;html=1;whiteSpace=wrap;connectable=0;top=0;left=0;bottom=0;right=0;overflow=hidden;fontColor=#ffffff;strokeColor=#3700CC;opacity=80;fillColor=#FF66FF;" vertex="1" parent="wJaIogHRavHg8Ts5eM7x-369">
          <mxGeometry x="96" width="50" height="43" as="geometry" />
        </mxCell>
        <mxCell id="wJaIogHRavHg8Ts5eM7x-373" value="" style="shape=partialRectangle;html=1;whiteSpace=wrap;collapsible=0;dropTarget=0;pointerEvents=0;fillColor=none;top=0;left=0;bottom=0;right=0;points=[[0,0.5],[1,0.5]];portConstraint=eastwest;" vertex="1" parent="wJaIogHRavHg8Ts5eM7x-344">
          <mxGeometry y="304" width="145.79" height="43" as="geometry" />
        </mxCell>
        <mxCell id="wJaIogHRavHg8Ts5eM7x-374" value="" style="shape=partialRectangle;html=1;whiteSpace=wrap;connectable=0;fillColor=none;top=0;left=0;bottom=0;right=0;overflow=hidden;" vertex="1" parent="wJaIogHRavHg8Ts5eM7x-373">
          <mxGeometry width="48" height="43" as="geometry" />
        </mxCell>
        <mxCell id="wJaIogHRavHg8Ts5eM7x-375" value="" style="shape=partialRectangle;html=1;whiteSpace=wrap;connectable=0;fillColor=none;top=0;left=0;bottom=0;right=0;overflow=hidden;" vertex="1" parent="wJaIogHRavHg8Ts5eM7x-373">
          <mxGeometry x="48" width="48" height="43" as="geometry" />
        </mxCell>
        <mxCell id="wJaIogHRavHg8Ts5eM7x-376" value="" style="shape=partialRectangle;html=1;whiteSpace=wrap;connectable=0;top=0;left=0;bottom=0;right=0;overflow=hidden;fontColor=#ffffff;strokeColor=#3700CC;opacity=80;fillColor=#FF66FF;" vertex="1" parent="wJaIogHRavHg8Ts5eM7x-373">
          <mxGeometry x="96" width="50" height="43" as="geometry" />
        </mxCell>
        <mxCell id="wJaIogHRavHg8Ts5eM7x-377" value="" style="shape=partialRectangle;html=1;whiteSpace=wrap;collapsible=0;dropTarget=0;pointerEvents=0;fillColor=none;top=0;left=0;bottom=0;right=0;points=[[0,0.5],[1,0.5]];portConstraint=eastwest;" vertex="1" parent="wJaIogHRavHg8Ts5eM7x-344">
          <mxGeometry y="347" width="145.79" height="43" as="geometry" />
        </mxCell>
        <mxCell id="wJaIogHRavHg8Ts5eM7x-378" value="" style="shape=partialRectangle;html=1;whiteSpace=wrap;connectable=0;fillColor=none;top=0;left=0;bottom=0;right=0;overflow=hidden;" vertex="1" parent="wJaIogHRavHg8Ts5eM7x-377">
          <mxGeometry width="48" height="43" as="geometry" />
        </mxCell>
        <mxCell id="wJaIogHRavHg8Ts5eM7x-379" value="" style="shape=partialRectangle;html=1;whiteSpace=wrap;connectable=0;fillColor=none;top=0;left=0;bottom=0;right=0;overflow=hidden;" vertex="1" parent="wJaIogHRavHg8Ts5eM7x-377">
          <mxGeometry x="48" width="48" height="43" as="geometry" />
        </mxCell>
        <mxCell id="wJaIogHRavHg8Ts5eM7x-380" value="" style="shape=partialRectangle;html=1;whiteSpace=wrap;connectable=0;top=0;left=0;bottom=0;right=0;overflow=hidden;fontColor=#ffffff;strokeColor=#3700CC;opacity=80;fillColor=#FF66FF;" vertex="1" parent="wJaIogHRavHg8Ts5eM7x-377">
          <mxGeometry x="96" width="50" height="43" as="geometry" />
        </mxCell>
        <mxCell id="wJaIogHRavHg8Ts5eM7x-381" value="" style="group;strokeColor=#000000;fillColor=#FF99CC;" vertex="1" connectable="0" parent="wJaIogHRavHg8Ts5eM7x-269">
          <mxGeometry x="-33" y="22" width="450" height="450" as="geometry" />
        </mxCell>
        <mxCell id="wJaIogHRavHg8Ts5eM7x-382" value="" style="shape=table;html=1;whiteSpace=wrap;startSize=0;container=1;collapsible=0;childLayout=tableLayout;strokeColor=#000000;strokeWidth=1;gradientColor=#ffffff;opacity=80;fillColor=none;" vertex="1" parent="wJaIogHRavHg8Ts5eM7x-381">
          <mxGeometry width="150" height="450" as="geometry" />
        </mxCell>
        <mxCell id="wJaIogHRavHg8Ts5eM7x-383" value="" style="shape=partialRectangle;html=1;whiteSpace=wrap;collapsible=0;dropTarget=0;pointerEvents=0;fillColor=none;top=0;left=0;bottom=0;right=0;points=[[0,0.5],[1,0.5]];portConstraint=eastwest;" vertex="1" parent="wJaIogHRavHg8Ts5eM7x-382">
          <mxGeometry width="150" height="50" as="geometry" />
        </mxCell>
        <mxCell id="wJaIogHRavHg8Ts5eM7x-384" value="&lt;font color=&quot;#ffffff&quot; size=&quot;1&quot;&gt;&lt;b style=&quot;font-size: 25px&quot;&gt;0&lt;/b&gt;&lt;/font&gt;" style="shape=partialRectangle;html=1;whiteSpace=wrap;connectable=0;fillColor=none;top=0;left=0;bottom=0;right=0;overflow=hidden;" vertex="1" parent="wJaIogHRavHg8Ts5eM7x-383">
          <mxGeometry width="50" height="50" as="geometry" />
        </mxCell>
        <mxCell id="wJaIogHRavHg8Ts5eM7x-385" value="&lt;b&gt;&lt;font style=&quot;font-size: 25px&quot; color=&quot;#ffffff&quot;&gt;1&lt;/font&gt;&lt;/b&gt;" style="shape=partialRectangle;html=1;whiteSpace=wrap;connectable=0;fillColor=none;top=0;left=0;bottom=0;right=0;overflow=hidden;" vertex="1" parent="wJaIogHRavHg8Ts5eM7x-383">
          <mxGeometry x="50" width="50" height="50" as="geometry" />
        </mxCell>
        <mxCell id="wJaIogHRavHg8Ts5eM7x-386" value="&lt;font style=&quot;font-size: 25px&quot; color=&quot;#ffffff&quot;&gt;&lt;b&gt;2&lt;/b&gt;&lt;/font&gt;" style="shape=partialRectangle;html=1;whiteSpace=wrap;connectable=0;fillColor=none;top=0;left=0;bottom=0;right=0;overflow=hidden;" vertex="1" parent="wJaIogHRavHg8Ts5eM7x-383">
          <mxGeometry x="100" width="50" height="50" as="geometry" />
        </mxCell>
        <mxCell id="wJaIogHRavHg8Ts5eM7x-387" value="" style="shape=partialRectangle;html=1;whiteSpace=wrap;collapsible=0;dropTarget=0;pointerEvents=0;fillColor=none;top=0;left=0;bottom=0;right=0;points=[[0,0.5],[1,0.5]];portConstraint=eastwest;" vertex="1" parent="wJaIogHRavHg8Ts5eM7x-382">
          <mxGeometry y="50" width="150" height="50" as="geometry" />
        </mxCell>
        <mxCell id="wJaIogHRavHg8Ts5eM7x-388" value="&lt;font style=&quot;font-size: 25px&quot; color=&quot;#ffffff&quot;&gt;-1&lt;/font&gt;" style="shape=partialRectangle;html=1;whiteSpace=wrap;connectable=0;fillColor=none;top=0;left=0;bottom=0;right=0;overflow=hidden;" vertex="1" parent="wJaIogHRavHg8Ts5eM7x-387">
          <mxGeometry width="50" height="50" as="geometry" />
        </mxCell>
        <mxCell id="wJaIogHRavHg8Ts5eM7x-389" value="&lt;font style=&quot;font-size: 25px&quot; color=&quot;#ffffff&quot;&gt;0&lt;/font&gt;" style="shape=partialRectangle;html=1;whiteSpace=wrap;connectable=0;fillColor=none;top=0;left=0;bottom=0;right=0;overflow=hidden;" vertex="1" parent="wJaIogHRavHg8Ts5eM7x-387">
          <mxGeometry x="50" width="50" height="50" as="geometry" />
        </mxCell>
        <mxCell id="wJaIogHRavHg8Ts5eM7x-390" value="&lt;font style=&quot;font-size: 25px&quot; color=&quot;#ffffff&quot;&gt;1&lt;/font&gt;" style="shape=partialRectangle;html=1;whiteSpace=wrap;connectable=0;fillColor=none;top=0;left=0;bottom=0;right=0;overflow=hidden;" vertex="1" parent="wJaIogHRavHg8Ts5eM7x-387">
          <mxGeometry x="100" width="50" height="50" as="geometry" />
        </mxCell>
        <mxCell id="wJaIogHRavHg8Ts5eM7x-391" value="" style="shape=partialRectangle;html=1;whiteSpace=wrap;collapsible=0;dropTarget=0;pointerEvents=0;fillColor=none;top=0;left=0;bottom=0;right=0;points=[[0,0.5],[1,0.5]];portConstraint=eastwest;" vertex="1" parent="wJaIogHRavHg8Ts5eM7x-382">
          <mxGeometry y="100" width="150" height="50" as="geometry" />
        </mxCell>
        <mxCell id="wJaIogHRavHg8Ts5eM7x-392" value="&lt;font style=&quot;font-size: 25px&quot; color=&quot;#ffffff&quot;&gt;-2&lt;/font&gt;" style="shape=partialRectangle;html=1;whiteSpace=wrap;connectable=0;fillColor=none;top=0;left=0;bottom=0;right=0;overflow=hidden;" vertex="1" parent="wJaIogHRavHg8Ts5eM7x-391">
          <mxGeometry width="50" height="50" as="geometry" />
        </mxCell>
        <mxCell id="wJaIogHRavHg8Ts5eM7x-393" value="&lt;font style=&quot;font-size: 25px&quot; color=&quot;#ffffff&quot;&gt;-1&lt;/font&gt;" style="shape=partialRectangle;html=1;whiteSpace=wrap;connectable=0;fillColor=none;top=0;left=0;bottom=0;right=0;overflow=hidden;" vertex="1" parent="wJaIogHRavHg8Ts5eM7x-391">
          <mxGeometry x="50" width="50" height="50" as="geometry" />
        </mxCell>
        <mxCell id="wJaIogHRavHg8Ts5eM7x-394" value="&lt;font style=&quot;font-size: 25px&quot; color=&quot;#ffffff&quot;&gt;0&lt;/font&gt;" style="shape=partialRectangle;html=1;whiteSpace=wrap;connectable=0;fillColor=none;top=0;left=0;bottom=0;right=0;overflow=hidden;" vertex="1" parent="wJaIogHRavHg8Ts5eM7x-391">
          <mxGeometry x="100" width="50" height="50" as="geometry" />
        </mxCell>
        <mxCell id="wJaIogHRavHg8Ts5eM7x-395" value="" style="shape=partialRectangle;html=1;whiteSpace=wrap;collapsible=0;dropTarget=0;pointerEvents=0;fillColor=none;top=0;left=0;bottom=0;right=0;points=[[0,0.5],[1,0.5]];portConstraint=eastwest;" vertex="1" parent="wJaIogHRavHg8Ts5eM7x-382">
          <mxGeometry y="150" width="150" height="50" as="geometry" />
        </mxCell>
        <mxCell id="wJaIogHRavHg8Ts5eM7x-396" value="&lt;font style=&quot;font-size: 25px&quot; color=&quot;#ffffff&quot;&gt;-3&lt;/font&gt;" style="shape=partialRectangle;html=1;whiteSpace=wrap;connectable=0;fillColor=none;top=0;left=0;bottom=0;right=0;overflow=hidden;" vertex="1" parent="wJaIogHRavHg8Ts5eM7x-395">
          <mxGeometry width="50" height="50" as="geometry" />
        </mxCell>
        <mxCell id="wJaIogHRavHg8Ts5eM7x-397" value="&lt;font style=&quot;font-size: 25px&quot; color=&quot;#ffffff&quot;&gt;-2&lt;/font&gt;" style="shape=partialRectangle;html=1;whiteSpace=wrap;connectable=0;fillColor=none;top=0;left=0;bottom=0;right=0;overflow=hidden;" vertex="1" parent="wJaIogHRavHg8Ts5eM7x-395">
          <mxGeometry x="50" width="50" height="50" as="geometry" />
        </mxCell>
        <mxCell id="wJaIogHRavHg8Ts5eM7x-398" value="&lt;font style=&quot;font-size: 25px&quot; color=&quot;#ffffff&quot;&gt;-1&lt;/font&gt;" style="shape=partialRectangle;html=1;whiteSpace=wrap;connectable=0;fillColor=none;top=0;left=0;bottom=0;right=0;overflow=hidden;" vertex="1" parent="wJaIogHRavHg8Ts5eM7x-395">
          <mxGeometry x="100" width="50" height="50" as="geometry" />
        </mxCell>
        <mxCell id="wJaIogHRavHg8Ts5eM7x-399" value="" style="shape=partialRectangle;html=1;whiteSpace=wrap;collapsible=0;dropTarget=0;pointerEvents=0;fillColor=none;top=0;left=0;bottom=0;right=0;points=[[0,0.5],[1,0.5]];portConstraint=eastwest;" vertex="1" parent="wJaIogHRavHg8Ts5eM7x-382">
          <mxGeometry y="200" width="150" height="50" as="geometry" />
        </mxCell>
        <mxCell id="wJaIogHRavHg8Ts5eM7x-400" value="&lt;font style=&quot;font-size: 25px&quot; color=&quot;#ffffff&quot;&gt;&lt;b&gt;-4&lt;/b&gt;&lt;/font&gt;" style="shape=partialRectangle;html=1;whiteSpace=wrap;connectable=0;fillColor=none;top=0;left=0;bottom=0;right=0;overflow=hidden;" vertex="1" parent="wJaIogHRavHg8Ts5eM7x-399">
          <mxGeometry width="50" height="50" as="geometry" />
        </mxCell>
        <mxCell id="wJaIogHRavHg8Ts5eM7x-401" value="&lt;font style=&quot;font-size: 25px&quot; color=&quot;#ffffff&quot;&gt;-3&lt;/font&gt;" style="shape=partialRectangle;html=1;whiteSpace=wrap;connectable=0;fillColor=none;top=0;left=0;bottom=0;right=0;overflow=hidden;" vertex="1" parent="wJaIogHRavHg8Ts5eM7x-399">
          <mxGeometry x="50" width="50" height="50" as="geometry" />
        </mxCell>
        <mxCell id="wJaIogHRavHg8Ts5eM7x-402" value="&lt;font style=&quot;font-size: 25px&quot; color=&quot;#ffffff&quot;&gt;-2&lt;/font&gt;" style="shape=partialRectangle;html=1;whiteSpace=wrap;connectable=0;fillColor=none;top=0;left=0;bottom=0;right=0;overflow=hidden;" vertex="1" parent="wJaIogHRavHg8Ts5eM7x-399">
          <mxGeometry x="100" width="50" height="50" as="geometry" />
        </mxCell>
        <mxCell id="wJaIogHRavHg8Ts5eM7x-403" value="" style="shape=partialRectangle;html=1;whiteSpace=wrap;collapsible=0;dropTarget=0;pointerEvents=0;fillColor=none;top=0;left=0;bottom=0;right=0;points=[[0,0.5],[1,0.5]];portConstraint=eastwest;" vertex="1" parent="wJaIogHRavHg8Ts5eM7x-382">
          <mxGeometry y="250" width="150" height="50" as="geometry" />
        </mxCell>
        <mxCell id="wJaIogHRavHg8Ts5eM7x-404" value="&lt;font style=&quot;font-size: 25px&quot; color=&quot;#ffffff&quot;&gt;-5&lt;/font&gt;" style="shape=partialRectangle;html=1;whiteSpace=wrap;connectable=0;fillColor=none;top=0;left=0;bottom=0;right=0;overflow=hidden;" vertex="1" parent="wJaIogHRavHg8Ts5eM7x-403">
          <mxGeometry width="50" height="50" as="geometry" />
        </mxCell>
        <mxCell id="wJaIogHRavHg8Ts5eM7x-405" value="&lt;font style=&quot;font-size: 25px&quot; color=&quot;#ffffff&quot;&gt;-4&lt;/font&gt;" style="shape=partialRectangle;html=1;whiteSpace=wrap;connectable=0;fillColor=none;top=0;left=0;bottom=0;right=0;overflow=hidden;" vertex="1" parent="wJaIogHRavHg8Ts5eM7x-403">
          <mxGeometry x="50" width="50" height="50" as="geometry" />
        </mxCell>
        <mxCell id="wJaIogHRavHg8Ts5eM7x-406" value="&lt;font style=&quot;font-size: 25px&quot; color=&quot;#ffffff&quot;&gt;-3&lt;/font&gt;" style="shape=partialRectangle;html=1;whiteSpace=wrap;connectable=0;fillColor=none;top=0;left=0;bottom=0;right=0;overflow=hidden;" vertex="1" parent="wJaIogHRavHg8Ts5eM7x-403">
          <mxGeometry x="100" width="50" height="50" as="geometry" />
        </mxCell>
        <mxCell id="wJaIogHRavHg8Ts5eM7x-407" value="" style="shape=partialRectangle;html=1;whiteSpace=wrap;collapsible=0;dropTarget=0;pointerEvents=0;fillColor=none;top=0;left=0;bottom=0;right=0;points=[[0,0.5],[1,0.5]];portConstraint=eastwest;" vertex="1" parent="wJaIogHRavHg8Ts5eM7x-382">
          <mxGeometry y="300" width="150" height="50" as="geometry" />
        </mxCell>
        <mxCell id="wJaIogHRavHg8Ts5eM7x-408" value="&lt;font style=&quot;font-size: 25px&quot; color=&quot;#ffffff&quot;&gt;0&lt;/font&gt;" style="shape=partialRectangle;html=1;whiteSpace=wrap;connectable=0;fillColor=none;top=0;left=0;bottom=0;right=0;overflow=hidden;" vertex="1" parent="wJaIogHRavHg8Ts5eM7x-407">
          <mxGeometry width="50" height="50" as="geometry" />
        </mxCell>
        <mxCell id="wJaIogHRavHg8Ts5eM7x-409" value="&lt;font style=&quot;font-size: 25px&quot; color=&quot;#ffffff&quot;&gt;1&lt;/font&gt;" style="shape=partialRectangle;html=1;whiteSpace=wrap;connectable=0;fillColor=none;top=0;left=0;bottom=0;right=0;overflow=hidden;" vertex="1" parent="wJaIogHRavHg8Ts5eM7x-407">
          <mxGeometry x="50" width="50" height="50" as="geometry" />
        </mxCell>
        <mxCell id="wJaIogHRavHg8Ts5eM7x-410" value="&lt;font style=&quot;font-size: 25px&quot; color=&quot;#ffffff&quot;&gt;2&lt;/font&gt;" style="shape=partialRectangle;html=1;whiteSpace=wrap;connectable=0;fillColor=none;top=0;left=0;bottom=0;right=0;overflow=hidden;" vertex="1" parent="wJaIogHRavHg8Ts5eM7x-407">
          <mxGeometry x="100" width="50" height="50" as="geometry" />
        </mxCell>
        <mxCell id="wJaIogHRavHg8Ts5eM7x-411" value="" style="shape=partialRectangle;html=1;whiteSpace=wrap;collapsible=0;dropTarget=0;pointerEvents=0;fillColor=none;top=0;left=0;bottom=0;right=0;points=[[0,0.5],[1,0.5]];portConstraint=eastwest;" vertex="1" parent="wJaIogHRavHg8Ts5eM7x-382">
          <mxGeometry y="350" width="150" height="50" as="geometry" />
        </mxCell>
        <mxCell id="wJaIogHRavHg8Ts5eM7x-412" value="&lt;font style=&quot;font-size: 25px&quot; color=&quot;#ffffff&quot;&gt;-2&lt;/font&gt;" style="shape=partialRectangle;html=1;whiteSpace=wrap;connectable=0;fillColor=none;top=0;left=0;bottom=0;right=0;overflow=hidden;" vertex="1" parent="wJaIogHRavHg8Ts5eM7x-411">
          <mxGeometry width="50" height="50" as="geometry" />
        </mxCell>
        <mxCell id="wJaIogHRavHg8Ts5eM7x-413" value="&lt;font style=&quot;font-size: 25px&quot; color=&quot;#ffffff&quot;&gt;-1&lt;/font&gt;" style="shape=partialRectangle;html=1;whiteSpace=wrap;connectable=0;fillColor=none;top=0;left=0;bottom=0;right=0;overflow=hidden;" vertex="1" parent="wJaIogHRavHg8Ts5eM7x-411">
          <mxGeometry x="50" width="50" height="50" as="geometry" />
        </mxCell>
        <mxCell id="wJaIogHRavHg8Ts5eM7x-414" value="&lt;font style=&quot;font-size: 25px&quot; color=&quot;#ffffff&quot;&gt;0&lt;/font&gt;" style="shape=partialRectangle;html=1;whiteSpace=wrap;connectable=0;fillColor=none;top=0;left=0;bottom=0;right=0;overflow=hidden;" vertex="1" parent="wJaIogHRavHg8Ts5eM7x-411">
          <mxGeometry x="100" width="50" height="50" as="geometry" />
        </mxCell>
        <mxCell id="wJaIogHRavHg8Ts5eM7x-415" value="" style="shape=partialRectangle;html=1;whiteSpace=wrap;collapsible=0;dropTarget=0;pointerEvents=0;fillColor=none;top=0;left=0;bottom=0;right=0;points=[[0,0.5],[1,0.5]];portConstraint=eastwest;" vertex="1" parent="wJaIogHRavHg8Ts5eM7x-382">
          <mxGeometry y="400" width="150" height="50" as="geometry" />
        </mxCell>
        <mxCell id="wJaIogHRavHg8Ts5eM7x-416" value="&lt;font style=&quot;font-size: 25px&quot; color=&quot;#ffffff&quot;&gt;-4&lt;/font&gt;" style="shape=partialRectangle;html=1;whiteSpace=wrap;connectable=0;fillColor=none;top=0;left=0;bottom=0;right=0;overflow=hidden;" vertex="1" parent="wJaIogHRavHg8Ts5eM7x-415">
          <mxGeometry width="50" height="50" as="geometry" />
        </mxCell>
        <mxCell id="wJaIogHRavHg8Ts5eM7x-417" value="&lt;font style=&quot;font-size: 25px&quot; color=&quot;#ffffff&quot;&gt;-3&lt;/font&gt;" style="shape=partialRectangle;html=1;whiteSpace=wrap;connectable=0;fillColor=none;top=0;left=0;bottom=0;right=0;overflow=hidden;" vertex="1" parent="wJaIogHRavHg8Ts5eM7x-415">
          <mxGeometry x="50" width="50" height="50" as="geometry" />
        </mxCell>
        <mxCell id="wJaIogHRavHg8Ts5eM7x-418" value="&lt;font style=&quot;font-size: 25px&quot; color=&quot;#ffffff&quot;&gt;-2&lt;/font&gt;" style="shape=partialRectangle;html=1;whiteSpace=wrap;connectable=0;fillColor=none;top=0;left=0;bottom=0;right=0;overflow=hidden;" vertex="1" parent="wJaIogHRavHg8Ts5eM7x-415">
          <mxGeometry x="100" width="50" height="50" as="geometry" />
        </mxCell>
        <mxCell id="wJaIogHRavHg8Ts5eM7x-419" value="" style="shape=table;html=1;whiteSpace=wrap;startSize=0;container=1;collapsible=0;childLayout=tableLayout;strokeColor=#000000;strokeWidth=1;gradientColor=#ffffff;opacity=80;fillColor=none;" vertex="1" parent="wJaIogHRavHg8Ts5eM7x-381">
          <mxGeometry x="150" width="150" height="450" as="geometry" />
        </mxCell>
        <mxCell id="wJaIogHRavHg8Ts5eM7x-420" value="" style="shape=partialRectangle;html=1;whiteSpace=wrap;collapsible=0;dropTarget=0;pointerEvents=0;fillColor=none;top=0;left=0;bottom=0;right=0;points=[[0,0.5],[1,0.5]];portConstraint=eastwest;" vertex="1" parent="wJaIogHRavHg8Ts5eM7x-419">
          <mxGeometry width="150" height="50" as="geometry" />
        </mxCell>
        <mxCell id="wJaIogHRavHg8Ts5eM7x-421" value="&lt;font style=&quot;font-size: 25px&quot; color=&quot;#ffffff&quot;&gt;3&lt;/font&gt;" style="shape=partialRectangle;html=1;whiteSpace=wrap;connectable=0;fillColor=none;top=0;left=0;bottom=0;right=0;overflow=hidden;" vertex="1" parent="wJaIogHRavHg8Ts5eM7x-420">
          <mxGeometry width="50" height="50" as="geometry" />
        </mxCell>
        <mxCell id="wJaIogHRavHg8Ts5eM7x-422" value="&lt;font style=&quot;font-size: 25px&quot; color=&quot;#ffffff&quot;&gt;4&lt;/font&gt;" style="shape=partialRectangle;html=1;whiteSpace=wrap;connectable=0;fillColor=none;top=0;left=0;bottom=0;right=0;overflow=hidden;" vertex="1" parent="wJaIogHRavHg8Ts5eM7x-420">
          <mxGeometry x="50" width="50" height="50" as="geometry" />
        </mxCell>
        <mxCell id="wJaIogHRavHg8Ts5eM7x-423" value="&lt;font style=&quot;font-size: 25px&quot; color=&quot;#ffffff&quot;&gt;5&lt;/font&gt;" style="shape=partialRectangle;html=1;whiteSpace=wrap;connectable=0;fillColor=none;top=0;left=0;bottom=0;right=0;overflow=hidden;" vertex="1" parent="wJaIogHRavHg8Ts5eM7x-420">
          <mxGeometry x="100" width="50" height="50" as="geometry" />
        </mxCell>
        <mxCell id="wJaIogHRavHg8Ts5eM7x-424" value="" style="shape=partialRectangle;html=1;whiteSpace=wrap;collapsible=0;dropTarget=0;pointerEvents=0;fillColor=none;top=0;left=0;bottom=0;right=0;points=[[0,0.5],[1,0.5]];portConstraint=eastwest;" vertex="1" parent="wJaIogHRavHg8Ts5eM7x-419">
          <mxGeometry y="50" width="150" height="50" as="geometry" />
        </mxCell>
        <mxCell id="wJaIogHRavHg8Ts5eM7x-425" value="&lt;font style=&quot;font-size: 25px&quot; color=&quot;#ffffff&quot;&gt;&lt;b&gt;2&lt;/b&gt;&lt;/font&gt;" style="shape=partialRectangle;html=1;whiteSpace=wrap;connectable=0;fillColor=none;top=0;left=0;bottom=0;right=0;overflow=hidden;" vertex="1" parent="wJaIogHRavHg8Ts5eM7x-424">
          <mxGeometry width="50" height="50" as="geometry" />
        </mxCell>
        <mxCell id="wJaIogHRavHg8Ts5eM7x-426" value="&lt;font style=&quot;font-size: 25px&quot; color=&quot;#ffffff&quot;&gt;3&lt;/font&gt;" style="shape=partialRectangle;html=1;whiteSpace=wrap;connectable=0;fillColor=none;top=0;left=0;bottom=0;right=0;overflow=hidden;" vertex="1" parent="wJaIogHRavHg8Ts5eM7x-424">
          <mxGeometry x="50" width="50" height="50" as="geometry" />
        </mxCell>
        <mxCell id="wJaIogHRavHg8Ts5eM7x-427" value="&lt;font style=&quot;font-size: 25px&quot; color=&quot;#ffffff&quot;&gt;4&lt;/font&gt;" style="shape=partialRectangle;html=1;whiteSpace=wrap;connectable=0;fillColor=none;top=0;left=0;bottom=0;right=0;overflow=hidden;" vertex="1" parent="wJaIogHRavHg8Ts5eM7x-424">
          <mxGeometry x="100" width="50" height="50" as="geometry" />
        </mxCell>
        <mxCell id="wJaIogHRavHg8Ts5eM7x-428" value="" style="shape=partialRectangle;html=1;whiteSpace=wrap;collapsible=0;dropTarget=0;pointerEvents=0;fillColor=none;top=0;left=0;bottom=0;right=0;points=[[0,0.5],[1,0.5]];portConstraint=eastwest;" vertex="1" parent="wJaIogHRavHg8Ts5eM7x-419">
          <mxGeometry y="100" width="150" height="50" as="geometry" />
        </mxCell>
        <mxCell id="wJaIogHRavHg8Ts5eM7x-429" value="&lt;font style=&quot;font-size: 25px&quot; color=&quot;#ffffff&quot;&gt;1&lt;/font&gt;" style="shape=partialRectangle;html=1;whiteSpace=wrap;connectable=0;fillColor=none;top=0;left=0;bottom=0;right=0;overflow=hidden;" vertex="1" parent="wJaIogHRavHg8Ts5eM7x-428">
          <mxGeometry width="50" height="50" as="geometry" />
        </mxCell>
        <mxCell id="wJaIogHRavHg8Ts5eM7x-430" value="&lt;font style=&quot;font-size: 25px&quot; color=&quot;#ffffff&quot;&gt;2&lt;/font&gt;" style="shape=partialRectangle;html=1;whiteSpace=wrap;connectable=0;fillColor=none;top=0;left=0;bottom=0;right=0;overflow=hidden;" vertex="1" parent="wJaIogHRavHg8Ts5eM7x-428">
          <mxGeometry x="50" width="50" height="50" as="geometry" />
        </mxCell>
        <mxCell id="wJaIogHRavHg8Ts5eM7x-431" value="&lt;font style=&quot;font-size: 25px&quot; color=&quot;#ffffff&quot;&gt;3&lt;/font&gt;" style="shape=partialRectangle;html=1;whiteSpace=wrap;connectable=0;fillColor=none;top=0;left=0;bottom=0;right=0;overflow=hidden;" vertex="1" parent="wJaIogHRavHg8Ts5eM7x-428">
          <mxGeometry x="100" width="50" height="50" as="geometry" />
        </mxCell>
        <mxCell id="wJaIogHRavHg8Ts5eM7x-432" value="" style="shape=partialRectangle;html=1;whiteSpace=wrap;collapsible=0;dropTarget=0;pointerEvents=0;fillColor=none;top=0;left=0;bottom=0;right=0;points=[[0,0.5],[1,0.5]];portConstraint=eastwest;" vertex="1" parent="wJaIogHRavHg8Ts5eM7x-419">
          <mxGeometry y="150" width="150" height="50" as="geometry" />
        </mxCell>
        <mxCell id="wJaIogHRavHg8Ts5eM7x-433" value="&lt;font style=&quot;font-size: 25px&quot; color=&quot;#ffffff&quot;&gt;0&lt;/font&gt;" style="shape=partialRectangle;html=1;whiteSpace=wrap;connectable=0;fillColor=none;top=0;left=0;bottom=0;right=0;overflow=hidden;" vertex="1" parent="wJaIogHRavHg8Ts5eM7x-432">
          <mxGeometry width="50" height="50" as="geometry" />
        </mxCell>
        <mxCell id="wJaIogHRavHg8Ts5eM7x-434" value="&lt;font style=&quot;font-size: 25px&quot; color=&quot;#ffffff&quot;&gt;1&lt;/font&gt;" style="shape=partialRectangle;html=1;whiteSpace=wrap;connectable=0;fillColor=none;top=0;left=0;bottom=0;right=0;overflow=hidden;" vertex="1" parent="wJaIogHRavHg8Ts5eM7x-432">
          <mxGeometry x="50" width="50" height="50" as="geometry" />
        </mxCell>
        <mxCell id="wJaIogHRavHg8Ts5eM7x-435" value="&lt;font style=&quot;font-size: 25px&quot; color=&quot;#ffffff&quot;&gt;2&lt;/font&gt;" style="shape=partialRectangle;html=1;whiteSpace=wrap;connectable=0;fillColor=none;top=0;left=0;bottom=0;right=0;overflow=hidden;" vertex="1" parent="wJaIogHRavHg8Ts5eM7x-432">
          <mxGeometry x="100" width="50" height="50" as="geometry" />
        </mxCell>
        <mxCell id="wJaIogHRavHg8Ts5eM7x-436" value="" style="shape=partialRectangle;html=1;whiteSpace=wrap;collapsible=0;dropTarget=0;pointerEvents=0;fillColor=none;top=0;left=0;bottom=0;right=0;points=[[0,0.5],[1,0.5]];portConstraint=eastwest;" vertex="1" parent="wJaIogHRavHg8Ts5eM7x-419">
          <mxGeometry y="200" width="150" height="50" as="geometry" />
        </mxCell>
        <mxCell id="wJaIogHRavHg8Ts5eM7x-437" value="&lt;font style=&quot;font-size: 25px&quot; color=&quot;#ffffff&quot;&gt;-1&lt;/font&gt;" style="shape=partialRectangle;html=1;whiteSpace=wrap;connectable=0;fillColor=none;top=0;left=0;bottom=0;right=0;overflow=hidden;" vertex="1" parent="wJaIogHRavHg8Ts5eM7x-436">
          <mxGeometry width="50" height="50" as="geometry" />
        </mxCell>
        <mxCell id="wJaIogHRavHg8Ts5eM7x-438" value="&lt;font style=&quot;font-size: 25px&quot; color=&quot;#ffffff&quot;&gt;0&lt;/font&gt;" style="shape=partialRectangle;html=1;whiteSpace=wrap;connectable=0;fillColor=none;top=0;left=0;bottom=0;right=0;overflow=hidden;" vertex="1" parent="wJaIogHRavHg8Ts5eM7x-436">
          <mxGeometry x="50" width="50" height="50" as="geometry" />
        </mxCell>
        <mxCell id="wJaIogHRavHg8Ts5eM7x-439" value="&lt;span style=&quot;color: rgb(255 , 255 , 255) ; font-size: 25px&quot;&gt;1&lt;/span&gt;" style="shape=partialRectangle;html=1;whiteSpace=wrap;connectable=0;fillColor=none;top=0;left=0;bottom=0;right=0;overflow=hidden;" vertex="1" parent="wJaIogHRavHg8Ts5eM7x-436">
          <mxGeometry x="100" width="50" height="50" as="geometry" />
        </mxCell>
        <mxCell id="wJaIogHRavHg8Ts5eM7x-440" value="" style="shape=partialRectangle;html=1;whiteSpace=wrap;collapsible=0;dropTarget=0;pointerEvents=0;fillColor=none;top=0;left=0;bottom=0;right=0;points=[[0,0.5],[1,0.5]];portConstraint=eastwest;" vertex="1" parent="wJaIogHRavHg8Ts5eM7x-419">
          <mxGeometry y="250" width="150" height="50" as="geometry" />
        </mxCell>
        <mxCell id="wJaIogHRavHg8Ts5eM7x-441" value="&lt;font style=&quot;font-size: 25px&quot; color=&quot;#ffffff&quot;&gt;-2&lt;/font&gt;" style="shape=partialRectangle;html=1;whiteSpace=wrap;connectable=0;fillColor=none;top=0;left=0;bottom=0;right=0;overflow=hidden;" vertex="1" parent="wJaIogHRavHg8Ts5eM7x-440">
          <mxGeometry width="50" height="50" as="geometry" />
        </mxCell>
        <mxCell id="wJaIogHRavHg8Ts5eM7x-442" value="&lt;font style=&quot;font-size: 25px&quot; color=&quot;#ffffff&quot;&gt;-1&lt;/font&gt;" style="shape=partialRectangle;html=1;whiteSpace=wrap;connectable=0;fillColor=none;top=0;left=0;bottom=0;right=0;overflow=hidden;" vertex="1" parent="wJaIogHRavHg8Ts5eM7x-440">
          <mxGeometry x="50" width="50" height="50" as="geometry" />
        </mxCell>
        <mxCell id="wJaIogHRavHg8Ts5eM7x-443" value="&lt;font style=&quot;font-size: 25px&quot; color=&quot;#ffffff&quot;&gt;0&lt;/font&gt;" style="shape=partialRectangle;html=1;whiteSpace=wrap;connectable=0;fillColor=none;top=0;left=0;bottom=0;right=0;overflow=hidden;" vertex="1" parent="wJaIogHRavHg8Ts5eM7x-440">
          <mxGeometry x="100" width="50" height="50" as="geometry" />
        </mxCell>
        <mxCell id="wJaIogHRavHg8Ts5eM7x-444" value="" style="shape=partialRectangle;html=1;whiteSpace=wrap;collapsible=0;dropTarget=0;pointerEvents=0;fillColor=none;top=0;left=0;bottom=0;right=0;points=[[0,0.5],[1,0.5]];portConstraint=eastwest;" vertex="1" parent="wJaIogHRavHg8Ts5eM7x-419">
          <mxGeometry y="300" width="150" height="50" as="geometry" />
        </mxCell>
        <mxCell id="wJaIogHRavHg8Ts5eM7x-445" value="&lt;font style=&quot;font-size: 25px&quot; color=&quot;#ffffff&quot;&gt;&lt;b&gt;3&lt;/b&gt;&lt;/font&gt;" style="shape=partialRectangle;html=1;whiteSpace=wrap;connectable=0;fillColor=none;top=0;left=0;bottom=0;right=0;overflow=hidden;" vertex="1" parent="wJaIogHRavHg8Ts5eM7x-444">
          <mxGeometry width="50" height="50" as="geometry" />
        </mxCell>
        <mxCell id="wJaIogHRavHg8Ts5eM7x-446" value="&lt;font style=&quot;font-size: 25px&quot; color=&quot;#ffffff&quot;&gt;4&lt;/font&gt;" style="shape=partialRectangle;html=1;whiteSpace=wrap;connectable=0;fillColor=none;top=0;left=0;bottom=0;right=0;overflow=hidden;" vertex="1" parent="wJaIogHRavHg8Ts5eM7x-444">
          <mxGeometry x="50" width="50" height="50" as="geometry" />
        </mxCell>
        <mxCell id="wJaIogHRavHg8Ts5eM7x-447" value="&lt;font style=&quot;font-size: 25px&quot; color=&quot;#ffffff&quot;&gt;5&lt;/font&gt;" style="shape=partialRectangle;html=1;whiteSpace=wrap;connectable=0;fillColor=none;top=0;left=0;bottom=0;right=0;overflow=hidden;" vertex="1" parent="wJaIogHRavHg8Ts5eM7x-444">
          <mxGeometry x="100" width="50" height="50" as="geometry" />
        </mxCell>
        <mxCell id="wJaIogHRavHg8Ts5eM7x-448" value="" style="shape=partialRectangle;html=1;whiteSpace=wrap;collapsible=0;dropTarget=0;pointerEvents=0;fillColor=none;top=0;left=0;bottom=0;right=0;points=[[0,0.5],[1,0.5]];portConstraint=eastwest;" vertex="1" parent="wJaIogHRavHg8Ts5eM7x-419">
          <mxGeometry y="350" width="150" height="50" as="geometry" />
        </mxCell>
        <mxCell id="wJaIogHRavHg8Ts5eM7x-449" value="&lt;font style=&quot;font-size: 25px&quot; color=&quot;#ffffff&quot;&gt;1&lt;/font&gt;" style="shape=partialRectangle;html=1;whiteSpace=wrap;connectable=0;fillColor=none;top=0;left=0;bottom=0;right=0;overflow=hidden;" vertex="1" parent="wJaIogHRavHg8Ts5eM7x-448">
          <mxGeometry width="50" height="50" as="geometry" />
        </mxCell>
        <mxCell id="wJaIogHRavHg8Ts5eM7x-450" value="&lt;font style=&quot;font-size: 25px&quot; color=&quot;#ffffff&quot;&gt;2&lt;/font&gt;" style="shape=partialRectangle;html=1;whiteSpace=wrap;connectable=0;fillColor=none;top=0;left=0;bottom=0;right=0;overflow=hidden;" vertex="1" parent="wJaIogHRavHg8Ts5eM7x-448">
          <mxGeometry x="50" width="50" height="50" as="geometry" />
        </mxCell>
        <mxCell id="wJaIogHRavHg8Ts5eM7x-451" value="&lt;font style=&quot;font-size: 25px&quot; color=&quot;#ffffff&quot;&gt;3&lt;/font&gt;" style="shape=partialRectangle;html=1;whiteSpace=wrap;connectable=0;fillColor=none;top=0;left=0;bottom=0;right=0;overflow=hidden;" vertex="1" parent="wJaIogHRavHg8Ts5eM7x-448">
          <mxGeometry x="100" width="50" height="50" as="geometry" />
        </mxCell>
        <mxCell id="wJaIogHRavHg8Ts5eM7x-452" value="" style="shape=partialRectangle;html=1;whiteSpace=wrap;collapsible=0;dropTarget=0;pointerEvents=0;fillColor=none;top=0;left=0;bottom=0;right=0;points=[[0,0.5],[1,0.5]];portConstraint=eastwest;" vertex="1" parent="wJaIogHRavHg8Ts5eM7x-419">
          <mxGeometry y="400" width="150" height="50" as="geometry" />
        </mxCell>
        <mxCell id="wJaIogHRavHg8Ts5eM7x-453" value="&lt;font style=&quot;font-size: 25px&quot; color=&quot;#ffffff&quot;&gt;-1&lt;/font&gt;" style="shape=partialRectangle;html=1;whiteSpace=wrap;connectable=0;fillColor=none;top=0;left=0;bottom=0;right=0;overflow=hidden;" vertex="1" parent="wJaIogHRavHg8Ts5eM7x-452">
          <mxGeometry width="50" height="50" as="geometry" />
        </mxCell>
        <mxCell id="wJaIogHRavHg8Ts5eM7x-454" value="&lt;font style=&quot;font-size: 25px&quot; color=&quot;#ffffff&quot;&gt;0&lt;/font&gt;" style="shape=partialRectangle;html=1;whiteSpace=wrap;connectable=0;fillColor=none;top=0;left=0;bottom=0;right=0;overflow=hidden;" vertex="1" parent="wJaIogHRavHg8Ts5eM7x-452">
          <mxGeometry x="50" width="50" height="50" as="geometry" />
        </mxCell>
        <mxCell id="wJaIogHRavHg8Ts5eM7x-455" value="&lt;font style=&quot;font-size: 25px&quot; color=&quot;#ffffff&quot;&gt;1&lt;/font&gt;" style="shape=partialRectangle;html=1;whiteSpace=wrap;connectable=0;fillColor=none;top=0;left=0;bottom=0;right=0;overflow=hidden;" vertex="1" parent="wJaIogHRavHg8Ts5eM7x-452">
          <mxGeometry x="100" width="50" height="50" as="geometry" />
        </mxCell>
        <mxCell id="wJaIogHRavHg8Ts5eM7x-456" value="" style="shape=table;html=1;whiteSpace=wrap;startSize=0;container=1;collapsible=0;childLayout=tableLayout;strokeColor=#000000;strokeWidth=1;gradientColor=#ffffff;opacity=80;fillColor=none;" vertex="1" parent="wJaIogHRavHg8Ts5eM7x-381">
          <mxGeometry x="300" width="150" height="450" as="geometry" />
        </mxCell>
        <mxCell id="wJaIogHRavHg8Ts5eM7x-457" value="" style="shape=partialRectangle;html=1;whiteSpace=wrap;collapsible=0;dropTarget=0;pointerEvents=0;fillColor=none;top=0;left=0;bottom=0;right=0;points=[[0,0.5],[1,0.5]];portConstraint=eastwest;" vertex="1" parent="wJaIogHRavHg8Ts5eM7x-456">
          <mxGeometry width="150" height="50" as="geometry" />
        </mxCell>
        <mxCell id="wJaIogHRavHg8Ts5eM7x-458" value="&lt;font style=&quot;font-size: 25px&quot; color=&quot;#ffffff&quot;&gt;0&lt;/font&gt;" style="shape=partialRectangle;html=1;whiteSpace=wrap;connectable=0;fillColor=none;top=0;left=0;bottom=0;right=0;overflow=hidden;" vertex="1" parent="wJaIogHRavHg8Ts5eM7x-457">
          <mxGeometry width="50" height="50" as="geometry" />
        </mxCell>
        <mxCell id="wJaIogHRavHg8Ts5eM7x-459" value="&lt;font style=&quot;font-size: 25px&quot; color=&quot;#ffffff&quot;&gt;2&lt;/font&gt;" style="shape=partialRectangle;html=1;whiteSpace=wrap;connectable=0;fillColor=none;top=0;left=0;bottom=0;right=0;overflow=hidden;" vertex="1" parent="wJaIogHRavHg8Ts5eM7x-457">
          <mxGeometry x="50" width="50" height="50" as="geometry" />
        </mxCell>
        <mxCell id="wJaIogHRavHg8Ts5eM7x-460" value="&lt;b&gt;&lt;font style=&quot;font-size: 25px&quot; color=&quot;#ffffff&quot;&gt;4&lt;/font&gt;&lt;/b&gt;" style="shape=partialRectangle;html=1;whiteSpace=wrap;connectable=0;fillColor=none;top=0;left=0;bottom=0;right=0;overflow=hidden;" vertex="1" parent="wJaIogHRavHg8Ts5eM7x-457">
          <mxGeometry x="100" width="50" height="50" as="geometry" />
        </mxCell>
        <mxCell id="wJaIogHRavHg8Ts5eM7x-461" value="" style="shape=partialRectangle;html=1;whiteSpace=wrap;collapsible=0;dropTarget=0;pointerEvents=0;fillColor=none;top=0;left=0;bottom=0;right=0;points=[[0,0.5],[1,0.5]];portConstraint=eastwest;" vertex="1" parent="wJaIogHRavHg8Ts5eM7x-456">
          <mxGeometry y="50" width="150" height="50" as="geometry" />
        </mxCell>
        <mxCell id="wJaIogHRavHg8Ts5eM7x-462" value="&lt;font style=&quot;font-size: 25px&quot; color=&quot;#ffffff&quot;&gt;-1&lt;/font&gt;" style="shape=partialRectangle;html=1;whiteSpace=wrap;connectable=0;fillColor=none;top=0;left=0;bottom=0;right=0;overflow=hidden;" vertex="1" parent="wJaIogHRavHg8Ts5eM7x-461">
          <mxGeometry width="50" height="50" as="geometry" />
        </mxCell>
        <mxCell id="wJaIogHRavHg8Ts5eM7x-463" value="&lt;font style=&quot;font-size: 25px&quot; color=&quot;#ffffff&quot;&gt;1&lt;/font&gt;" style="shape=partialRectangle;html=1;whiteSpace=wrap;connectable=0;fillColor=none;top=0;left=0;bottom=0;right=0;overflow=hidden;" vertex="1" parent="wJaIogHRavHg8Ts5eM7x-461">
          <mxGeometry x="50" width="50" height="50" as="geometry" />
        </mxCell>
        <mxCell id="wJaIogHRavHg8Ts5eM7x-464" value="&lt;font style=&quot;font-size: 25px&quot; color=&quot;#ffffff&quot;&gt;3&lt;/font&gt;" style="shape=partialRectangle;html=1;whiteSpace=wrap;connectable=0;fillColor=none;top=0;left=0;bottom=0;right=0;overflow=hidden;" vertex="1" parent="wJaIogHRavHg8Ts5eM7x-461">
          <mxGeometry x="100" width="50" height="50" as="geometry" />
        </mxCell>
        <mxCell id="wJaIogHRavHg8Ts5eM7x-465" value="" style="shape=partialRectangle;html=1;whiteSpace=wrap;collapsible=0;dropTarget=0;pointerEvents=0;fillColor=none;top=0;left=0;bottom=0;right=0;points=[[0,0.5],[1,0.5]];portConstraint=eastwest;" vertex="1" parent="wJaIogHRavHg8Ts5eM7x-456">
          <mxGeometry y="100" width="150" height="50" as="geometry" />
        </mxCell>
        <mxCell id="wJaIogHRavHg8Ts5eM7x-466" value="&lt;font style=&quot;font-size: 25px&quot; color=&quot;#ffffff&quot;&gt;-2&lt;/font&gt;" style="shape=partialRectangle;html=1;whiteSpace=wrap;connectable=0;fillColor=none;top=0;left=0;bottom=0;right=0;overflow=hidden;" vertex="1" parent="wJaIogHRavHg8Ts5eM7x-465">
          <mxGeometry width="50" height="50" as="geometry" />
        </mxCell>
        <mxCell id="wJaIogHRavHg8Ts5eM7x-467" value="&lt;font style=&quot;font-size: 25px&quot; color=&quot;#ffffff&quot;&gt;0&lt;/font&gt;" style="shape=partialRectangle;html=1;whiteSpace=wrap;connectable=0;fillColor=none;top=0;left=0;bottom=0;right=0;overflow=hidden;" vertex="1" parent="wJaIogHRavHg8Ts5eM7x-465">
          <mxGeometry x="50" width="50" height="50" as="geometry" />
        </mxCell>
        <mxCell id="wJaIogHRavHg8Ts5eM7x-468" value="&lt;font style=&quot;font-size: 25px&quot; color=&quot;#ffffff&quot;&gt;2&lt;/font&gt;" style="shape=partialRectangle;html=1;whiteSpace=wrap;connectable=0;fillColor=none;top=0;left=0;bottom=0;right=0;overflow=hidden;" vertex="1" parent="wJaIogHRavHg8Ts5eM7x-465">
          <mxGeometry x="100" width="50" height="50" as="geometry" />
        </mxCell>
        <mxCell id="wJaIogHRavHg8Ts5eM7x-469" value="" style="shape=partialRectangle;html=1;whiteSpace=wrap;collapsible=0;dropTarget=0;pointerEvents=0;fillColor=none;top=0;left=0;bottom=0;right=0;points=[[0,0.5],[1,0.5]];portConstraint=eastwest;" vertex="1" parent="wJaIogHRavHg8Ts5eM7x-456">
          <mxGeometry y="150" width="150" height="50" as="geometry" />
        </mxCell>
        <mxCell id="wJaIogHRavHg8Ts5eM7x-470" value="&lt;font style=&quot;font-size: 25px&quot; color=&quot;#ffffff&quot;&gt;-3&lt;/font&gt;" style="shape=partialRectangle;html=1;whiteSpace=wrap;connectable=0;fillColor=none;top=0;left=0;bottom=0;right=0;overflow=hidden;" vertex="1" parent="wJaIogHRavHg8Ts5eM7x-469">
          <mxGeometry width="50" height="50" as="geometry" />
        </mxCell>
        <mxCell id="wJaIogHRavHg8Ts5eM7x-471" value="&lt;font style=&quot;font-size: 25px&quot; color=&quot;#ffffff&quot;&gt;-1&lt;/font&gt;" style="shape=partialRectangle;html=1;whiteSpace=wrap;connectable=0;fillColor=none;top=0;left=0;bottom=0;right=0;overflow=hidden;" vertex="1" parent="wJaIogHRavHg8Ts5eM7x-469">
          <mxGeometry x="50" width="50" height="50" as="geometry" />
        </mxCell>
        <mxCell id="wJaIogHRavHg8Ts5eM7x-472" value="&lt;font style=&quot;font-size: 25px&quot; color=&quot;#ffffff&quot;&gt;1&lt;/font&gt;" style="shape=partialRectangle;html=1;whiteSpace=wrap;connectable=0;fillColor=none;top=0;left=0;bottom=0;right=0;overflow=hidden;" vertex="1" parent="wJaIogHRavHg8Ts5eM7x-469">
          <mxGeometry x="100" width="50" height="50" as="geometry" />
        </mxCell>
        <mxCell id="wJaIogHRavHg8Ts5eM7x-473" value="" style="shape=partialRectangle;html=1;whiteSpace=wrap;collapsible=0;dropTarget=0;pointerEvents=0;fillColor=none;top=0;left=0;bottom=0;right=0;points=[[0,0.5],[1,0.5]];portConstraint=eastwest;" vertex="1" parent="wJaIogHRavHg8Ts5eM7x-456">
          <mxGeometry y="200" width="150" height="50" as="geometry" />
        </mxCell>
        <mxCell id="wJaIogHRavHg8Ts5eM7x-474" value="&lt;font style=&quot;font-size: 25px&quot; color=&quot;#ffffff&quot;&gt;-4&lt;/font&gt;" style="shape=partialRectangle;html=1;whiteSpace=wrap;connectable=0;fillColor=none;top=0;left=0;bottom=0;right=0;overflow=hidden;" vertex="1" parent="wJaIogHRavHg8Ts5eM7x-473">
          <mxGeometry width="50" height="50" as="geometry" />
        </mxCell>
        <mxCell id="wJaIogHRavHg8Ts5eM7x-475" value="&lt;font color=&quot;#ffffff&quot; style=&quot;font-size: 25px&quot;&gt;2&lt;/font&gt;" style="shape=partialRectangle;html=1;whiteSpace=wrap;connectable=0;fillColor=none;top=0;left=0;bottom=0;right=0;overflow=hidden;" vertex="1" parent="wJaIogHRavHg8Ts5eM7x-473">
          <mxGeometry x="50" width="50" height="50" as="geometry" />
        </mxCell>
        <mxCell id="wJaIogHRavHg8Ts5eM7x-476" value="&lt;font style=&quot;font-size: 25px&quot; color=&quot;#ffffff&quot;&gt;0&lt;/font&gt;" style="shape=partialRectangle;html=1;whiteSpace=wrap;connectable=0;fillColor=none;top=0;left=0;bottom=0;right=0;overflow=hidden;" vertex="1" parent="wJaIogHRavHg8Ts5eM7x-473">
          <mxGeometry x="100" width="50" height="50" as="geometry" />
        </mxCell>
        <mxCell id="wJaIogHRavHg8Ts5eM7x-477" value="" style="shape=partialRectangle;html=1;whiteSpace=wrap;collapsible=0;dropTarget=0;pointerEvents=0;fillColor=none;top=0;left=0;bottom=0;right=0;points=[[0,0.5],[1,0.5]];portConstraint=eastwest;" vertex="1" parent="wJaIogHRavHg8Ts5eM7x-456">
          <mxGeometry y="250" width="150" height="50" as="geometry" />
        </mxCell>
        <mxCell id="wJaIogHRavHg8Ts5eM7x-478" value="&lt;font style=&quot;font-size: 25px&quot; color=&quot;#ffffff&quot;&gt;-5&lt;/font&gt;" style="shape=partialRectangle;html=1;whiteSpace=wrap;connectable=0;fillColor=none;top=0;left=0;bottom=0;right=0;overflow=hidden;" vertex="1" parent="wJaIogHRavHg8Ts5eM7x-477">
          <mxGeometry width="50" height="50" as="geometry" />
        </mxCell>
        <mxCell id="wJaIogHRavHg8Ts5eM7x-479" value="&lt;font style=&quot;font-size: 25px&quot; color=&quot;#ffffff&quot;&gt;-3&lt;/font&gt;" style="shape=partialRectangle;html=1;whiteSpace=wrap;connectable=0;fillColor=none;top=0;left=0;bottom=0;right=0;overflow=hidden;" vertex="1" parent="wJaIogHRavHg8Ts5eM7x-477">
          <mxGeometry x="50" width="50" height="50" as="geometry" />
        </mxCell>
        <mxCell id="wJaIogHRavHg8Ts5eM7x-480" value="&lt;font style=&quot;font-size: 25px&quot; color=&quot;#ffffff&quot;&gt;-1&lt;/font&gt;" style="shape=partialRectangle;html=1;whiteSpace=wrap;connectable=0;fillColor=none;top=0;left=0;bottom=0;right=0;overflow=hidden;" vertex="1" parent="wJaIogHRavHg8Ts5eM7x-477">
          <mxGeometry x="100" width="50" height="50" as="geometry" />
        </mxCell>
        <mxCell id="wJaIogHRavHg8Ts5eM7x-481" value="" style="shape=partialRectangle;html=1;whiteSpace=wrap;collapsible=0;dropTarget=0;pointerEvents=0;fillColor=none;top=0;left=0;bottom=0;right=0;points=[[0,0.5],[1,0.5]];portConstraint=eastwest;" vertex="1" parent="wJaIogHRavHg8Ts5eM7x-456">
          <mxGeometry y="300" width="150" height="50" as="geometry" />
        </mxCell>
        <mxCell id="wJaIogHRavHg8Ts5eM7x-482" value="&lt;font style=&quot;font-size: 25px&quot; color=&quot;#ffffff&quot;&gt;0&lt;/font&gt;" style="shape=partialRectangle;html=1;whiteSpace=wrap;connectable=0;fillColor=none;top=0;left=0;bottom=0;right=0;overflow=hidden;" vertex="1" parent="wJaIogHRavHg8Ts5eM7x-481">
          <mxGeometry width="50" height="50" as="geometry" />
        </mxCell>
        <mxCell id="wJaIogHRavHg8Ts5eM7x-483" value="&lt;font style=&quot;font-size: 25px&quot; color=&quot;#ffffff&quot;&gt;&lt;b&gt;2&lt;/b&gt;&lt;/font&gt;" style="shape=partialRectangle;html=1;whiteSpace=wrap;connectable=0;fillColor=none;top=0;left=0;bottom=0;right=0;overflow=hidden;" vertex="1" parent="wJaIogHRavHg8Ts5eM7x-481">
          <mxGeometry x="50" width="50" height="50" as="geometry" />
        </mxCell>
        <mxCell id="wJaIogHRavHg8Ts5eM7x-484" value="&lt;font style=&quot;font-size: 25px&quot; color=&quot;#ffffff&quot;&gt;&lt;b&gt;4&lt;/b&gt;&lt;/font&gt;" style="shape=partialRectangle;html=1;whiteSpace=wrap;connectable=0;fillColor=none;top=0;left=0;bottom=0;right=0;overflow=hidden;" vertex="1" parent="wJaIogHRavHg8Ts5eM7x-481">
          <mxGeometry x="100" width="50" height="50" as="geometry" />
        </mxCell>
        <mxCell id="wJaIogHRavHg8Ts5eM7x-485" value="" style="shape=partialRectangle;html=1;whiteSpace=wrap;collapsible=0;dropTarget=0;pointerEvents=0;fillColor=none;top=0;left=0;bottom=0;right=0;points=[[0,0.5],[1,0.5]];portConstraint=eastwest;" vertex="1" parent="wJaIogHRavHg8Ts5eM7x-456">
          <mxGeometry y="350" width="150" height="50" as="geometry" />
        </mxCell>
        <mxCell id="wJaIogHRavHg8Ts5eM7x-486" value="&lt;font style=&quot;font-size: 25px&quot; color=&quot;#ffffff&quot;&gt;-2&lt;/font&gt;" style="shape=partialRectangle;html=1;whiteSpace=wrap;connectable=0;fillColor=none;top=0;left=0;bottom=0;right=0;overflow=hidden;" vertex="1" parent="wJaIogHRavHg8Ts5eM7x-485">
          <mxGeometry width="50" height="50" as="geometry" />
        </mxCell>
        <mxCell id="wJaIogHRavHg8Ts5eM7x-487" value="&lt;font style=&quot;font-size: 25px&quot; color=&quot;#ffffff&quot;&gt;0&lt;/font&gt;" style="shape=partialRectangle;html=1;whiteSpace=wrap;connectable=0;fillColor=none;top=0;left=0;bottom=0;right=0;overflow=hidden;" vertex="1" parent="wJaIogHRavHg8Ts5eM7x-485">
          <mxGeometry x="50" width="50" height="50" as="geometry" />
        </mxCell>
        <mxCell id="wJaIogHRavHg8Ts5eM7x-488" value="&lt;font style=&quot;font-size: 25px&quot; color=&quot;#ffffff&quot;&gt;&lt;b&gt;2&lt;/b&gt;&lt;/font&gt;" style="shape=partialRectangle;html=1;whiteSpace=wrap;connectable=0;fillColor=none;top=0;left=0;bottom=0;right=0;overflow=hidden;" vertex="1" parent="wJaIogHRavHg8Ts5eM7x-485">
          <mxGeometry x="100" width="50" height="50" as="geometry" />
        </mxCell>
        <mxCell id="wJaIogHRavHg8Ts5eM7x-489" value="" style="shape=partialRectangle;html=1;whiteSpace=wrap;collapsible=0;dropTarget=0;pointerEvents=0;fillColor=none;top=0;left=0;bottom=0;right=0;points=[[0,0.5],[1,0.5]];portConstraint=eastwest;" vertex="1" parent="wJaIogHRavHg8Ts5eM7x-456">
          <mxGeometry y="400" width="150" height="50" as="geometry" />
        </mxCell>
        <mxCell id="wJaIogHRavHg8Ts5eM7x-490" value="&lt;font style=&quot;font-size: 25px&quot; color=&quot;#ffffff&quot;&gt;-4&lt;/font&gt;" style="shape=partialRectangle;html=1;whiteSpace=wrap;connectable=0;fillColor=none;top=0;left=0;bottom=0;right=0;overflow=hidden;" vertex="1" parent="wJaIogHRavHg8Ts5eM7x-489">
          <mxGeometry width="50" height="50" as="geometry" />
        </mxCell>
        <mxCell id="wJaIogHRavHg8Ts5eM7x-491" value="&lt;font style=&quot;font-size: 25px&quot; color=&quot;#ffffff&quot;&gt;-2&lt;/font&gt;" style="shape=partialRectangle;html=1;whiteSpace=wrap;connectable=0;fillColor=none;top=0;left=0;bottom=0;right=0;overflow=hidden;" vertex="1" parent="wJaIogHRavHg8Ts5eM7x-489">
          <mxGeometry x="50" width="50" height="50" as="geometry" />
        </mxCell>
        <mxCell id="wJaIogHRavHg8Ts5eM7x-492" value="&lt;font color=&quot;#ffffff&quot; style=&quot;font-size: 25px&quot;&gt;&lt;b&gt;0&lt;/b&gt;&lt;/font&gt;" style="shape=partialRectangle;html=1;whiteSpace=wrap;connectable=0;fillColor=none;top=0;left=0;bottom=0;right=0;overflow=hidden;" vertex="1" parent="wJaIogHRavHg8Ts5eM7x-489">
          <mxGeometry x="100" width="50" height="50" as="geometry" />
        </mxCell>
        <mxCell id="wJaIogHRavHg8Ts5eM7x-493" value="&lt;font style=&quot;font-size: 25px&quot;&gt;&lt;i&gt;d&lt;sup&gt;(hh)&lt;/sup&gt;&lt;/i&gt;&lt;/font&gt;" style="text;html=1;align=center;verticalAlign=middle;resizable=0;points=[];autosize=1;" vertex="1" parent="1">
          <mxGeometry x="320" y="150" width="70" height="30" as="geometry" />
        </mxCell>
        <mxCell id="wJaIogHRavHg8Ts5eM7x-494" value="&lt;font style=&quot;font-size: 25px&quot;&gt;&lt;i&gt;d&lt;sup&gt;(tt)&lt;/sup&gt;&lt;/i&gt;&lt;/font&gt;" style="text;html=1;align=center;verticalAlign=middle;resizable=0;points=[];autosize=1;" vertex="1" parent="1">
          <mxGeometry x="423.5" y="60" width="50" height="30" as="geometry" />
        </mxCell>
        <mxCell id="wJaIogHRavHg8Ts5eM7x-495" value="&lt;font style=&quot;font-size: 25px&quot;&gt;&lt;i&gt;d&lt;sup&gt;(th)&lt;/sup&gt;&lt;/i&gt;&lt;/font&gt;" style="text;html=1;align=center;verticalAlign=middle;resizable=0;points=[];autosize=1;" vertex="1" parent="1">
          <mxGeometry x="384" y="90" width="60" height="30" as="geometry" />
        </mxCell>
        <mxCell id="wJaIogHRavHg8Ts5eM7x-496" value="&lt;font style=&quot;font-size: 25px&quot;&gt;&lt;i&gt;d&lt;sup&gt;(ht)&lt;/sup&gt;&lt;/i&gt;&lt;/font&gt;" style="text;html=1;align=center;verticalAlign=middle;resizable=0;points=[];autosize=1;" vertex="1" parent="1">
          <mxGeometry x="359" y="120" width="60" height="30" as="geometry" />
        </mxCell>
        <mxCell id="wJaIogHRavHg8Ts5eM7x-497" style="edgeStyle=orthogonalEdgeStyle;rounded=0;orthogonalLoop=1;jettySize=auto;html=1;exitX=0.007;exitY=0.188;exitDx=0;exitDy=0;startSize=0;exitPerimeter=0;entryX=1.002;entryY=0.596;entryDx=0;entryDy=0;entryPerimeter=0;" edge="1" parent="1" source="wJaIogHRavHg8Ts5eM7x-411" target="wJaIogHRavHg8Ts5eM7x-36">
          <mxGeometry relative="1" as="geometry">
            <mxPoint x="330" y="530" as="targetPoint" />
          </mxGeometry>
        </mxCell>
        <mxCell id="wJaIogHRavHg8Ts5eM7x-498" value="" style="endArrow=none;html=1;exitX=1;exitY=0.5;exitDx=0;exitDy=0;" edge="1" parent="1" source="wJaIogHRavHg8Ts5eM7x-4">
          <mxGeometry width="50" height="50" relative="1" as="geometry">
            <mxPoint x="930" y="1100" as="sourcePoint" />
            <mxPoint x="960" y="1070" as="targetPoint" />
          </mxGeometry>
        </mxCell>
        <mxCell id="wJaIogHRavHg8Ts5eM7x-499" value="" style="endArrow=none;html=1;exitX=1;exitY=0.5;exitDx=0;exitDy=0;" edge="1" parent="1" source="wJaIogHRavHg8Ts5eM7x-2">
          <mxGeometry width="50" height="50" relative="1" as="geometry">
            <mxPoint x="920" y="1060" as="sourcePoint" />
            <mxPoint x="960" y="1020" as="targetPoint" />
          </mxGeometry>
        </mxCell>
        <mxCell id="wJaIogHRavHg8Ts5eM7x-500" value="" style="endArrow=none;html=1;" edge="1" parent="1">
          <mxGeometry width="50" height="50" relative="1" as="geometry">
            <mxPoint x="960" y="1070" as="sourcePoint" />
            <mxPoint x="960" y="1020" as="targetPoint" />
            <Array as="points">
              <mxPoint x="960" y="1040" />
            </Array>
          </mxGeometry>
        </mxCell>
        <mxCell id="wJaIogHRavHg8Ts5eM7x-501" value="" style="endArrow=none;html=1;exitX=0.5;exitY=0;exitDx=0;exitDy=0;" edge="1" parent="1" source="wJaIogHRavHg8Ts5eM7x-3">
          <mxGeometry width="50" height="50" relative="1" as="geometry">
            <mxPoint x="-170" y="930" as="sourcePoint" />
            <mxPoint x="210" y="870" as="targetPoint" />
          </mxGeometry>
        </mxCell>
        <mxCell id="wJaIogHRavHg8Ts5eM7x-502" value="" style="endArrow=none;html=1;exitX=0.5;exitY=0;exitDx=0;exitDy=0;" edge="1" parent="1" source="wJaIogHRavHg8Ts5eM7x-5">
          <mxGeometry width="50" height="50" relative="1" as="geometry">
            <mxPoint x="-110" y="860" as="sourcePoint" />
            <mxPoint x="210" y="870" as="targetPoint" />
          </mxGeometry>
        </mxCell>
        <mxCell id="wJaIogHRavHg8Ts5eM7x-503" value="" style="endArrow=none;html=1;exitX=0.5;exitY=0;exitDx=0;exitDy=0;" edge="1" parent="1" source="wJaIogHRavHg8Ts5eM7x-6">
          <mxGeometry width="50" height="50" relative="1" as="geometry">
            <mxPoint x="-40" y="900" as="sourcePoint" />
            <mxPoint x="210" y="870" as="targetPoint" />
          </mxGeometry>
        </mxCell>
        <mxCell id="wJaIogHRavHg8Ts5eM7x-504" value="" style="endArrow=none;html=1;exitX=0.5;exitY=0;exitDx=0;exitDy=0;" edge="1" parent="1" source="wJaIogHRavHg8Ts5eM7x-7">
          <mxGeometry width="50" height="50" relative="1" as="geometry">
            <mxPoint x="-100" y="900" as="sourcePoint" />
            <mxPoint x="210" y="870" as="targetPoint" />
          </mxGeometry>
        </mxCell>
        <mxCell id="wJaIogHRavHg8Ts5eM7x-505" value="" style="endArrow=none;html=1;exitX=0.5;exitY=0;exitDx=0;exitDy=0;" edge="1" parent="1" source="wJaIogHRavHg8Ts5eM7x-8">
          <mxGeometry width="50" height="50" relative="1" as="geometry">
            <mxPoint x="-80" y="880" as="sourcePoint" />
            <mxPoint x="210" y="870" as="targetPoint" />
          </mxGeometry>
        </mxCell>
        <mxCell id="wJaIogHRavHg8Ts5eM7x-506" value="" style="endArrow=none;html=1;exitX=0.5;exitY=0;exitDx=0;exitDy=0;" edge="1" parent="1" source="wJaIogHRavHg8Ts5eM7x-9">
          <mxGeometry width="50" height="50" relative="1" as="geometry">
            <mxPoint x="-90" y="930" as="sourcePoint" />
            <mxPoint x="210" y="870" as="targetPoint" />
          </mxGeometry>
        </mxCell>
        <mxCell id="wJaIogHRavHg8Ts5eM7x-507" value="" style="endArrow=none;html=1;exitX=0.5;exitY=0;exitDx=0;exitDy=0;" edge="1" parent="1" source="wJaIogHRavHg8Ts5eM7x-10">
          <mxGeometry width="50" height="50" relative="1" as="geometry">
            <mxPoint x="410" y="790" as="sourcePoint" />
            <mxPoint x="210" y="870" as="targetPoint" />
          </mxGeometry>
        </mxCell>
        <mxCell id="wJaIogHRavHg8Ts5eM7x-508" value="" style="endArrow=none;html=1;exitX=0.5;exitY=0;exitDx=0;exitDy=0;" edge="1" parent="1" source="wJaIogHRavHg8Ts5eM7x-11">
          <mxGeometry width="50" height="50" relative="1" as="geometry">
            <mxPoint x="-100" y="940" as="sourcePoint" />
            <mxPoint x="210" y="870" as="targetPoint" />
          </mxGeometry>
        </mxCell>
        <mxCell id="wJaIogHRavHg8Ts5eM7x-509" value="" style="endArrow=none;html=1;exitX=0.5;exitY=0;exitDx=0;exitDy=0;" edge="1" parent="1" source="wJaIogHRavHg8Ts5eM7x-12">
          <mxGeometry width="50" height="50" relative="1" as="geometry">
            <mxPoint x="-100" y="880" as="sourcePoint" />
            <mxPoint x="210" y="870" as="targetPoint" />
          </mxGeometry>
        </mxCell>
        <mxCell id="wJaIogHRavHg8Ts5eM7x-552" value="&lt;font face=&quot;Lucida Console&quot;&gt;&lt;span style=&quot;font-size: 20px&quot;&gt;&lt;b&gt;Output&lt;/b&gt;&lt;/span&gt;&lt;/font&gt;" style="rounded=1;whiteSpace=wrap;html=1;strokeWidth=1;opacity=80;strokeColor=#36393d;fillColor=#ffcc99;arcSize=50;" vertex="1" parent="1">
          <mxGeometry x="90" y="620" width="230" height="55" as="geometry" />
        </mxCell>
        <mxCell id="wJaIogHRavHg8Ts5eM7x-559" value="" style="endArrow=classic;html=1;strokeColor=#000000;entryX=0.5;entryY=1;entryDx=0;entryDy=0;exitX=0.5;exitY=0;exitDx=0;exitDy=0;" edge="1" parent="1" source="wJaIogHRavHg8Ts5eM7x-552" target="wJaIogHRavHg8Ts5eM7x-36">
          <mxGeometry width="50" height="50" relative="1" as="geometry">
            <mxPoint x="-390" y="560" as="sourcePoint" />
            <mxPoint x="-340" y="510" as="targetPoint" />
          </mxGeometry>
        </mxCell>
        <mxCell id="wJaIogHRavHg8Ts5eM7x-560" value="" style="endArrow=classic;html=1;strokeColor=#000000;entryX=0;entryY=0.5;entryDx=0;entryDy=0;" edge="1" parent="1" target="wJaIogHRavHg8Ts5eM7x-38">
          <mxGeometry width="50" height="50" relative="1" as="geometry">
            <mxPoint x="205" y="580" as="sourcePoint" />
            <mxPoint x="-70" y="480" as="targetPoint" />
            <Array as="points">
              <mxPoint x="70" y="580" />
              <mxPoint x="70" y="445" />
            </Array>
          </mxGeometry>
        </mxCell>
        <mxCell id="wJaIogHRavHg8Ts5eM7x-561" value="" style="endArrow=classic;html=1;strokeColor=#000000;entryX=0;entryY=0.5;entryDx=0;entryDy=0;" edge="1" parent="1">
          <mxGeometry width="50" height="50" relative="1" as="geometry">
            <mxPoint x="205" y="405" as="sourcePoint" />
            <mxPoint x="90" y="270" as="targetPoint" />
            <Array as="points">
              <mxPoint x="70" y="405" />
              <mxPoint x="70" y="270" />
            </Array>
          </mxGeometry>
        </mxCell>
        <mxCell id="wJaIogHRavHg8Ts5eM7x-562" value="&lt;font style=&quot;font-size: 40px&quot;&gt;&lt;b&gt;...&lt;/b&gt;&lt;/font&gt;" style="text;html=1;align=center;verticalAlign=middle;resizable=0;points=[];autosize=1;strokeColor=none;" vertex="1" parent="1">
          <mxGeometry x="180" y="710" width="50" height="30" as="geometry" />
        </mxCell>
        <mxCell id="wJaIogHRavHg8Ts5eM7x-563" value="" style="endArrow=none;html=1;exitX=0.5;exitY=0;exitDx=0;exitDy=0;" edge="1" parent="1" source="wJaIogHRavHg8Ts5eM7x-34">
          <mxGeometry width="50" height="50" relative="1" as="geometry">
            <mxPoint x="-120" y="820" as="sourcePoint" />
            <mxPoint x="205" y="770" as="targetPoint" />
          </mxGeometry>
        </mxCell>
        <mxCell id="wJaIogHRavHg8Ts5eM7x-564" value="" style="endArrow=classic;html=1;entryX=0.5;entryY=1;entryDx=0;entryDy=0;" edge="1" parent="1" target="wJaIogHRavHg8Ts5eM7x-552">
          <mxGeometry width="50" height="50" relative="1" as="geometry">
            <mxPoint x="205" y="720" as="sourcePoint" />
            <mxPoint x="200" y="680" as="targetPoint" />
          </mxGeometry>
        </mxCell>
      </root>
    </mxGraphModel>
  </diagram>
</mxfile>
